{"glyphs":{"0":{"ha":651,"x_min":49,"x_max":608,"o":"m 608 428 q 597 304 608 358 q 547 147 579 210 q 469 41 514 84 q 400 -6 437 9 q 326 -20 363 -20 q 198 24 258 -20 q 94 172 138 69 q 49 415 49 275 q 76 625 49 524 q 148 780 103 725 q 236 860 192 836 q 331 884 279 884 q 472 827 404 884 q 581 650 540 770 q 608 428 608 570 m 506 450 q 494 677 505 617 q 432 814 475 775 q 331 854 389 854 q 240 823 283 854 q 180 725 197 791 q 153 398 153 617 q 196 95 153 181 q 325 8 239 8 q 427 45 384 8 q 489 181 470 81 q 507 404 507 280 l 506 450 z "},"1":{"ha":651,"x_min":104,"x_max":493,"o":"m 492 1 l 182 1 q 181 12 181 7 q 186 27 181 23 q 216 37 191 32 q 279 56 255 45 q 286 84 286 71 l 286 126 q 288 195 286 134 q 290 394 289 218 l 291 553 l 290 646 q 291 774 290 667 q 122 665 137 665 q 111 670 117 665 q 104 682 104 676 q 109 692 104 688 q 155 722 119 701 q 201 758 160 724 q 298 844 267 813 q 335 880 328 876 q 356 880 349 880 q 378 874 374 880 q 382 833 382 869 l 378 229 l 378 169 q 377 125 378 147 q 376 93 376 103 q 382 61 376 68 q 408 49 387 56 l 454 39 q 486 29 484 32 q 493 10 493 23 l 492 1 z "},"2":{"ha":651,"x_min":31,"x_max":613,"o":"m 592 1 q 319 5 490 5 l 172 1 l 106 3 l 54 1 q 31 5 46 2 q 62 57 43 33 q 227 235 118 126 q 427 475 378 388 q 475 639 475 562 q 426 760 475 711 q 306 808 377 808 q 223 788 263 808 q 159 738 183 768 q 117 659 143 718 q 100 624 103 627 q 91 619 96 619 q 80 625 85 619 q 75 640 75 631 q 106 737 75 670 q 197 842 137 804 q 336 880 257 880 q 510 813 440 880 q 579 652 579 745 q 532 502 579 578 q 313 268 484 425 q 233 192 257 216 q 138 86 210 168 q 326 82 241 82 q 366 83 345 82 q 413 85 406 85 l 507 83 q 539 98 523 83 q 583 182 555 113 l 600 182 q 610 182 603 182 q 613 172 613 175 l 612 166 q 602 94 606 146 q 592 1 600 64 z "},"3":{"ha":651,"x_min":54,"x_max":589,"o":"m 116 684 l 94 696 q 195 842 136 800 q 333 884 254 884 q 450 852 406 884 q 516 742 516 803 q 483 642 516 692 q 365 530 449 592 l 381 530 q 483 504 434 530 q 561 420 532 477 q 589 298 589 363 q 493 74 589 168 q 249 -19 397 -19 q 83 14 136 -19 q 54 56 54 31 q 65 82 54 71 q 95 94 77 94 q 149 69 117 94 q 280 12 224 12 q 429 82 364 12 q 494 261 494 153 q 451 408 494 351 q 340 465 407 465 q 235 418 290 465 l 219 445 q 280 494 253 474 q 404 613 363 555 q 433 687 433 655 q 395 778 433 741 q 295 814 357 814 q 116 684 193 814 z "},"4":{"ha":651,"x_min":37,"x_max":634,"o":"m 455 884 l 486 884 q 486 859 486 863 l 488 760 l 484 670 l 486 570 l 486 492 l 488 385 q 486 309 488 359 l 500 308 l 549 308 l 595 307 l 633 309 q 634 277 634 288 q 633 246 634 267 q 587 244 591 244 l 553 245 l 526 245 q 486 246 515 245 q 486 -9 485 150 q 477 -15 482 -14 l 435 -16 q 394 -15 422 -16 q 396 100 396 65 q 395 155 396 130 q 393 208 393 201 q 394 246 393 220 q 350 243 366 243 q 332 243 342 243 q 254 247 263 247 q 211 242 245 247 l 141 246 l 103 244 l 77 248 l 45 241 l 39 246 q 37 269 37 261 q 39 291 37 276 q 109 393 58 316 l 241 585 q 323 700 290 657 q 389 792 356 743 q 455 884 421 841 m 394 309 l 395 420 l 394 508 l 394 735 q 239 513 338 662 q 105 309 126 344 q 150 310 135 310 l 336 307 q 394 309 356 307 z "},"5":{"ha":651,"x_min":71,"x_max":581,"o":"m 514 783 q 391 777 438 777 q 318 779 357 777 q 293 780 297 780 q 204 777 210 780 q 201 770 201 775 q 183 528 199 760 q 242 550 214 544 q 317 557 271 557 q 363 553 351 557 q 456 515 428 532 q 520 459 496 490 q 566 368 545 428 q 581 277 581 324 q 567 181 581 225 q 530 106 552 136 q 466 44 509 77 q 365 -5 423 12 q 288 -22 307 -22 l 189 -14 q 118 8 149 -7 q 77 38 87 24 q 71 61 71 47 q 86 85 71 72 q 124 98 102 98 q 146 92 134 98 l 200 57 q 245 26 218 41 q 266 22 250 24 q 309 16 305 16 q 359 28 323 16 q 426 70 395 41 q 478 145 456 100 q 500 245 500 190 q 439 407 500 343 q 290 471 377 471 q 219 458 252 471 q 174 429 186 445 l 164 425 q 153 422 156 422 l 144 424 q 142 442 142 436 q 144 461 142 448 q 149 530 149 494 q 156 594 149 566 l 154 627 q 159 675 159 652 q 172 854 161 831 q 189 865 177 865 q 204 863 193 865 l 208 863 l 294 863 q 380 860 353 860 q 483 869 444 860 q 512 886 502 886 q 527 885 516 886 l 529 877 l 524 848 l 520 803 q 514 783 519 798 z "},"6":{"ha":651,"x_min":68,"x_max":593,"o":"m 534 888 q 543 866 540 878 q 530 856 538 859 q 446 817 501 848 q 367 753 433 810 q 296 677 338 733 q 216 544 240 603 q 172 391 191 486 q 165 295 167 363 l 163 270 q 214 97 163 183 q 342 10 265 10 q 417 35 382 10 q 472 117 452 59 q 492 258 492 176 q 449 425 492 371 q 346 479 406 479 q 313 473 328 479 l 308 472 q 290 492 299 472 q 332 511 307 503 q 365 518 357 518 q 427 508 370 518 l 446 498 q 496 475 479 488 q 551 412 527 450 q 584 332 564 392 q 593 272 585 328 l 590 204 q 563 119 576 143 q 499 37 544 81 q 439 1 476 15 q 330 -19 388 -19 q 144 69 220 -19 q 68 323 68 157 q 96 499 68 416 q 177 652 125 583 q 273 752 212 699 q 388 836 334 806 q 534 888 462 875 z "},"7":{"ha":651,"x_min":64,"x_max":599,"o":"m 74 857 q 299 861 157 861 q 446 859 363 861 q 512 857 496 857 l 578 857 l 593 857 q 599 847 599 852 q 583 808 599 839 q 517 659 576 794 q 448 485 489 593 l 362 244 q 323 129 332 161 l 307 66 q 298 25 298 38 q 309 -7 298 15 q 273 -18 301 -18 q 248 -7 260 -18 q 274 99 252 33 q 302 193 282 123 q 340 316 321 262 l 418 526 q 482 691 451 616 q 498 726 493 716 q 513 768 513 751 l 504 767 l 496 767 l 407 770 q 378 768 403 770 q 342 767 354 767 l 237 768 l 205 768 l 160 769 q 111 760 121 770 q 100 709 101 750 q 94 690 99 699 q 83 688 87 688 q 64 693 76 688 q 64 718 64 710 l 66 739 l 64 776 q 66 842 64 825 q 74 857 68 848 z "},"8":{"ha":651,"x_min":79,"x_max":596,"o":"m 262 433 q 172 490 196 469 q 116 565 138 519 q 93 659 93 611 q 160 811 93 743 q 323 880 227 880 q 496 822 433 880 q 560 682 560 764 q 541 597 560 635 q 485 529 522 559 q 399 477 460 508 q 509 413 492 427 q 571 338 546 385 q 596 234 596 291 q 523 54 596 127 q 335 -19 449 -19 q 148 45 218 -19 q 79 203 79 109 q 97 301 79 257 q 154 376 115 345 q 262 433 184 399 m 368 492 q 448 557 425 524 q 484 682 484 612 q 463 775 484 736 q 405 831 441 814 q 326 848 368 848 q 216 802 259 848 q 172 688 172 755 q 184 623 172 649 q 220 574 195 597 q 296 521 237 559 q 339 504 305 515 q 368 492 349 500 m 295 418 q 227 373 246 393 q 180 305 197 345 q 163 197 163 266 q 195 83 163 124 q 333 14 248 14 q 461 64 411 14 q 511 191 511 113 q 460 326 511 276 q 295 418 410 375 z "},"9":{"ha":651,"x_min":61,"x_max":586,"o":"m 485 821 q 557 714 535 767 q 586 541 586 640 q 553 343 586 430 q 474 193 521 256 q 377 89 428 130 q 252 14 326 47 q 127 -20 177 -20 l 121 -20 q 113 -5 113 -14 q 117 8 113 5 q 134 12 120 12 q 219 43 159 14 q 343 133 300 84 q 451 320 416 216 q 487 554 487 425 q 463 729 487 662 q 393 826 438 796 q 307 856 349 856 q 215 804 253 856 q 163 597 163 732 q 212 428 163 490 q 307 385 246 385 q 338 389 328 385 l 343 391 q 355 384 350 391 q 363 363 363 374 l 356 357 q 322 347 341 350 q 279 343 302 343 q 128 419 195 343 q 61 610 61 495 q 137 807 61 728 q 317 886 212 886 q 397 873 363 886 q 485 821 432 861 z "}," ":{"ha":347,"x_min":0,"x_max":0,"o":""},"!":{"ha":304,"x_min":85,"x_max":223,"o":"m 165 197 q 155 195 158 195 q 140 197 150 195 l 119 588 q 107 692 117 629 q 94 812 94 776 q 111 868 94 849 q 152 886 127 886 q 197 868 178 886 q 215 815 215 849 q 201 667 215 784 q 174 374 175 441 l 168 212 q 165 197 168 206 m 85 54 q 105 103 85 82 q 156 123 126 123 q 204 103 184 123 q 223 58 223 83 q 201 7 223 32 q 156 -17 178 -17 q 108 7 132 -17 q 85 54 85 31 z "},"\"":{"ha":564,"x_min":90,"x_max":475,"o":"m 142 545 l 105 745 q 90 858 90 828 q 108 921 90 901 q 157 941 126 941 q 206 921 186 941 q 226 869 226 901 q 208 745 226 840 l 172 545 l 142 545 m 391 545 l 354 743 l 339 825 q 338 859 338 842 q 357 921 338 901 q 407 941 376 941 q 455 921 436 941 q 475 869 475 901 q 462 743 475 810 l 423 545 l 391 545 z "},"#":{"ha":926,"x_min":64,"x_max":862,"o":"m 64 644 l 291 644 l 351 926 l 410 926 l 350 644 l 659 644 l 718 926 l 777 926 l 718 644 l 862 644 l 862 584 l 706 584 l 648 309 l 862 309 l 862 249 l 636 249 l 578 -32 l 518 -32 l 577 249 l 267 249 l 210 -32 l 149 -32 l 208 249 l 64 249 l 64 309 l 220 309 l 278 584 l 64 584 l 64 644 m 337 584 l 279 310 l 589 310 l 647 584 l 337 584 z "},"$":{"ha":622,"x_min":58,"x_max":562,"o":"m 227 40 q 235 260 235 87 l 237 294 l 233 425 q 143 477 191 442 q 77 552 96 513 q 58 641 58 591 q 99 763 58 709 q 214 839 140 817 l 226 843 l 226 852 q 230 910 226 858 l 255 909 q 258 845 258 867 q 301 848 285 848 q 340 845 319 848 q 363 843 354 844 l 363 852 q 365 909 363 866 l 394 909 q 396 875 396 896 q 397 839 396 853 q 476 812 450 825 q 528 777 503 799 q 553 747 535 772 q 559 718 559 736 q 547 690 559 701 q 517 678 535 678 q 483 695 505 678 q 463 718 477 703 q 419 775 429 768 q 392 788 410 783 q 387 694 387 713 q 389 670 387 687 q 391 582 391 644 l 390 448 q 401 440 394 444 l 465 398 q 509 356 492 380 q 554 273 542 310 q 562 208 562 248 q 520 81 562 136 q 412 5 477 26 q 386 -5 398 1 q 379 -43 379 -37 l 381 -137 q 377 -185 381 -145 l 351 -185 q 349 -147 349 -159 q 351 -89 349 -137 q 352 -65 352 -75 q 351 -38 352 -54 q 349 -11 349 -22 q 260 -16 331 -14 q 253 -104 255 -50 q 250 -184 252 -159 l 225 -184 q 227 -16 227 -130 q 203 -10 218 -14 q 93 42 127 7 q 58 110 58 77 q 70 137 58 125 q 98 148 82 148 q 172 91 128 148 q 227 40 203 49 m 256 515 q 344 471 277 503 q 359 463 351 465 q 359 492 359 488 l 363 690 l 363 729 l 363 749 q 358 808 363 778 q 296 814 326 814 q 254 807 273 814 l 256 710 l 254 619 q 256 561 256 581 l 256 530 q 256 515 256 526 m 225 529 q 227 566 227 558 l 227 609 q 229 693 229 670 q 225 801 229 773 q 149 756 173 788 q 116 667 116 712 q 146 593 116 635 q 225 529 176 551 m 256 31 q 323 19 286 19 q 355 24 340 19 l 357 35 l 357 81 l 359 190 l 359 277 l 359 326 q 357 359 359 336 q 266 406 309 391 q 262 392 262 396 l 254 111 l 255 98 l 255 66 q 256 31 256 40 m 386 35 q 461 93 436 56 q 486 182 486 130 q 477 231 486 211 q 441 293 457 276 q 392 332 417 319 q 389 311 390 319 l 388 172 l 383 57 l 384 51 l 386 35 z "},"%":{"ha":1143,"x_min":50,"x_max":1097,"o":"m 249 -45 q 263 -20 255 -33 q 284 14 271 -8 q 335 90 289 21 q 397 186 380 159 q 836 884 701 701 l 843 885 q 879 883 875 883 l 583 418 l 448 195 l 292 -44 l 287 -44 q 254 -45 283 -44 l 249 -45 m 396 647 q 342 476 396 540 q 222 413 288 413 q 102 474 154 413 q 50 640 50 534 q 77 777 50 713 q 138 854 97 825 q 225 884 178 884 q 314 853 273 884 q 380 760 356 822 q 396 647 396 719 m 320 634 q 315 765 320 734 q 282 838 305 817 q 225 860 259 860 q 154 821 180 860 q 128 631 128 782 q 155 475 128 513 q 221 437 181 437 q 290 469 267 437 q 320 634 320 512 m 1097 223 q 1042 53 1097 116 q 922 -10 988 -10 q 802 51 854 -10 q 750 216 750 111 q 777 354 750 290 q 838 431 797 401 q 925 461 878 461 q 1015 430 972 461 q 1080 336 1057 399 q 1097 223 1097 296 m 1021 211 q 1015 341 1021 311 q 982 415 1005 393 q 925 436 959 436 q 854 397 880 436 q 828 208 828 359 q 854 51 828 89 q 922 13 881 13 q 990 45 967 13 q 1021 211 1021 88 z "},"&":{"ha":1013,"x_min":37,"x_max":991,"o":"m 302 483 q 221 603 239 564 q 203 676 203 642 q 252 781 203 736 q 393 825 302 825 q 525 782 478 825 q 571 674 571 739 q 540 572 571 613 q 437 500 509 532 q 513 408 460 467 q 539 376 530 388 l 655 232 q 740 350 713 297 q 768 432 768 404 q 755 466 768 452 q 712 488 743 480 q 709 498 709 495 l 711 505 l 789 512 q 856 517 812 515 q 977 524 899 518 l 978 516 q 975 505 978 512 q 894 458 928 484 q 792 352 861 432 q 675 205 724 273 q 797 79 762 102 q 871 56 831 56 q 948 82 916 56 q 979 99 970 99 q 991 96 983 99 q 963 22 976 33 q 850 -20 911 -20 q 779 -8 812 -20 q 711 28 746 3 q 642 90 690 43 q 602 128 612 120 q 522 54 548 74 q 419 0 475 20 q 293 -20 364 -20 q 148 17 205 -20 q 63 112 90 54 q 37 223 37 170 q 52 301 37 264 q 92 366 67 339 q 157 421 116 393 q 227 458 172 431 q 302 483 262 475 m 412 526 q 471 581 450 542 q 493 663 493 619 q 463 761 493 727 q 387 795 433 795 q 320 771 346 795 q 294 711 294 746 q 321 633 294 675 q 412 526 360 573 m 584 153 l 578 161 l 576 163 l 425 344 q 322 461 397 378 q 194 370 237 429 q 150 245 150 311 q 161 194 150 227 q 201 129 172 161 q 275 80 231 98 q 378 62 320 62 q 498 89 444 62 q 584 153 552 115 z "},"'":{"ha":246,"x_min":55,"x_max":191,"o":"m 107 545 l 71 745 q 55 858 55 829 q 73 921 55 901 q 121 941 90 941 q 171 921 151 941 q 191 869 191 901 q 174 745 191 842 l 137 545 l 107 545 z "},"(":{"ha":405,"x_min":106,"x_max":430,"o":"m 412 888 q 430 852 420 869 q 393 817 422 844 q 324 741 348 775 q 233 590 262 652 q 187 447 204 528 q 170 256 170 366 q 184 110 170 180 q 234 -40 198 39 q 328 -203 269 -119 q 393 -275 354 -241 q 416 -298 399 -281 l 426 -308 l 412 -340 q 308 -252 353 -306 q 188 -74 231 -161 q 130 96 144 13 q 106 278 106 222 q 130 469 106 370 q 210 668 154 568 q 318 813 247 735 q 412 888 363 862 z "},")":{"ha":405,"x_min":-30,"x_max":297,"o":"m -30 -304 q 5 -271 -9 -283 q 82 -185 52 -231 q 169 -42 146 -92 q 217 107 201 26 q 234 277 234 188 q 216 459 234 382 q 156 622 197 537 q 69 765 114 706 q -18 856 61 777 l -5 889 q 97 803 50 857 q 214 629 168 721 q 275 454 260 536 q 297 264 297 326 q 275 86 297 185 q 195 -117 252 -12 q 71 -278 151 -197 q -12 -339 36 -313 q -30 -304 -19 -322 z "},"*":{"ha":593,"x_min":40,"x_max":546,"o":"m 40 492 q 243 599 71 515 l 251 605 q 211 629 237 614 q 151 664 207 631 q 46 721 140 671 q 71 768 58 747 q 269 639 233 659 q 270 663 270 659 l 269 736 l 271 803 q 267 877 271 838 q 319 877 295 878 l 319 863 q 315 781 319 849 l 311 681 q 309 664 309 669 q 312 638 309 655 q 336 654 326 646 q 520 764 397 699 q 546 719 533 743 q 410 648 534 711 q 332 607 338 611 q 375 583 353 594 q 414 564 408 568 l 484 526 q 517 509 511 513 q 545 491 527 503 q 517 447 534 471 q 460 482 510 451 q 397 523 410 513 q 312 574 345 560 l 311 555 q 316 378 311 418 q 319 334 319 355 l 300 334 q 267 338 289 334 q 267 361 267 351 l 267 380 l 270 538 l 271 568 q 188 518 244 555 q 64 448 132 481 l 40 492 z "},"+":{"ha":926,"x_min":98,"x_max":827,"o":"m 98 460 l 432 460 l 432 795 l 492 795 l 492 460 l 827 460 l 827 400 l 492 400 l 492 68 l 432 68 l 432 400 l 98 400 l 98 460 z "},",":{"ha":304,"x_min":57,"x_max":263,"o":"m 57 -241 l 58 -220 q 74 -213 66 -216 q 169 -143 145 -179 q 193 -78 193 -106 q 180 -45 193 -59 q 133 -23 166 -31 q 90 -12 100 -16 q 73 1 83 -9 q 66 28 66 16 q 79 72 66 60 q 136 96 106 96 q 225 56 187 96 q 263 -43 263 16 q 236 -133 263 -85 q 154 -211 209 -181 q 57 -241 99 -241 z "},"-":{"ha":434,"x_min":52,"x_max":382,"o":"m 56 300 l 65 300 l 118 299 l 209 302 l 275 300 l 310 302 q 381 296 358 302 l 382 242 q 315 239 340 239 q 267 241 291 239 q 227 243 234 243 l 199 242 q 170 241 186 241 q 53 249 85 241 l 52 269 q 56 300 52 280 z "},".":{"ha":304,"x_min":81,"x_max":222,"o":"m 81 55 q 103 107 81 85 q 155 130 125 130 q 203 109 183 130 q 222 56 222 87 q 202 2 222 24 q 152 -20 181 -20 q 102 2 123 -20 q 81 55 81 24 z "},"/":{"ha":694,"x_min":79,"x_max":616,"o":"m 556 967 l 616 967 l 138 -188 l 79 -188 l 556 967 z "},":":{"ha":304,"x_min":79,"x_max":224,"o":"m 79 469 q 101 517 79 495 q 150 538 122 538 q 202 516 180 538 q 224 465 224 494 q 199 404 224 431 q 149 385 182 385 q 99 407 119 385 q 79 469 79 429 m 83 56 q 105 109 83 86 q 156 131 127 131 q 204 110 184 131 q 224 57 224 89 q 203 3 224 25 q 153 -18 182 -18 q 101 7 119 -18 q 83 56 83 33 z "},";":{"ha":304,"x_min":59,"x_max":262,"o":"m 159 544 q 211 523 190 544 q 231 474 231 503 q 211 425 231 446 q 161 405 190 405 q 112 426 132 405 q 91 475 91 446 q 111 524 91 503 q 159 544 131 544 m 59 -191 q 166 -110 138 -145 q 195 -37 195 -75 q 185 -10 195 -21 q 164 1 175 1 l 122 -1 q 92 14 105 -1 q 78 54 78 29 q 98 98 78 81 q 159 123 127 123 q 234 93 205 123 q 262 2 262 63 q 240 -93 262 -54 q 170 -168 217 -133 q 77 -218 143 -189 l 59 -191 z "},"<":{"ha":926,"x_min":100,"x_max":826,"o":"m 826 98 l 100 406 l 100 460 l 826 766 l 826 702 l 178 433 l 826 163 l 826 98 z "},"=":{"ha":926,"x_min":100,"x_max":827,"o":"m 100 619 l 827 619 l 827 559 l 100 559 l 100 619 m 100 305 l 827 305 l 827 245 l 100 245 l 100 305 z "},">":{"ha":926,"x_min":100,"x_max":826,"o":"m 100 766 l 826 458 l 826 404 l 100 98 l 100 163 l 747 431 l 100 701 l 100 766 z "},"?":{"ha":507,"x_min":60,"x_max":459,"o":"m 168 213 l 139 213 q 136 233 137 220 q 134 254 136 241 q 121 369 131 271 l 117 411 l 115 420 q 119 434 115 425 q 175 448 137 446 q 313 466 278 454 q 386 517 362 483 q 409 600 409 552 q 351 743 409 681 q 235 806 293 806 q 162 793 216 806 q 114 785 125 785 q 75 798 89 785 q 60 832 60 811 q 77 870 60 857 q 148 889 102 889 q 246 868 191 889 q 363 783 300 847 q 434 674 408 737 q 459 553 459 610 q 439 464 459 506 q 394 400 418 421 q 334 366 370 378 q 244 350 317 359 q 196 336 210 345 q 176 310 182 326 q 171 264 174 304 q 168 213 168 223 m 89 47 q 107 98 89 79 q 160 121 132 121 q 205 100 185 121 q 226 47 226 78 q 207 -2 226 16 q 154 -20 187 -20 q 110 0 130 -20 q 89 47 89 21 z "},"@":{"ha":1273,"x_min":66,"x_max":1245,"o":"m 955 650 l 876 379 q 822 185 831 224 q 812 121 812 146 q 827 85 812 100 q 863 70 842 70 q 982 119 913 70 q 1101 280 1052 169 q 1151 512 1151 391 q 1095 726 1151 628 q 937 877 1039 825 q 711 930 835 930 q 420 847 555 930 q 208 608 286 764 q 130 283 130 452 q 198 0 130 127 q 392 -193 267 -127 q 661 -258 517 -258 q 983 -163 839 -258 q 1206 117 1127 -67 l 1245 117 q 1023 -184 1184 -69 q 657 -300 863 -300 q 357 -223 496 -300 q 142 -7 219 -147 q 66 301 66 133 q 150 635 66 480 q 386 877 234 790 q 707 964 537 964 q 961 906 848 964 q 1133 737 1074 848 q 1192 500 1192 625 q 1136 254 1192 376 q 996 77 1081 132 q 817 21 910 21 q 740 45 766 21 q 713 113 713 70 q 726 214 713 152 q 571 61 632 101 q 458 20 510 20 q 373 63 410 20 q 336 178 336 106 q 400 399 336 277 q 570 597 464 522 q 709 654 648 654 q 785 630 755 654 q 826 560 815 607 l 848 635 l 955 650 m 718 622 q 612 567 665 622 q 483 356 536 488 q 443 198 443 258 q 467 129 443 156 q 521 102 491 102 q 603 132 560 102 q 694 223 646 161 q 762 345 741 285 q 802 525 802 455 q 777 595 802 569 q 718 622 752 622 z "},"A":{"ha":941,"x_min":-10,"x_max":930,"o":"m -7 22 q 9 27 2 27 l 25 27 q 41 28 30 27 q 103 37 94 33 q 144 82 127 50 q 223 278 179 151 q 250 351 244 338 q 282 437 267 392 l 346 615 q 418 808 361 657 q 452 909 432 846 l 472 911 l 496 910 q 547 786 525 852 q 587 681 559 751 l 690 402 l 745 251 q 802 93 789 122 q 827 54 816 63 q 853 45 831 51 q 884 37 875 40 q 927 22 915 28 q 930 11 930 15 q 928 1 930 7 q 897 0 906 0 q 775 2 863 0 l 707 4 l 625 3 q 609 4 617 3 q 594 5 600 5 l 579 5 q 566 9 572 5 q 569 27 566 18 q 584 32 577 31 l 655 37 q 697 44 683 38 q 701 62 701 56 q 684 125 701 75 q 662 190 671 159 q 590 391 653 220 q 541 395 562 395 l 396 394 l 353 395 q 302 391 330 395 q 291 362 294 371 l 231 176 q 193 58 193 69 q 199 38 193 52 q 237 31 214 34 l 330 22 q 337 12 337 16 q 335 1 337 8 q 288 1 304 1 q 162 4 234 1 q 115 5 129 5 q 65 4 100 5 q 32 3 42 3 q -10 5 16 3 l -10 9 q -7 22 -10 14 m 316 429 q 481 425 389 425 q 574 428 534 425 q 559 477 568 454 q 510 608 515 595 l 448 764 l 441 777 q 412 707 437 768 q 349 542 368 601 q 331 489 340 515 q 319 453 321 463 q 312 431 317 442 l 316 429 z "},"B":{"ha":854,"x_min":18,"x_max":789,"o":"m 18 840 l 18 861 q 37 865 30 864 l 100 868 q 278 879 180 875 q 402 880 317 880 q 571 863 517 880 q 687 788 649 838 q 726 675 726 737 q 583 507 726 575 l 579 501 q 699 446 652 481 q 771 360 746 411 q 789 262 789 323 q 697 82 789 161 q 444 3 606 3 l 343 3 l 241 0 q 82 -1 105 -1 q 35 1 58 -1 l 35 8 q 39 20 35 16 q 54 26 43 24 q 150 51 139 44 q 165 71 161 57 q 174 211 174 98 q 173 237 174 221 q 172 289 172 282 l 172 359 q 168 672 172 538 l 167 808 l 166 825 q 64 836 109 833 q 18 840 36 836 m 288 497 q 359 490 321 490 q 557 555 505 490 q 610 683 610 619 q 601 741 610 711 q 568 794 591 770 q 510 829 545 818 q 389 849 451 849 q 282 836 332 849 q 281 815 281 822 q 283 777 281 808 q 283 736 283 756 l 281 654 l 282 605 l 287 509 l 288 497 m 447 36 q 559 64 514 41 q 609 103 581 75 q 654 171 638 132 q 670 247 670 210 q 659 315 670 275 q 621 387 648 356 q 541 438 594 418 q 425 458 488 458 q 286 453 301 458 q 286 430 286 437 l 286 405 l 286 354 l 286 296 q 293 108 288 137 q 330 58 298 79 q 447 36 361 37 z "},"C":{"ha":882,"x_min":60,"x_max":835,"o":"m 804 830 q 812 723 812 778 q 811 694 812 712 q 797 692 802 692 q 785 693 793 692 q 692 815 757 772 q 533 858 628 858 q 448 846 483 858 q 341 788 387 825 q 263 700 295 751 q 213 576 231 649 q 194 427 194 503 q 238 188 194 282 q 359 53 282 93 q 513 12 435 12 l 545 13 q 619 26 600 20 q 701 59 669 40 q 764 114 733 79 q 817 196 795 149 l 825 199 q 835 195 828 199 q 833 174 834 178 q 792 17 805 59 q 765 9 781 14 q 553 -18 686 -18 q 392 -4 446 -18 q 276 42 339 11 q 166 123 214 73 q 90 252 119 174 q 60 421 60 330 q 83 573 60 508 q 155 704 106 637 q 268 814 203 770 q 414 877 334 859 q 573 889 470 889 q 715 869 648 889 q 804 830 781 849 z "},"D":{"ha":1071,"x_min":15,"x_max":1003,"o":"m 16 14 q 75 28 41 24 q 146 51 123 33 q 165 241 165 88 l 165 348 l 166 412 l 165 460 l 166 547 l 164 768 q 153 817 164 805 q 71 848 138 833 q 37 859 43 854 q 29 878 31 864 q 51 882 45 882 l 99 882 l 124 882 q 180 877 149 882 q 308 873 242 873 q 362 875 327 873 q 496 880 456 880 q 651 864 578 880 q 802 804 724 848 q 900 716 850 776 q 977 585 951 656 q 1003 425 1003 514 q 974 268 1003 346 q 894 133 945 190 q 789 46 842 75 q 628 -3 736 18 q 467 -12 583 -12 q 342 -7 391 -12 q 302 -4 323 -4 q 294 -5 298 -4 l 18 -9 l 16 -4 q 15 3 15 -1 l 16 14 m 361 40 q 466 22 413 22 q 600 44 534 22 q 716 104 666 65 q 800 192 767 143 q 846 281 832 241 q 865 431 865 338 q 827 610 865 519 q 737 730 802 673 q 584 815 672 788 q 393 842 496 842 q 289 826 323 842 q 281 817 285 822 q 277 785 277 800 q 277 764 277 777 q 279 638 279 686 l 279 484 q 291 107 279 145 q 361 40 304 68 z "},"E":{"ha":911,"x_min":33,"x_max":879,"o":"m 34 11 q 45 18 41 17 q 85 24 57 22 q 166 36 151 28 q 176 74 176 50 l 175 121 l 176 294 l 174 375 l 175 545 l 172 739 q 163 817 171 808 q 90 831 151 829 q 45 836 64 832 q 36 848 36 840 q 39 861 36 853 q 50 864 45 864 q 73 863 60 864 q 156 860 113 860 l 206 861 l 326 859 q 465 861 415 859 q 533 863 515 863 q 610 860 549 863 l 707 861 l 718 859 l 774 861 l 781 857 q 786 846 785 852 q 783 817 786 836 q 780 792 780 797 q 785 673 780 722 q 781 667 784 669 q 767 669 773 667 q 747 715 760 682 q 709 790 734 747 q 683 824 692 819 q 644 829 673 829 q 582 831 637 829 q 553 831 567 831 l 359 827 l 342 827 q 298 818 305 827 q 286 722 286 802 q 290 559 286 714 l 290 465 q 306 463 297 463 l 317 463 q 351 463 329 463 q 399 461 387 461 q 413 462 407 461 q 602 465 486 465 q 644 479 637 471 q 659 543 654 491 q 682 601 664 594 q 698 597 690 601 q 699 587 699 592 q 698 572 699 583 q 694 414 694 547 q 698 336 694 379 q 702 289 702 292 q 700 273 702 283 q 691 270 694 270 l 686 270 q 665 329 675 289 q 628 415 648 397 q 566 432 609 432 q 531 431 556 432 q 456 430 506 430 l 412 430 q 289 426 318 430 l 288 404 l 289 279 l 288 200 l 289 123 q 298 43 290 54 q 348 28 309 28 l 389 29 q 432 28 395 29 q 523 27 469 27 q 697 38 654 27 q 769 78 741 50 q 840 201 797 106 q 865 229 852 229 q 879 223 871 229 q 857 135 859 156 q 848 38 849 87 q 837 1 848 16 l 822 1 l 631 -1 l 546 -1 l 342 -3 l 260 -3 q 231 -4 244 -3 q 51 -9 109 -9 q 37 -6 41 -9 q 33 4 33 -3 l 34 11 z "},"F":{"ha":781,"x_min":40,"x_max":751,"o":"m 40 -10 l 41 7 q 91 20 56 14 q 139 32 125 26 q 161 47 152 37 q 167 155 167 77 l 157 682 l 159 770 q 150 807 159 797 q 98 826 140 817 q 50 840 57 834 q 42 851 42 845 q 44 860 42 854 q 62 865 53 865 q 104 864 73 865 l 123 864 q 176 865 132 864 l 271 865 l 465 869 l 671 877 l 690 877 l 719 878 q 741 871 731 878 q 745 855 745 860 l 745 828 l 751 707 q 749 688 751 699 q 730 683 739 683 q 720 687 724 683 q 713 715 715 694 q 692 791 711 745 q 663 821 684 812 q 526 836 623 836 q 441 834 481 836 q 393 831 402 831 l 340 832 q 287 823 308 832 q 273 793 273 817 l 273 783 q 275 707 275 749 l 273 522 q 277 471 273 495 l 296 469 l 334 471 l 464 471 q 572 482 542 471 q 603 505 593 490 q 620 558 606 509 l 629 614 q 641 618 637 618 q 652 615 644 618 q 655 568 654 600 l 663 318 q 646 313 652 313 l 638 315 q 604 421 627 382 q 586 437 596 435 q 425 441 568 441 q 363 440 380 441 q 314 438 322 438 l 307 438 q 278 433 287 438 q 275 421 275 425 l 275 374 q 276 307 275 366 l 275 82 q 280 58 275 73 q 332 43 294 47 q 403 25 370 39 q 422 5 422 16 q 419 -3 422 1 q 410 -9 416 -7 q 256 2 354 2 q 145 -7 203 2 q 54 -14 105 -14 l 40 -10 z "},"G":{"ha":1071,"x_min":64,"x_max":1053,"o":"m 905 823 l 913 720 q 917 656 917 673 l 898 653 q 785 808 852 756 q 620 859 718 859 q 434 830 500 859 q 269 686 338 789 q 201 439 201 584 q 226 290 201 356 q 297 166 251 223 q 405 66 342 109 q 502 24 446 39 q 597 17 534 17 q 687 28 637 17 q 762 59 736 40 q 796 103 787 79 q 805 198 805 127 q 789 335 805 315 q 691 360 774 354 l 664 362 l 646 361 q 635 363 642 362 l 625 380 q 629 389 625 384 q 783 395 665 395 q 869 393 809 395 l 939 391 l 1002 391 q 1046 390 1020 391 q 1052 388 1050 389 q 1053 382 1053 386 q 1050 363 1053 374 q 1006 357 1021 357 l 962 357 q 926 342 939 357 q 919 291 919 334 l 920 202 q 912 85 920 111 q 895 59 908 71 q 841 31 882 47 q 734 -1 782 7 q 561 -17 644 -17 q 341 17 427 -17 q 193 113 255 52 q 104 236 131 174 q 64 422 64 328 q 127 655 64 541 q 330 840 190 768 q 597 890 428 890 q 788 869 713 890 q 905 823 862 849 z "},"H":{"ha":1056,"x_min":26,"x_max":1020,"o":"m 26 -10 l 27 5 q 81 21 50 18 q 142 34 129 27 q 160 52 155 40 q 170 97 170 74 l 168 149 l 169 196 l 168 252 q 170 338 168 286 q 172 393 172 390 l 172 578 q 174 674 172 623 q 176 745 176 725 q 173 812 176 803 q 163 826 170 822 q 114 833 155 830 q 70 838 82 836 q 66 850 66 846 q 67 863 66 856 q 92 865 83 865 l 156 864 q 300 869 224 864 q 412 874 337 872 q 414 863 414 868 q 411 852 414 856 q 400 847 408 848 q 295 825 311 840 q 279 751 279 810 q 283 524 279 641 l 286 460 q 374 454 289 458 q 401 452 397 452 l 500 454 l 566 452 l 739 457 q 777 460 770 458 q 781 688 781 578 q 777 814 781 795 q 767 829 774 825 q 696 840 763 831 q 675 844 685 842 q 671 867 671 854 q 701 870 694 870 l 745 867 q 869 864 807 864 q 1002 871 909 864 q 999 846 1002 857 q 937 833 973 836 q 899 826 914 832 q 886 787 886 817 q 886 772 886 781 q 887 741 887 748 l 887 663 l 888 614 l 886 551 l 887 433 l 886 321 q 888 218 886 288 l 887 126 q 895 60 887 80 q 909 47 899 51 l 964 35 q 1012 18 1004 24 q 1020 3 1020 12 l 1018 -5 l 1015 -6 q 1006 -5 1011 -6 q 850 9 932 9 q 760 7 787 9 q 648 -8 733 5 q 647 5 647 1 q 648 18 647 9 q 715 35 669 30 q 768 56 749 38 q 781 92 781 68 l 781 190 q 783 238 783 234 q 781 406 783 296 q 773 418 779 416 q 593 415 755 424 q 544 413 560 413 q 476 415 528 413 q 380 416 424 416 q 340 416 356 416 q 305 415 309 415 q 284 409 290 415 q 278 387 278 403 l 279 339 q 275 211 279 328 q 275 172 275 187 q 281 48 275 79 q 294 28 285 34 q 347 14 300 24 q 394 1 378 7 l 398 -5 q 395 -11 398 -9 q 384 -14 391 -14 q 371 -14 378 -14 q 342 -13 363 -14 q 256 -8 307 -12 q 197 -5 222 -5 q 58 -9 153 -5 q 26 -10 39 -10 z "},"I":{"ha":492,"x_min":29,"x_max":450,"o":"m 29 22 q 60 29 44 28 q 178 54 163 36 q 193 228 193 72 l 193 299 l 193 374 l 190 456 l 191 504 l 191 557 l 191 619 l 189 647 l 191 682 q 191 711 191 694 q 187 801 191 753 q 180 819 184 810 q 99 837 155 832 q 35 846 43 841 q 29 867 30 850 l 86 867 l 266 863 q 450 867 335 863 q 449 847 450 857 q 404 840 435 844 q 325 825 339 832 q 312 814 316 822 q 304 768 305 802 l 300 681 l 303 379 l 303 260 q 302 183 302 203 q 306 86 302 107 q 318 56 309 65 q 349 41 328 47 q 397 33 380 34 q 446 22 435 32 q 448 7 448 14 l 448 2 q 357 0 386 0 q 296 2 340 0 l 203 1 l 43 1 l 31 1 l 29 22 z "},"J":{"ha":463,"x_min":-117,"x_max":386,"o":"m -93 -247 q -70 -238 -80 -238 q 1 -274 -39 -238 q 12 -283 8 -280 l 15 -286 q 49 -300 31 -300 q 100 -282 75 -300 q 142 -233 126 -264 q 173 -136 163 -190 q 182 -4 182 -81 l 182 102 l 183 174 q 178 402 183 248 l 174 656 l 174 787 q 168 817 175 804 q 154 829 164 824 q 123 836 143 835 l 73 839 q 41 844 50 839 q 38 859 38 854 l 39 867 q 75 866 54 867 q 157 864 117 864 q 208 865 176 864 q 241 866 231 866 l 340 866 q 386 864 361 866 q 385 840 386 848 q 311 831 326 837 q 288 817 295 826 q 283 793 283 810 l 280 722 l 281 705 q 282 659 282 693 l 282 631 q 283 589 282 608 q 284 557 284 562 q 283 525 284 551 q 282 512 282 517 l 290 323 l 289 202 l 289 123 q 263 -66 289 56 q 195 -226 244 -154 q 97 -325 145 -298 q -31 -351 49 -351 q -100 -331 -74 -351 q -117 -293 -117 -317 q -93 -247 -117 -264 z "},"K":{"ha":1027,"x_min":39,"x_max":1055,"o":"m 301 435 q 328 454 309 442 q 459 546 366 477 l 645 698 q 753 798 722 762 q 762 815 759 806 q 734 828 750 824 q 685 834 719 832 q 645 841 651 836 q 638 852 638 845 q 643 863 638 859 q 668 869 652 869 q 713 866 694 869 q 799 862 732 862 q 823 863 815 862 l 928 868 q 954 869 945 869 q 978 868 962 869 q 975 842 978 852 q 867 819 902 833 q 787 774 848 811 q 705 715 742 747 l 530 568 l 424 482 q 432 473 427 477 q 452 454 436 469 q 645 291 524 387 q 834 129 766 194 q 1023 22 935 33 q 1055 10 1045 20 l 1055 3 l 1054 -7 q 1023 -8 1031 -8 q 928 -3 991 -8 q 867 -1 891 -1 q 644 -9 769 -1 q 642 5 642 1 l 642 11 q 677 26 651 19 q 755 37 714 35 q 774 38 764 37 q 751 63 767 49 q 733 81 749 66 q 678 131 718 96 l 597 195 l 473 300 q 301 435 412 353 m 39 9 q 50 16 43 16 q 157 41 118 22 q 171 81 171 53 l 170 148 l 170 274 l 172 329 l 168 517 l 169 644 q 165 787 169 751 q 156 815 163 801 q 136 824 144 823 q 60 831 106 829 q 51 848 51 838 q 54 858 51 851 q 188 860 92 860 q 258 861 233 860 q 347 867 295 863 q 399 865 369 865 q 407 855 407 861 q 406 846 407 851 q 375 840 397 842 q 295 814 316 833 q 281 762 281 800 l 281 749 l 280 494 l 278 319 l 283 144 q 287 53 283 62 q 298 40 290 45 q 370 21 321 26 q 394 16 382 20 q 398 1 398 7 q 390 -12 398 -5 l 368 -12 q 303 -7 355 -12 q 227 -3 252 -3 q 168 -7 205 -3 q 66 -12 131 -12 q 41 -12 57 -12 l 39 9 z "},"L":{"ha":795,"x_min":7,"x_max":798,"o":"m 7 -4 q 13 14 8 6 q 116 33 66 28 q 159 48 149 36 q 167 113 165 57 l 172 292 l 171 414 l 172 572 l 172 614 q 170 793 172 758 q 165 812 170 800 q 135 823 147 820 q 29 842 123 825 q 28 853 28 850 q 29 864 28 857 q 71 863 42 864 l 174 859 l 234 858 l 252 859 q 271 857 255 859 q 317 858 311 857 l 372 862 q 449 860 427 862 q 444 833 448 848 q 374 830 437 832 q 301 822 311 827 q 286 768 286 813 q 284 724 286 757 l 284 683 l 285 557 l 285 515 l 286 290 l 284 99 l 285 57 q 292 32 285 37 q 391 31 309 31 l 437 31 l 555 35 q 621 44 601 36 q 686 90 640 52 q 730 140 714 114 q 741 156 733 145 q 776 227 754 174 l 798 227 q 789 180 794 202 q 762 21 770 85 q 760 -4 761 7 l 506 3 q 118 -3 179 3 q 78 -4 99 -4 l 7 -4 z "},"M":{"ha":1158,"x_min":9,"x_max":1147,"o":"m 9 16 q 85 36 31 30 q 136 43 128 38 q 144 54 142 47 q 159 190 155 79 q 179 574 165 334 q 190 803 190 758 l 190 821 q 35 842 141 831 q 28 858 28 852 q 33 870 28 861 q 51 874 45 874 q 75 871 56 874 q 166 867 108 867 q 231 869 185 867 q 268 871 264 871 q 293 868 279 871 q 303 855 300 861 l 332 791 l 524 367 l 603 189 q 749 520 697 375 q 758 540 753 531 q 769 566 764 551 q 813 674 774 580 q 838 739 829 712 q 884 863 877 848 q 906 868 897 868 q 934 867 917 868 q 1057 865 972 865 q 1144 866 1110 865 q 1145 855 1145 859 q 1143 842 1145 850 q 1091 829 1122 831 q 1015 820 1031 826 q 994 804 998 814 q 986 742 989 795 l 987 711 l 986 678 q 991 336 986 576 l 991 203 l 991 118 q 996 59 991 68 q 1023 41 1001 50 q 1143 16 1060 29 q 1147 7 1147 13 q 1147 -6 1147 1 l 1116 -6 q 1029 -4 1076 -6 q 979 -1 982 -1 q 794 -4 840 -1 q 759 -6 766 -6 q 749 -3 754 -6 l 749 5 q 751 18 749 12 q 812 31 773 28 q 874 56 854 43 q 880 161 880 81 l 878 298 q 881 381 878 320 q 883 580 883 442 q 878 745 883 689 q 832 642 866 722 l 822 616 l 821 612 l 720 375 l 684 283 l 637 172 q 585 37 607 96 q 570 -6 576 9 l 554 -5 q 371 454 477 218 q 222 764 265 689 q 210 595 217 735 q 201 218 201 424 q 211 73 201 154 q 231 39 214 50 q 318 26 248 28 q 370 22 345 26 q 374 7 374 12 q 371 -4 374 4 l 160 3 q 88 0 137 3 q 10 -3 61 -2 l 9 16 z "},"N":{"ha":1071,"x_min":18,"x_max":1017,"o":"m 18 829 l 18 862 q 172 867 123 862 q 198 869 191 869 q 216 869 204 869 q 269 814 245 845 q 281 801 275 808 l 425 643 l 445 618 q 524 532 488 568 q 663 382 559 496 l 825 202 q 886 136 848 176 l 886 147 q 882 247 882 241 l 885 288 l 884 351 l 884 380 q 879 552 884 408 q 873 626 878 572 q 869 722 869 681 q 860 809 869 797 q 802 827 854 818 q 764 831 790 828 q 728 835 734 833 q 718 846 723 837 q 724 867 719 857 q 760 872 742 872 q 807 867 779 872 q 857 863 835 863 q 954 867 888 863 q 1006 869 991 869 l 1017 869 l 1016 848 q 986 843 1005 844 q 951 837 967 842 q 922 824 926 829 q 905 788 905 806 l 913 574 l 918 475 l 918 447 l 922 311 q 926 68 926 171 q 923 -29 926 45 l 891 -32 q 728 139 867 -5 q 684 186 695 172 l 625 253 q 581 300 591 290 q 566 315 571 311 q 374 526 492 399 q 281 631 342 559 q 232 687 242 677 q 204 710 222 697 l 202 687 q 209 322 202 555 l 214 98 q 217 43 214 69 l 241 37 q 368 19 305 31 q 376 13 372 15 l 375 -13 q 357 -16 364 -16 q 339 -15 350 -16 q 176 -9 272 -9 q 56 -13 108 -9 l 47 -14 q 29 -12 41 -14 l 28 8 l 46 16 l 78 21 q 140 35 121 27 q 161 49 153 39 q 169 186 169 96 q 167 340 169 228 l 167 432 l 165 625 q 157 777 164 753 q 140 798 153 789 q 72 821 114 817 q 18 829 31 826 z "},"O":{"ha":1085,"x_min":64,"x_max":1019,"o":"m 64 433 q 80 556 64 503 q 136 673 97 610 q 231 779 176 736 q 385 854 287 821 q 560 876 454 876 q 700 857 631 876 q 823 804 768 838 q 935 700 879 770 q 993 595 973 651 q 1019 442 1019 521 q 1001 294 1019 353 q 943 177 984 235 q 834 74 911 132 q 706 11 783 35 q 541 -14 629 -14 q 380 7 450 -14 q 262 59 309 28 q 165 148 215 89 q 90 278 115 207 q 64 433 64 349 m 534 12 q 653 27 591 12 q 762 80 714 43 q 836 164 809 117 q 879 286 863 212 q 895 433 895 359 q 868 616 895 526 q 800 738 847 684 q 685 822 752 792 q 542 851 618 851 q 421 831 480 851 q 324 779 362 810 q 254 689 286 747 q 204 562 221 631 q 187 438 187 492 q 204 311 187 382 q 251 187 221 239 q 323 95 280 135 q 420 33 366 54 q 534 12 473 12 z "},"P":{"ha":781,"x_min":26,"x_max":745,"o":"m 30 866 q 45 868 42 868 q 121 865 68 868 q 159 865 149 865 q 222 867 174 865 l 338 874 q 444 878 383 878 q 613 848 550 878 q 710 753 676 818 q 745 625 745 689 q 670 441 745 519 q 469 364 595 364 q 410 371 434 364 q 356 399 387 378 q 340 417 343 408 q 348 424 343 422 q 368 420 357 424 q 426 412 391 412 q 527 438 479 412 q 600 513 575 465 q 624 616 624 562 q 598 719 624 669 q 530 799 572 769 q 457 827 507 816 q 381 839 408 839 q 281 827 297 839 l 281 817 l 283 741 l 283 727 q 281 671 281 709 q 286 498 281 532 l 286 460 l 294 151 q 293 125 294 144 q 291 94 291 107 q 296 44 291 61 q 391 22 313 39 q 431 12 428 13 q 441 3 437 9 q 434 -11 438 -7 q 416 -14 429 -14 q 378 -10 408 -14 q 287 -4 320 -4 l 168 -9 l 96 -7 q 57 -8 90 -7 l 56 9 l 144 26 q 171 39 166 33 q 178 76 178 48 q 178 102 178 82 q 179 142 179 117 q 172 483 179 222 q 170 731 170 605 l 170 743 q 155 804 170 791 q 29 841 130 827 q 26 853 26 848 q 30 866 26 859 z "},"Q":{"ha":1071,"x_min":66,"x_max":1039,"o":"m 323 840 q 555 892 429 892 q 774 836 677 892 q 930 688 871 780 q 1002 439 1002 573 q 964 259 1002 352 q 868 107 927 167 q 748 19 810 48 q 650 -14 686 -10 q 614 -24 626 -18 q 710 -110 642 -57 q 843 -192 777 -163 q 865 -202 849 -194 q 934 -233 901 -220 l 949 -239 l 956 -240 l 973 -248 q 1038 -272 1008 -262 q 1039 -281 1039 -278 l 1038 -290 l 1038 -302 q 1012 -302 1017 -302 q 867 -279 949 -302 q 716 -217 785 -256 q 566 -114 647 -178 q 476 -28 512 -70 q 262 54 357 -11 q 116 216 167 119 q 66 413 66 312 q 128 652 66 532 q 323 840 191 772 m 456 7 q 526 0 493 0 q 660 23 600 0 q 754 83 719 46 q 833 218 800 131 q 867 437 867 306 q 836 627 867 541 q 768 745 816 686 q 670 833 721 805 q 541 861 618 861 q 369 814 449 861 q 235 649 289 766 q 201 441 201 574 q 239 230 201 333 q 346 62 277 126 q 456 7 386 25 z "},"R":{"ha":868,"x_min":28,"x_max":890,"o":"m 38 20 q 150 37 137 32 q 166 57 159 40 l 166 64 q 172 187 166 81 q 173 245 173 217 l 171 326 l 172 418 l 172 588 l 172 710 q 160 804 173 787 q 96 828 148 821 q 38 839 43 836 q 33 850 33 842 q 35 862 33 854 q 66 869 41 868 q 84 870 69 869 q 113 872 100 872 l 169 872 l 347 874 q 559 852 498 874 q 656 776 620 829 q 692 657 692 723 q 561 467 692 532 q 526 446 538 455 q 590 329 549 397 l 676 181 q 747 79 728 100 q 795 45 767 58 q 890 19 823 31 q 890 8 890 12 q 890 -2 890 4 q 672 -3 797 -3 q 648 -2 663 -3 q 534 201 600 90 l 434 384 q 400 419 414 412 q 366 427 387 427 l 308 426 l 289 427 q 287 338 287 405 l 287 106 q 292 70 286 93 q 311 49 298 57 q 387 26 324 41 l 415 19 q 420 1 420 12 q 395 -3 402 -3 q 309 -1 334 -3 q 288 -1 296 -1 l 195 -2 l 105 -1 q 43 -3 99 -1 l 30 -1 l 28 6 q 38 20 28 12 m 290 464 q 317 463 309 463 q 430 475 366 463 q 503 504 475 484 q 549 563 530 524 q 568 644 568 602 q 538 742 568 690 q 463 808 516 781 q 335 834 410 834 q 288 832 317 834 q 285 778 285 797 l 288 651 l 288 599 q 290 464 288 546 z "},"S":{"ha":665,"x_min":52,"x_max":607,"o":"m 539 837 q 545 785 545 792 l 542 725 q 538 675 541 686 q 528 673 532 673 l 522 674 q 449 812 500 769 q 322 856 397 856 q 195 812 245 856 q 146 711 146 769 q 180 631 146 667 q 357 521 215 594 q 513 429 466 465 q 583 347 559 393 q 607 242 607 300 q 569 106 607 170 q 468 10 532 42 q 299 -22 404 -22 q 123 7 208 -22 q 63 35 74 24 q 52 58 52 46 q 54 77 52 66 q 64 209 63 157 q 68 246 65 241 q 79 251 71 251 q 89 247 85 251 q 94 230 92 242 q 171 81 101 146 q 328 15 240 15 q 426 37 381 15 q 497 102 471 60 q 522 184 522 144 q 484 285 522 239 q 328 391 445 330 q 176 479 212 452 q 91 576 119 525 q 70 667 70 615 q 144 827 70 762 q 345 892 219 892 q 464 877 414 892 q 539 837 500 865 z "},"T":{"ha":854,"x_min":-3,"x_max":836,"o":"m 24 766 l 52 869 q 60 895 55 889 q 71 901 64 901 q 98 871 83 901 q 117 845 110 850 q 139 837 125 839 l 146 838 l 175 835 l 335 833 l 524 833 l 580 833 l 685 836 q 702 834 692 836 q 759 830 748 830 q 775 837 769 830 q 798 883 777 840 q 819 903 806 903 q 833 900 825 903 q 836 876 836 886 l 836 848 l 836 791 q 833 655 836 770 q 830 642 833 648 q 817 637 823 637 q 808 642 812 637 q 798 673 804 647 q 764 761 784 734 q 725 785 750 778 q 603 793 699 793 q 488 790 526 793 q 487 741 487 763 l 492 319 q 490 224 492 294 l 490 134 l 490 84 q 498 50 490 60 q 542 31 506 40 q 625 12 604 15 q 646 6 638 10 l 646 -14 l 550 -12 q 431 -8 471 -11 l 332 -13 l 259 -17 q 222 -16 229 -17 l 212 -12 q 218 8 214 4 q 243 16 223 13 q 311 30 272 20 q 361 52 349 41 q 371 72 368 58 q 377 189 377 102 l 377 304 l 374 556 l 372 610 l 371 791 q 262 796 328 796 q 143 784 164 796 q 44 673 110 765 q 6 638 22 638 l 0 640 q -3 647 -3 644 q 8 696 -3 655 q 24 766 22 748 z "},"U":{"ha":984,"x_min":25,"x_max":939,"o":"m 396 871 q 399 853 399 859 q 397 841 399 849 q 369 836 380 836 q 353 837 364 836 q 335 838 342 838 q 286 826 304 838 q 271 806 273 819 l 264 729 l 266 393 q 278 164 267 209 q 317 90 290 119 q 398 41 344 60 q 505 22 453 22 q 681 56 620 22 q 769 148 743 89 q 796 326 796 206 q 794 380 796 329 l 794 399 q 795 442 794 410 q 797 479 797 473 l 787 673 q 775 789 782 772 q 757 816 769 807 q 656 850 730 835 q 652 869 653 859 q 705 872 679 872 q 762 870 732 872 q 810 867 806 867 l 918 870 l 939 869 l 938 845 q 838 820 854 834 q 822 766 822 805 q 825 674 822 745 l 829 534 l 829 478 l 831 408 q 823 227 831 275 q 792 120 812 159 q 734 49 772 81 q 633 -3 696 18 q 508 -23 570 -23 q 368 -9 411 -23 q 244 52 290 14 q 180 128 198 90 q 157 275 157 178 l 157 321 l 155 511 l 157 665 l 157 768 q 146 823 157 807 q 124 833 138 833 l 84 833 q 27 842 39 833 q 25 853 25 848 q 29 863 25 859 q 47 868 37 868 l 65 868 l 111 869 l 218 869 l 396 871 z "},"V":{"ha":941,"x_min":-12,"x_max":954,"o":"m -12 860 l -7 871 q 103 870 48 871 l 125 870 q 148 871 136 870 q 307 873 192 873 q 352 872 330 873 q 394 871 374 872 q 400 865 398 869 l 399 854 q 378 848 395 848 l 373 848 q 311 845 354 848 q 254 831 267 841 q 245 811 245 823 q 267 732 245 785 l 370 492 l 406 413 q 509 155 458 287 q 519 130 515 141 l 565 241 q 636 420 600 325 l 683 547 q 690 574 684 551 q 756 802 756 754 q 747 822 756 812 q 718 840 738 833 q 665 848 709 842 l 614 854 q 608 865 608 861 l 610 871 l 830 873 l 903 873 q 953 868 939 873 l 954 863 q 949 848 954 857 q 920 842 933 843 q 849 826 863 835 q 821 787 836 817 l 642 346 q 524 38 559 147 l 504 -21 q 489 -26 495 -26 q 473 -25 481 -26 q 341 298 392 184 l 134 768 q 100 819 111 810 q 22 843 89 827 q -5 850 -2 848 q -12 860 -9 853 z "},"W":{"ha":1230,"x_min":-14,"x_max":1238,"o":"m -13 841 l -14 852 q 40 864 -4 864 l 103 863 l 140 863 l 156 863 q 263 861 245 863 q 264 848 264 852 q 262 831 264 842 l 197 828 q 184 825 192 827 q 181 814 181 818 q 185 802 181 810 q 195 777 191 790 l 238 658 l 340 403 q 363 342 357 356 q 412 223 382 300 q 460 109 422 197 q 469 91 463 103 q 558 264 499 140 q 616 395 604 359 l 610 408 l 494 673 q 458 751 471 722 q 419 821 431 812 q 347 833 407 830 l 333 837 q 328 851 328 843 q 334 861 329 857 q 364 861 355 861 l 407 860 l 429 861 l 466 861 l 499 861 l 534 861 l 598 865 q 616 864 604 865 l 627 865 q 642 860 637 865 q 646 850 646 856 q 644 840 646 846 q 605 833 633 836 q 558 824 565 828 q 552 813 552 820 q 604 677 552 800 l 673 520 q 760 717 705 583 q 783 799 783 772 q 772 825 783 813 q 732 836 763 833 l 718 838 l 706 843 l 705 848 q 709 860 705 852 q 721 866 715 865 q 815 863 731 867 l 861 863 l 890 862 l 937 863 q 954 859 943 862 q 959 849 959 854 q 953 837 959 842 q 927 829 947 832 q 850 802 876 820 q 819 765 833 789 l 770 655 q 741 580 752 605 q 723 538 736 564 l 695 474 q 720 417 703 456 l 790 255 q 818 195 795 244 q 857 103 842 145 l 867 136 l 869 139 l 910 247 q 954 351 932 296 l 1006 483 l 1084 707 q 1104 781 1097 745 l 1106 792 q 1108 803 1108 800 q 1099 820 1108 812 q 1031 842 1089 828 q 1021 848 1026 844 q 1019 861 1019 856 l 1019 865 q 1055 867 1048 867 l 1107 865 l 1166 866 l 1217 866 l 1238 865 l 1238 858 q 1237 844 1238 853 q 1176 817 1188 825 q 1158 799 1164 808 q 1134 747 1152 789 q 1091 625 1132 743 q 1073 578 1082 608 q 1061 549 1070 570 l 1050 522 l 1043 503 q 945 244 998 379 l 871 41 l 842 -37 q 826 -38 831 -38 q 812 -37 821 -38 q 774 58 804 -12 q 635 353 696 235 l 627 339 q 543 165 592 273 l 490 58 q 437 -37 458 -11 l 408 -38 l 298 231 l 208 444 l 127 646 q 113 683 119 665 q 104 709 109 696 q 66 805 98 730 q 27 830 54 825 q -13 841 0 836 z "},"X":{"ha":969,"x_min":7,"x_max":983,"o":"m 7 -7 l 9 12 q 70 22 24 16 q 136 40 128 35 q 170 67 149 47 q 233 138 210 109 q 286 198 243 151 q 447 399 393 317 q 249 669 342 534 q 130 821 155 803 q 53 833 122 827 q 16 837 27 835 q 12 857 12 849 l 13 864 q 73 866 61 866 l 91 866 l 136 863 l 250 857 q 340 854 283 854 q 386 861 357 854 q 412 863 402 863 q 437 861 420 863 q 441 847 441 852 l 440 842 q 388 832 428 838 q 332 820 349 827 q 309 806 315 814 q 305 789 305 795 q 309 776 305 783 q 400 637 328 734 l 517 483 q 603 600 557 531 q 709 764 704 751 q 715 785 715 776 q 705 808 715 798 q 671 823 696 818 q 607 835 616 834 q 596 840 601 837 q 591 857 591 850 l 592 864 l 725 866 l 853 866 l 922 865 l 932 863 l 934 849 l 850 820 q 796 789 807 798 q 718 703 774 772 q 608 559 661 634 q 568 508 598 545 q 534 461 551 486 q 541 450 536 456 l 551 438 l 753 167 q 846 51 817 78 q 887 26 863 34 q 978 12 911 18 q 983 -7 983 0 l 982 -14 l 959 -14 q 926 -12 949 -14 q 812 -5 882 -6 l 744 -4 l 624 -9 q 576 -13 582 -13 q 560 -12 570 -13 q 557 1 557 -3 q 560 12 557 4 l 599 15 l 674 30 q 691 47 686 34 q 682 70 687 61 q 577 223 656 115 q 467 370 499 331 q 384 266 458 363 q 278 120 288 139 q 264 75 264 94 q 291 37 264 50 q 420 10 309 27 q 422 -3 422 1 q 421 -13 422 -7 l 400 -14 q 316 -4 386 -14 q 142 -1 191 -1 q 56 -5 100 -1 q 28 -7 33 -7 q 7 -7 19 -7 z "},"Y":{"ha":911,"x_min":-14,"x_max":923,"o":"m -14 874 l 19 874 q 96 872 37 874 q 250 868 189 868 l 329 869 q 361 867 346 869 q 366 855 366 861 l 366 848 l 349 840 l 342 840 l 304 839 l 284 840 q 247 829 261 840 q 236 814 236 822 q 245 791 236 805 q 256 775 249 786 q 292 722 270 752 q 360 616 324 677 q 390 569 374 591 l 493 413 q 521 451 503 426 l 618 591 l 731 760 q 749 794 746 783 q 750 806 750 800 q 737 829 750 820 q 646 850 716 843 q 633 852 642 850 q 629 865 629 860 q 629 874 629 869 l 665 875 l 792 871 l 895 873 q 923 873 899 873 l 921 849 q 906 847 916 848 l 890 845 q 877 844 886 844 q 854 832 863 838 q 685 633 755 727 q 567 463 615 540 q 542 426 551 438 q 521 392 524 403 q 513 312 513 366 q 521 63 513 101 q 532 40 525 44 q 672 19 549 31 l 672 11 q 667 -9 672 3 l 494 -1 l 378 -7 l 283 -7 q 253 -7 269 -7 q 250 4 250 1 q 252 14 250 7 q 262 18 257 18 l 349 32 q 400 52 395 47 q 410 77 408 60 q 411 266 411 90 q 407 346 411 332 q 378 397 402 361 l 289 532 l 138 753 q 69 830 98 810 q 5 844 56 839 q -12 845 -1 844 l -14 874 z "},"Z":{"ha":911,"x_min":49,"x_max":846,"o":"m 50 -8 l 49 9 q 109 78 95 58 q 134 109 113 84 l 172 163 l 432 509 l 656 808 q 667 825 661 816 q 625 826 642 826 q 581 825 608 826 q 435 822 554 824 q 392 818 431 822 q 287 811 353 814 q 191 794 221 808 q 153 764 174 787 q 108 707 125 735 q 72 660 85 669 l 60 659 q 75 703 62 672 q 109 814 87 734 q 131 878 124 857 q 143 911 137 898 q 156 913 151 913 l 165 913 q 159 887 159 895 q 176 855 159 866 q 266 844 193 844 q 328 847 296 844 q 387 850 340 848 l 423 850 l 582 854 l 723 859 l 791 862 q 818 857 804 862 l 819 852 q 767 779 819 842 q 734 737 740 746 l 607 568 q 563 509 578 529 q 509 440 554 498 l 411 311 l 274 130 q 210 44 227 68 q 202 33 207 40 l 466 31 q 560 30 525 30 q 744 70 691 30 q 817 205 797 111 q 825 237 822 226 q 842 243 832 243 l 844 241 q 846 214 846 227 q 844 121 846 180 l 842 75 l 843 33 q 840 -1 843 15 q 810 -3 815 -3 q 763 -2 782 -2 l 588 -5 l 373 0 l 262 -2 q 220 0 256 -2 q 191 1 201 1 q 91 -7 154 1 q 65 -10 69 -10 q 50 -8 60 -10 z "},"[":{"ha":376,"x_min":141,"x_max":410,"o":"m 146 871 l 409 870 l 410 842 l 317 843 q 241 831 260 843 l 239 827 q 234 721 234 796 l 235 693 l 233 627 l 233 575 l 231 539 l 231 519 l 231 454 q 233 409 231 449 q 234 382 234 389 l 233 290 l 235 201 l 232 138 l 235 -43 q 232 -163 235 -121 l 231 -174 l 235 -258 q 240 -278 236 -273 q 260 -286 245 -283 q 344 -293 291 -293 l 372 -292 q 408 -293 391 -292 l 409 -322 l 145 -322 l 141 -187 l 148 -38 q 149 54 149 -1 q 148 92 149 81 l 144 150 l 146 350 l 144 435 q 145 522 144 496 q 147 559 147 547 l 144 631 l 146 728 l 144 848 l 146 871 z "},"\\":{"ha":694,"x_min":77,"x_max":618,"o":"m 77 967 l 136 967 l 618 -188 l 558 -188 l 77 967 z "},"]":{"ha":376,"x_min":-29,"x_max":242,"o":"m -28 841 l -29 869 l 1 871 l 28 871 l 212 871 q 237 869 222 871 l 235 794 l 236 781 q 238 686 238 736 q 235 628 238 662 q 233 581 233 593 q 238 397 233 473 l 238 341 l 239 250 l 238 216 l 240 63 q 239 25 240 47 q 238 -7 238 3 q 241 -84 238 -17 l 240 -214 l 242 -294 q 241 -323 242 -307 l -24 -323 l -24 -294 l -12 -294 q 11 -295 -5 -294 q 37 -295 26 -295 q 146 -281 125 -295 q 152 -183 152 -258 l 151 -151 l 152 -81 l 152 -31 q 154 4 152 -22 l 154 45 l 148 335 q 149 367 148 343 q 151 413 151 399 q 146 582 151 445 q 145 641 145 629 q 149 719 145 659 l 146 788 l 145 810 q 140 827 144 816 q 104 837 119 835 q -28 841 96 838 z "},"^":{"ha":694,"x_min":45,"x_max":652,"o":"m 348 932 l 652 567 l 608 531 l 348 844 l 87 531 l 45 567 l 348 932 z "},"_":{"ha":694,"x_min":-8,"x_max":703,"o":"m -8 -104 l 703 -104 l 703 -174 l -8 -174 l -8 -104 z "},"`":{"ha":463,"x_min":135,"x_max":363,"o":"m 363 667 l 351 667 q 216 758 341 673 q 146 814 157 798 q 135 842 135 830 q 146 866 135 856 q 171 877 157 877 q 224 853 195 877 q 313 741 253 829 q 338 704 328 718 q 363 667 356 681 z "},"a":{"ha":564,"x_min":45,"x_max":555,"o":"m 551 92 q 555 79 555 83 q 539 43 555 69 q 492 -6 518 9 q 448 -16 476 -16 q 374 14 399 -16 q 353 77 359 31 l 277 24 q 216 -5 237 1 q 135 -14 182 -14 q 80 6 100 -14 q 60 60 60 27 q 118 172 60 106 q 273 278 175 237 q 358 315 342 307 q 359 364 359 338 q 335 481 359 450 q 267 511 311 511 q 179 475 220 511 q 141 388 154 452 q 125 350 137 370 q 79 331 96 331 q 52 340 64 331 q 45 351 45 345 q 82 430 45 368 q 177 523 120 492 q 277 554 235 554 q 364 544 336 554 q 414 507 393 533 q 441 449 436 480 q 444 342 444 434 l 441 235 l 442 156 q 441 130 442 140 q 441 100 441 110 q 454 64 441 78 q 484 51 467 51 q 528 77 510 51 l 536 87 q 551 92 540 90 m 352 112 q 357 233 357 198 q 355 283 357 252 q 258 233 309 267 q 178 157 208 200 q 156 98 156 125 q 174 54 156 71 q 219 36 192 36 q 270 51 240 36 q 352 112 309 71 z "},"b":{"ha":709,"x_min":23,"x_max":654,"o":"m 23 852 l 23 856 q 28 875 23 863 q 186 914 102 888 q 201 915 191 915 q 204 901 204 904 l 204 699 l 203 634 l 204 562 l 203 504 q 204 481 203 500 l 260 502 q 318 519 269 505 q 391 530 381 530 q 513 508 459 530 q 579 463 547 494 q 627 396 612 431 q 654 285 654 332 q 645 182 654 211 q 589 75 622 115 q 496 8 555 36 q 369 -20 436 -20 q 252 3 307 -20 q 191 26 197 26 q 137 -29 170 26 l 117 -28 q 115 83 115 17 l 116 184 l 115 236 l 117 384 l 115 412 l 118 482 l 118 542 l 119 566 q 118 625 119 574 l 118 666 q 108 802 120 784 q 23 852 88 831 m 345 18 q 502 76 448 18 q 556 248 556 134 q 495 418 556 353 q 345 484 434 484 q 235 463 279 484 q 206 439 209 450 q 203 294 203 428 q 210 107 203 134 q 252 47 221 65 q 345 18 300 18 z "},"c":{"ha":578,"x_min":53,"x_max":543,"o":"m 542 124 l 543 80 q 438 1 490 24 q 317 -21 387 -21 q 180 19 241 -21 q 86 131 119 58 q 53 273 53 203 q 93 418 53 350 q 198 520 132 486 q 362 553 263 553 q 507 521 457 553 q 534 472 534 502 q 520 436 534 450 q 484 422 506 422 q 409 464 450 422 q 363 499 384 490 q 318 509 343 509 q 218 460 258 509 q 162 283 162 389 q 219 108 162 173 q 352 43 276 43 q 446 60 405 43 q 542 124 487 77 z "},"d":{"ha":694,"x_min":45,"x_max":677,"o":"m 495 492 l 496 512 l 495 591 l 496 741 q 482 821 496 804 q 403 855 469 838 q 388 859 398 857 l 388 867 q 389 882 388 873 q 548 913 481 891 l 583 914 q 585 811 585 868 l 583 550 l 587 256 l 585 99 q 592 45 585 51 q 652 31 606 31 q 677 29 661 31 l 677 17 q 677 7 677 12 q 633 -2 656 2 l 535 -21 q 500 -25 513 -25 l 500 40 q 465 26 489 37 q 270 -18 359 -18 q 161 17 216 -18 q 75 114 105 52 q 45 241 45 176 q 65 353 45 300 q 117 441 85 406 q 174 487 137 465 q 236 516 212 510 q 317 532 296 532 q 467 505 408 532 q 495 492 486 496 m 496 73 q 498 260 498 119 q 487 412 498 380 q 431 472 476 444 q 331 500 387 500 q 199 439 253 500 q 144 261 144 379 q 203 96 144 157 q 349 34 262 34 q 441 47 399 34 q 496 73 482 61 z "},"e":{"ha":578,"x_min":53,"x_max":545,"o":"m 537 358 l 265 356 l 214 356 q 150 353 182 356 q 144 326 144 333 l 144 319 l 144 312 l 144 279 q 170 177 144 237 q 244 86 196 117 q 366 52 293 54 q 427 62 404 54 q 492 96 450 69 l 541 136 l 545 109 q 545 99 545 104 q 467 31 514 60 q 372 -12 420 2 q 296 -18 349 -18 q 201 2 248 -18 q 93 98 132 32 q 53 258 53 164 q 64 335 53 288 q 104 435 75 382 q 153 494 124 471 q 224 539 193 526 q 326 557 268 557 q 429 534 389 557 q 510 456 484 504 q 537 368 537 408 l 537 358 m 159 382 l 191 382 q 397 393 225 382 q 430 399 424 395 q 442 422 442 412 q 429 470 442 443 q 387 511 415 496 q 321 526 359 526 q 195 467 243 526 q 159 382 159 422 z "},"f":{"ha":448,"x_min":65,"x_max":559,"o":"m 250 528 q 429 524 418 524 q 431 502 431 509 q 429 475 431 493 q 394 473 412 473 l 368 473 q 252 467 284 473 q 250 443 250 451 q 251 433 250 439 q 254 304 254 326 l 253 130 q 266 65 253 91 q 294 41 273 50 q 356 29 307 35 q 406 22 393 24 q 404 0 406 7 l 395 -1 q 310 3 362 1 l 260 5 l 89 -1 l 66 -1 l 66 20 q 81 24 76 22 q 156 48 139 35 q 165 68 163 54 q 167 144 167 76 q 163 452 167 337 q 109 459 146 458 q 66 462 96 459 l 65 469 q 72 483 65 477 q 129 511 75 486 q 159 535 150 521 q 164 566 163 543 q 168 604 165 577 q 181 690 176 673 q 222 780 193 735 q 292 859 251 825 q 359 896 321 884 q 445 908 397 908 q 539 887 509 908 q 559 850 559 873 q 545 818 559 831 q 510 804 531 804 q 454 817 484 804 q 391 842 398 840 q 364 845 378 845 q 296 821 327 845 q 257 763 265 798 q 249 608 249 728 q 250 528 249 564 z "},"g":{"ha":622,"x_min":9,"x_max":640,"o":"m 183 -45 q 131 -22 175 -41 q 66 27 79 11 q 52 63 52 43 q 62 92 52 81 q 121 121 77 107 q 194 149 165 136 q 166 167 185 155 q 65 340 65 229 q 129 493 65 431 q 294 556 193 556 q 377 543 339 556 q 441 509 399 536 q 473 490 469 492 q 498 487 484 487 q 554 493 509 487 q 606 498 598 498 q 632 492 622 498 q 640 447 640 479 q 634 431 640 436 q 618 425 629 425 q 555 437 599 425 q 502 449 511 449 q 489 448 498 449 q 518 341 518 389 q 488 241 518 293 q 404 163 457 190 q 295 136 350 136 q 272 136 291 136 q 157 105 210 136 q 132 76 132 90 q 157 48 132 62 q 401 8 221 14 q 522 -14 479 5 q 588 -72 566 -34 q 610 -151 610 -111 q 572 -253 610 -206 q 459 -329 535 -300 q 285 -358 383 -358 q 117 -332 176 -358 q 34 -274 58 -305 q 9 -212 9 -243 q 36 -146 9 -186 q 149 -63 63 -106 q 183 -45 174 -50 m 156 342 q 174 240 156 281 q 224 179 193 199 q 289 159 256 159 q 387 204 348 159 q 426 342 426 250 q 385 483 426 435 q 287 532 345 532 q 189 486 222 532 q 156 342 156 439 m 134 -286 q 290 -333 195 -333 q 424 -312 357 -333 q 521 -251 490 -290 q 552 -176 552 -211 q 541 -133 552 -154 q 512 -97 530 -111 q 463 -75 493 -83 q 401 -66 441 -69 q 261 -58 287 -58 q 132 -106 189 -58 q 87 -197 87 -144 q 134 -286 87 -246 z "},"h":{"ha":709,"x_min":20,"x_max":690,"o":"m 26 16 q 117 38 105 31 q 125 60 125 43 l 124 104 l 125 184 l 123 386 l 124 461 l 124 515 l 126 581 q 123 765 126 735 q 111 803 120 795 q 22 836 95 819 l 22 839 q 23 852 22 844 q 41 856 33 854 q 58 859 50 858 q 176 903 139 882 l 209 903 q 210 783 210 884 l 210 697 l 210 586 l 208 449 q 209 422 208 437 q 271 488 252 471 q 347 533 307 516 q 431 549 387 549 q 567 479 514 549 q 597 361 597 437 l 595 292 l 596 254 l 593 186 q 591 87 591 103 q 592 40 591 70 l 631 31 q 690 16 669 23 l 690 -5 l 545 -1 q 479 -3 533 -1 q 440 -5 446 -5 l 425 -5 q 422 5 422 1 l 422 12 q 457 28 431 24 l 498 37 q 507 52 506 44 q 513 227 510 69 l 515 277 q 503 408 517 356 q 459 466 493 444 q 382 487 426 487 q 313 471 345 487 q 259 431 290 460 q 216 382 228 403 q 208 338 208 369 l 208 290 l 207 241 q 209 156 207 235 l 208 113 l 210 65 q 212 50 210 55 l 307 27 q 330 19 315 25 l 332 12 q 328 1 332 8 q 298 0 309 0 l 245 1 l 129 -1 l 41 -3 q 21 -2 35 -3 l 20 3 q 26 16 20 8 z "},"i":{"ha":318,"x_min":0,"x_max":308,"o":"m 96 833 q 114 872 96 856 q 155 888 131 888 q 199 870 180 888 q 218 831 218 852 q 199 791 218 810 q 155 772 180 772 q 113 789 130 772 q 96 833 96 806 m 39 482 l 40 502 q 87 517 84 515 q 139 550 112 528 q 184 600 165 572 q 197 602 192 602 l 205 601 q 208 553 208 568 q 206 523 208 550 l 206 487 l 207 292 l 205 85 q 213 50 204 60 q 265 28 222 40 q 306 15 292 20 q 308 7 308 10 q 304 -3 308 3 q 237 0 278 -3 q 162 5 180 5 q 54 1 153 5 q 14 -2 33 1 q 3 0 11 -2 q 0 8 0 5 q 13 23 0 18 q 82 39 16 24 q 111 52 104 43 q 122 98 122 66 q 123 384 123 150 q 119 442 123 431 q 101 461 116 450 q 39 482 87 471 z "},"j":{"ha":318,"x_min":28,"x_max":214,"o":"m 87 821 q 104 864 87 846 q 146 881 121 881 q 188 864 171 881 q 205 820 205 847 q 186 771 205 792 q 146 756 173 756 q 104 774 121 756 q 87 821 87 792 m 28 -350 l 80 -287 q 109 -226 98 -258 q 123 -147 119 -194 q 130 -10 130 -69 q 128 37 130 7 l 129 143 q 126 399 130 342 q 115 444 124 435 q 56 460 102 456 q 43 462 52 461 l 44 488 q 173 563 133 510 q 193 585 182 574 l 197 585 q 207 583 201 585 l 209 336 q 214 55 214 77 q 200 -134 214 -75 q 151 -251 187 -193 q 77 -335 125 -292 l 49 -360 l 39 -366 q 28 -350 33 -360 z "},"k":{"ha":651,"x_min":35,"x_max":663,"o":"m 37 0 l 35 20 q 45 25 41 24 q 80 28 50 26 q 117 41 109 30 q 124 134 124 52 l 125 401 l 124 449 q 125 494 124 455 q 127 538 127 513 l 124 656 l 125 760 q 114 807 125 797 q 40 827 104 818 l 40 835 q 41 846 40 839 q 109 867 79 854 q 189 909 125 873 l 210 909 q 209 890 209 893 l 209 831 l 208 802 l 210 748 l 210 667 l 210 533 l 208 366 l 208 315 q 209 288 208 305 l 216 288 q 263 304 239 288 q 397 408 370 380 q 424 448 424 435 q 415 467 424 455 q 370 481 395 477 q 353 485 362 483 q 333 490 341 488 l 332 496 q 335 510 332 501 q 522 514 442 514 q 617 512 566 514 l 617 503 q 614 491 617 498 q 582 485 604 489 q 518 466 540 478 q 410 388 466 438 q 353 338 377 358 l 328 317 q 337 305 331 312 q 348 293 340 302 q 377 261 356 283 q 486 142 450 184 q 511 112 497 128 q 573 46 564 53 q 629 27 592 34 q 660 21 647 24 q 663 8 663 13 l 662 1 q 593 5 614 5 l 581 5 l 392 0 q 377 -1 381 -1 q 363 1 370 -1 q 361 11 361 7 l 361 16 q 368 23 365 22 q 446 32 435 28 q 458 39 452 33 q 438 77 458 51 q 340 190 418 102 q 275 255 290 245 q 235 264 260 264 l 209 264 q 206 152 206 239 q 220 47 206 71 q 255 31 227 35 q 291 21 283 28 q 298 2 296 17 q 229 3 257 3 q 132 1 184 3 q 81 -1 100 -1 q 37 0 68 -1 z "},"l":{"ha":318,"x_min":7,"x_max":315,"o":"m 35 840 l 35 855 q 77 868 54 861 q 178 901 111 879 l 210 901 q 210 864 210 869 q 207 200 210 307 q 205 133 205 137 q 211 48 205 57 q 261 31 219 36 q 310 22 302 26 q 315 12 315 19 q 312 2 315 5 q 301 -1 309 -1 q 230 1 296 -1 l 141 3 l 27 -1 q 11 3 16 -2 q 7 12 7 6 q 11 22 7 19 q 60 33 16 25 q 111 45 104 40 q 119 68 117 50 q 122 205 122 92 l 121 361 l 123 523 l 123 684 l 125 764 q 117 798 125 787 q 85 819 110 808 q 35 840 49 833 z "},"m":{"ha":1071,"x_min":24,"x_max":1047,"o":"m 27 24 q 57 34 38 31 q 99 45 84 37 q 115 74 111 55 q 120 245 120 98 q 111 432 120 390 q 73 447 96 441 q 41 454 65 448 l 41 477 q 106 507 81 488 q 175 580 131 525 l 179 580 q 192 581 183 580 q 201 577 197 580 l 200 500 q 201 449 200 476 q 332 541 274 515 q 420 559 371 559 q 514 536 479 559 q 580 456 549 514 q 689 539 640 515 q 789 563 739 563 q 913 513 865 563 q 963 366 962 463 l 963 310 l 964 248 l 963 90 q 975 47 962 62 q 1017 35 981 45 q 1043 26 1039 29 q 1047 16 1047 22 q 1043 -1 1047 9 l 1038 -1 l 970 3 q 931 3 958 3 q 840 1 899 3 l 806 1 q 777 0 798 1 q 776 11 776 6 q 781 24 776 16 q 831 38 799 33 q 870 56 863 43 q 878 161 878 69 q 873 393 878 361 q 830 473 865 444 q 743 502 795 502 q 663 480 702 502 q 587 416 625 459 l 587 400 l 587 296 l 584 216 q 586 75 584 92 q 598 51 589 58 q 651 37 607 43 q 682 31 671 34 q 690 14 690 24 q 684 1 690 5 l 672 1 l 638 2 l 441 2 l 387 1 q 385 16 385 12 l 386 24 q 441 40 401 33 q 485 52 463 43 q 491 60 489 55 q 496 115 494 70 l 499 193 l 498 282 l 498 332 q 465 453 498 415 q 379 492 431 492 q 282 468 331 492 q 202 404 234 444 q 201 370 201 385 l 204 142 q 213 57 205 67 q 248 42 220 46 q 304 27 291 36 q 310 15 310 23 q 309 2 310 9 q 205 7 232 7 q 157 7 178 7 l 123 5 l 102 5 l 26 2 q 24 10 24 7 q 27 24 24 14 z "},"n":{"ha":709,"x_min":24,"x_max":694,"o":"m 26 22 q 65 30 43 26 q 116 44 108 36 q 125 81 125 52 l 126 106 q 127 140 127 119 l 125 349 q 115 403 125 391 q 47 429 96 422 l 47 454 q 123 489 96 467 q 188 572 161 519 l 211 571 q 213 526 213 539 l 213 481 l 214 469 q 233 482 222 474 q 316 532 273 513 q 392 559 359 551 q 439 564 413 564 q 535 534 495 564 q 587 464 575 505 q 599 304 599 424 l 599 201 q 598 174 599 197 q 597 121 597 151 q 601 61 597 74 q 618 43 604 52 q 694 22 684 35 l 694 17 q 690 0 694 10 l 677 0 l 588 1 l 500 -1 q 410 0 451 -2 l 406 14 q 410 25 406 18 q 462 36 429 33 q 489 40 481 37 q 507 51 496 43 q 515 78 515 67 q 514 97 515 83 q 511 252 512 128 l 511 288 l 513 342 q 477 463 513 429 q 383 496 442 496 q 294 476 338 496 q 210 416 251 456 q 209 360 209 383 l 211 210 q 214 66 211 93 q 219 52 216 56 q 241 43 224 46 q 278 33 257 39 q 307 26 300 27 q 325 12 320 22 l 324 -1 l 253 -1 l 106 1 q 42 -1 56 -1 l 25 -1 l 24 8 q 26 22 24 13 z "},"o":{"ha":709,"x_min":50,"x_max":659,"o":"m 50 273 q 69 371 50 319 q 127 466 88 424 q 211 528 167 507 q 361 556 273 556 q 573 469 488 556 q 659 260 659 382 q 569 67 659 152 q 344 -18 480 -18 q 185 26 260 -18 q 90 124 130 59 q 50 273 50 189 m 349 8 q 449 36 401 8 q 525 125 496 64 q 553 267 553 186 q 531 390 553 320 q 464 495 509 460 q 356 530 418 530 q 265 509 311 530 q 186 428 218 488 q 154 258 154 368 q 210 72 154 135 q 349 8 266 8 z "},"p":{"ha":709,"x_min":16,"x_max":659,"o":"m 17 -354 q 16 -340 16 -347 q 18 -329 16 -336 l 85 -315 q 112 -296 102 -307 q 115 -271 115 -283 q 110 127 115 -167 l 108 375 q 100 450 106 434 q 90 463 97 458 q 22 484 73 475 l 26 505 q 124 553 100 536 q 172 602 149 570 l 180 604 q 193 600 184 604 q 193 543 193 557 l 193 469 q 298 525 243 507 q 410 544 352 544 q 587 470 515 544 q 659 281 659 397 q 618 126 659 195 q 507 24 578 58 q 364 -10 436 -10 q 224 23 303 -10 q 201 33 212 28 q 200 -64 200 -22 q 212 -298 200 -273 q 250 -315 218 -312 q 321 -330 304 -319 q 335 -355 332 -336 l 268 -356 l 207 -355 l 105 -355 l 17 -354 m 194 422 q 193 404 193 412 q 197 133 193 162 q 235 58 207 79 q 361 23 279 23 q 505 82 446 23 q 563 234 563 140 q 501 412 563 347 q 338 478 439 478 q 260 464 296 478 q 194 422 224 450 z "},"q":{"ha":680,"x_min":47,"x_max":692,"o":"m 574 573 l 599 573 l 600 549 l 599 404 l 600 195 q 599 118 600 140 l 598 100 l 599 73 l 598 28 l 600 -50 l 599 -140 l 600 -224 q 599 -265 600 -237 q 598 -280 598 -274 q 609 -310 598 -296 q 617 -315 613 -312 q 637 -322 625 -319 q 659 -328 649 -326 q 686 -335 673 -333 q 692 -348 692 -342 l 692 -355 q 671 -355 675 -355 l 479 -352 q 393 -354 439 -352 q 390 -344 390 -347 q 393 -334 390 -340 q 490 -313 485 -316 q 505 -289 501 -307 q 515 -123 515 -252 q 514 63 515 -19 q 471 43 503 58 q 311 1 378 1 q 186 32 251 1 q 84 127 121 63 q 47 262 47 191 q 133 462 47 380 q 337 544 218 544 q 461 518 392 544 q 534 499 511 499 q 549 507 543 499 q 574 573 558 518 m 456 71 q 510 99 499 87 l 515 233 q 500 409 515 365 q 444 484 485 452 q 344 515 402 515 q 194 434 246 515 q 154 286 154 373 q 181 175 154 226 q 266 92 209 124 q 373 60 322 60 q 456 71 418 60 z "},"r":{"ha":463,"x_min":25,"x_max":461,"o":"m 28 -2 l 25 7 q 31 21 25 12 l 71 29 l 127 39 q 137 49 134 43 q 141 101 141 58 q 138 367 141 332 q 126 412 136 403 q 77 427 117 422 q 41 436 54 431 l 43 456 q 139 507 115 486 q 197 587 173 537 l 220 586 q 224 435 224 552 l 223 424 q 224 411 223 420 q 289 497 250 458 l 304 513 q 323 530 314 524 q 393 558 370 558 q 442 538 423 558 q 461 489 461 518 q 448 453 461 466 q 406 436 429 436 q 363 448 395 436 q 321 459 331 459 q 294 453 302 459 q 248 392 275 438 q 227 328 227 357 l 231 216 l 232 82 q 237 52 234 59 q 251 41 240 47 q 338 32 324 35 q 352 31 347 31 q 393 22 381 30 q 399 12 399 19 q 393 1 399 8 l 318 2 l 290 3 l 248 2 l 179 2 l 142 0 l 28 -2 z "},"s":{"ha":507,"x_min":77,"x_max":447,"o":"m 98 172 q 136 89 123 108 q 198 29 162 50 q 276 7 234 7 q 353 41 315 7 q 380 99 380 66 q 348 180 380 143 q 227 251 316 217 q 107 322 138 284 q 77 409 77 360 q 102 490 77 455 q 171 544 127 526 q 252 562 215 562 q 339 554 300 562 q 405 531 377 547 q 414 429 410 496 l 415 408 q 400 407 406 407 l 391 407 q 329 496 370 463 q 246 529 287 529 q 180 504 205 529 q 155 439 155 479 q 176 385 155 409 q 271 331 196 361 q 380 274 346 300 q 431 211 414 248 q 447 140 447 174 q 416 52 447 93 q 339 -5 385 12 q 256 -22 292 -22 q 97 10 170 -22 q 90 31 90 16 q 88 50 90 37 q 77 159 77 142 q 81 170 77 167 q 98 172 84 172 z "},"t":{"ha":405,"x_min":38,"x_max":410,"o":"m 194 670 l 215 669 l 218 605 l 216 522 q 233 521 229 521 q 300 524 250 521 q 361 526 332 526 q 401 525 374 526 q 403 503 403 511 q 399 475 403 494 l 387 475 l 282 472 l 230 471 l 218 469 q 212 430 212 452 l 214 328 l 213 149 q 231 56 213 79 q 284 32 249 32 q 351 43 302 32 q 391 65 366 46 l 397 65 q 407 61 403 65 q 410 52 410 58 l 410 47 q 343 0 380 15 q 243 -14 305 -14 q 170 6 199 -14 q 133 54 141 26 q 125 176 125 82 l 127 328 l 127 401 l 127 429 q 125 467 127 448 l 114 467 l 58 465 l 53 465 q 42 468 45 465 q 38 476 38 471 q 43 489 38 484 q 74 505 48 494 q 115 533 92 513 q 155 579 138 554 q 178 631 163 593 q 194 670 189 659 z "},"u":{"ha":680,"x_min":22,"x_max":672,"o":"m 22 532 l 73 532 l 96 531 l 113 532 q 200 531 183 532 l 201 518 q 198 333 201 422 q 196 273 196 280 q 204 123 196 153 q 240 76 212 94 q 310 58 269 58 q 405 78 359 58 q 481 129 450 99 q 485 186 485 155 q 487 322 485 287 q 488 359 488 343 q 477 483 488 469 q 394 505 466 497 q 359 509 370 507 q 354 523 354 518 l 356 530 q 391 532 374 532 l 498 531 q 559 532 556 532 q 574 532 567 532 l 575 482 q 570 227 570 379 l 568 172 l 571 80 q 582 67 577 69 q 615 64 590 64 l 621 64 q 671 60 630 64 q 672 47 672 51 l 672 39 q 525 0 581 20 q 487 -11 503 -7 q 484 18 484 13 l 484 73 q 483 92 484 77 q 463 77 474 85 q 349 7 409 35 q 272 -13 309 -13 q 156 40 201 -13 q 111 220 111 93 q 111 245 111 227 q 114 290 114 277 q 113 320 114 295 q 113 339 113 331 q 113 367 113 345 q 114 397 114 388 q 113 417 114 408 l 112 453 l 113 472 q 102 492 113 483 q 46 505 59 503 q 22 511 33 507 l 22 532 z "},"v":{"ha":651,"x_min":-8,"x_max":663,"o":"m -7 538 q 124 534 68 538 q 182 535 164 534 q 199 536 195 536 l 275 535 q 300 532 290 532 q 307 524 304 530 q 303 510 307 517 q 279 506 292 507 q 194 490 229 500 q 189 484 189 487 q 196 463 189 477 q 202 446 197 459 l 270 283 q 354 95 315 172 q 403 199 380 145 q 469 368 425 252 q 492 448 481 400 q 494 465 494 458 q 485 483 494 473 q 454 498 475 492 q 392 509 449 499 q 383 516 387 511 l 383 522 q 384 530 383 525 q 408 532 400 532 l 488 532 q 526 534 496 532 q 656 532 634 534 q 663 524 660 530 q 659 510 663 517 l 638 505 q 625 503 630 504 q 553 487 567 498 q 522 417 543 479 q 492 340 511 387 l 456 254 q 440 214 449 236 l 335 -28 l 315 -28 q 300 5 309 -12 l 248 115 l 127 399 q 83 488 90 481 q -4 517 75 495 q -8 532 -8 528 l -7 538 z "},"w":{"ha":926,"x_min":-15,"x_max":938,"o":"m -14 534 l 246 534 q 256 531 254 534 q 259 523 259 528 q 249 504 259 510 q 190 492 201 500 q 178 470 178 484 q 180 457 178 463 q 199 409 182 449 q 281 235 222 355 l 362 71 q 474 296 431 192 l 433 404 q 415 449 426 419 q 399 484 405 479 q 357 499 393 489 q 315 515 321 509 l 314 519 q 318 531 314 524 q 344 535 334 535 l 382 534 l 467 534 l 493 535 l 576 534 q 593 534 587 534 l 605 534 q 616 534 609 534 l 615 512 q 581 503 605 506 q 513 486 536 498 q 505 472 505 478 q 513 435 505 457 q 528 393 516 428 l 600 201 q 649 82 632 116 q 729 270 677 134 q 778 383 747 317 q 798 454 798 425 q 786 481 798 470 q 732 501 774 492 q 695 511 707 507 q 692 520 692 517 q 699 534 692 526 l 709 534 l 764 534 q 795 533 768 534 q 850 532 823 532 q 897 534 870 532 l 930 534 q 936 530 935 532 q 938 524 938 528 q 936 507 938 516 q 884 492 903 503 q 832 431 865 481 l 711 139 q 652 14 694 98 q 638 -14 643 -3 q 630 -28 634 -25 q 619 -32 626 -32 q 606 -29 614 -32 q 522 176 587 8 q 490 254 505 222 q 344 -31 378 22 q 330 -32 334 -32 q 316 -31 325 -32 l 188 237 l 71 467 q 52 492 58 488 q 11 505 40 500 q -14 509 -5 507 q -15 524 -15 519 q -14 534 -15 528 z "},"x":{"ha":637,"x_min":19,"x_max":618,"o":"m 20 508 q 19 523 19 517 l 19 532 q 43 534 30 534 l 68 534 q 141 532 126 532 q 236 534 188 532 q 273 534 266 534 l 289 534 q 294 520 294 525 q 291 511 294 517 l 281 509 q 218 497 231 505 q 213 488 213 494 q 229 456 213 477 q 337 323 309 353 q 413 433 401 409 q 426 471 426 457 q 414 497 426 486 q 354 514 401 507 q 349 528 349 522 l 351 534 l 368 535 q 392 534 375 535 q 450 532 421 532 q 502 533 465 532 q 557 534 538 534 l 589 534 q 597 524 597 530 q 596 515 597 520 q 570 509 585 512 q 498 483 533 504 q 448 433 473 467 l 351 303 l 450 180 q 533 72 517 88 q 566 45 548 56 q 617 26 583 35 q 618 12 618 18 q 615 -1 618 7 q 492 3 603 -1 q 427 1 485 3 q 391 1 408 1 q 353 2 376 1 l 355 22 q 377 27 365 24 q 427 45 412 34 q 435 62 435 53 q 343 186 435 77 l 303 235 q 240 154 275 206 q 208 109 220 123 q 185 63 185 81 q 193 51 185 57 q 241 35 201 44 q 278 26 267 30 q 280 13 280 18 q 279 0 280 9 q 177 3 227 3 q 86 1 115 3 q 52 -1 58 -1 q 26 1 43 -1 q 23 15 23 10 l 24 24 q 48 30 34 28 q 129 64 94 35 q 286 258 164 93 l 195 367 l 99 482 q 89 490 95 486 q 60 500 78 496 q 20 508 32 505 z "},"y":{"ha":578,"x_min":5,"x_max":597,"o":"m 8 534 q 33 536 23 536 l 66 536 l 110 537 l 168 535 l 214 536 q 281 532 252 536 q 284 521 284 525 l 283 515 q 239 506 269 509 q 179 491 197 503 l 178 484 q 183 463 178 477 q 192 439 186 455 q 256 245 207 389 q 323 66 292 141 q 366 170 342 107 l 424 330 q 453 436 443 383 q 457 469 457 457 q 448 488 457 479 q 413 503 439 497 q 361 518 365 515 q 356 532 357 522 q 366 537 360 535 l 408 537 l 453 536 l 521 537 l 564 536 l 575 537 q 591 536 580 537 q 597 525 597 532 q 591 513 597 518 l 578 511 q 517 490 538 505 q 498 456 506 482 q 489 432 495 447 q 479 405 486 424 q 463 360 473 386 l 454 341 l 454 338 l 338 34 l 254 -195 q 235 -237 246 -212 q 205 -290 210 -285 q 170 -325 184 -315 l 135 -340 q 113 -342 125 -342 q 68 -329 83 -342 q 54 -293 54 -316 q 75 -254 54 -271 q 89 -248 82 -252 l 98 -246 q 173 -257 158 -257 q 194 -239 187 -250 q 251 -129 227 -190 q 275 -47 275 -68 q 257 20 275 -24 l 182 220 q 89 472 166 258 q 77 492 84 486 l 31 509 l 16 512 q 5 526 5 517 l 8 534 z "},"z":{"ha":593,"x_min":37,"x_max":541,"o":"m 37 -2 l 37 12 q 151 145 118 103 l 205 214 q 281 302 214 224 l 342 373 q 426 481 362 394 q 412 485 420 485 l 384 486 q 255 484 334 487 q 168 471 199 482 q 128 445 146 463 q 88 393 100 417 q 68 372 82 380 q 58 379 61 373 q 70 415 60 387 q 87 468 80 444 q 127 587 109 543 l 152 587 q 150 574 151 578 q 146 545 146 555 q 159 524 146 530 q 270 515 176 515 q 323 516 292 515 q 479 522 446 522 q 538 519 492 522 q 538 507 538 512 q 534 489 538 495 q 477 408 518 460 l 339 239 l 166 28 q 211 27 180 28 l 374 27 q 431 40 403 26 q 482 86 459 54 q 517 161 505 118 q 528 165 522 165 q 541 158 536 165 l 526 62 q 511 -4 520 7 l 100 -3 l 58 -3 q 37 -2 46 -3 z "},"{":{"ha":665,"x_min":192,"x_max":570,"o":"m 570 -276 l 570 -300 q 386 -208 457 -284 q 315 -39 315 -132 q 331 75 315 11 q 347 177 347 139 q 305 267 347 224 q 192 319 264 309 l 192 347 q 305 398 264 356 q 347 488 347 440 q 331 590 347 526 q 315 705 315 654 q 386 873 315 796 q 570 964 457 949 l 570 941 q 454 879 491 922 q 417 786 417 836 q 432 679 417 744 q 448 567 448 613 q 397 434 448 498 q 248 334 347 370 q 396 233 345 298 q 448 98 448 167 q 432 -13 448 52 q 417 -121 417 -79 q 454 -213 417 -170 q 570 -276 491 -256 z "},"|":{"ha":694,"x_min":317,"x_max":378,"o":"m 317 908 l 378 908 l 378 -358 l 317 -358 l 317 908 z "},"}":{"ha":665,"x_min":120,"x_max":498,"o":"m 120 941 l 120 964 q 304 873 233 949 q 375 705 375 797 q 359 590 375 654 q 344 488 344 526 q 385 398 344 441 q 498 347 426 356 l 498 319 q 385 267 426 309 q 344 177 344 225 q 359 75 344 139 q 375 -39 375 11 q 304 -208 375 -131 q 120 -300 233 -284 l 120 -276 q 236 -214 199 -256 q 273 -121 273 -171 q 258 -13 273 -79 q 242 98 242 52 q 293 231 242 167 q 443 331 343 296 q 294 433 345 367 q 242 567 242 498 q 258 679 242 613 q 273 786 273 744 q 236 879 273 836 q 120 941 199 922 z "},"~":{"ha":926,"x_min":102,"x_max":824,"o":"m 795 524 l 824 524 q 775 388 822 438 q 659 338 728 338 q 597 347 628 338 q 407 421 557 359 q 258 464 301 464 q 177 435 210 464 q 131 340 144 406 l 102 340 q 152 478 106 430 q 259 526 197 526 q 319 517 289 526 q 517 442 389 496 q 668 397 621 397 q 753 430 719 397 q 795 524 788 463 z "},"":{"ha":941,"x_min":-10,"x_max":930,"o":"m -7 22 q 9 27 2 27 l 25 27 q 41 28 30 27 q 103 37 94 33 q 144 82 127 50 q 223 278 179 151 q 250 351 244 338 q 282 437 267 392 l 346 615 q 418 808 361 657 q 452 909 432 846 l 472 911 l 496 910 q 547 786 525 852 q 587 681 559 751 l 690 402 l 745 251 q 802 93 789 122 q 827 54 816 63 q 853 45 831 51 q 884 37 875 40 q 927 22 915 28 q 930 11 930 15 q 928 1 930 7 q 897 0 906 0 q 775 2 863 0 l 707 4 l 625 3 q 609 4 617 3 q 594 5 600 5 l 579 5 q 566 9 572 5 q 569 27 566 18 q 584 32 577 31 l 655 37 q 697 44 683 38 q 701 62 701 56 q 684 125 701 75 q 662 190 671 159 q 590 391 653 220 q 541 395 562 395 l 396 394 l 353 395 q 302 391 330 395 q 291 362 294 371 l 231 176 q 193 58 193 69 q 199 38 193 52 q 237 31 214 34 l 330 22 q 337 12 337 16 q 335 1 337 8 q 288 1 304 1 q 162 4 234 1 q 115 5 129 5 q 65 4 100 5 q 32 3 42 3 q -10 5 16 3 l -10 9 q -7 22 -10 14 m 316 429 q 481 425 389 425 q 574 428 534 425 q 559 477 568 454 q 510 608 515 595 l 448 764 l 441 777 q 412 707 437 768 q 349 542 368 601 q 331 489 340 515 q 319 453 321 463 q 312 431 317 442 l 316 429 m 535 1010 q 552 1054 535 1037 q 593 1071 569 1071 q 635 1054 618 1071 q 652 1013 652 1037 q 635 971 652 988 q 593 954 618 954 q 552 970 570 954 q 535 1010 535 987 m 302 1010 q 319 1054 302 1037 q 359 1071 336 1071 q 401 1054 383 1071 q 418 1012 418 1036 q 401 970 418 987 q 360 954 384 954 q 319 970 336 954 q 302 1010 302 987 z "},"":{"ha":941,"x_min":-10,"x_max":930,"o":"m -7 22 q 9 27 2 27 l 25 27 q 41 28 30 27 q 103 37 94 33 q 144 82 127 50 q 223 278 179 151 q 250 351 244 338 q 282 437 267 392 l 346 615 q 418 808 361 657 q 452 909 432 846 l 472 911 l 496 910 q 547 786 525 852 q 587 681 559 751 l 690 402 l 745 251 q 802 93 789 122 q 827 54 816 63 q 853 45 831 51 q 884 37 875 40 q 927 22 915 28 q 930 11 930 15 q 928 1 930 7 q 897 0 906 0 q 775 2 863 0 l 707 4 l 625 3 q 609 4 617 3 q 594 5 600 5 l 579 5 q 566 9 572 5 q 569 27 566 18 q 584 32 577 31 l 655 37 q 697 44 683 38 q 701 62 701 56 q 684 125 701 75 q 662 190 671 159 q 590 391 653 220 q 541 395 562 395 l 396 394 l 353 395 q 302 391 330 395 q 291 362 294 371 l 231 176 q 193 58 193 69 q 199 38 193 52 q 237 31 214 34 l 330 22 q 337 12 337 16 q 335 1 337 8 q 288 1 304 1 q 162 4 234 1 q 115 5 129 5 q 65 4 100 5 q 32 3 42 3 q -10 5 16 3 l -10 9 q -7 22 -10 14 m 316 429 q 481 425 389 425 q 574 428 534 425 q 559 477 568 454 q 510 608 515 595 l 448 764 l 441 777 q 412 707 437 768 q 349 542 368 601 q 331 489 340 515 q 319 453 321 463 q 312 431 317 442 l 316 429 m 363 1010 q 396 1089 363 1056 q 475 1122 429 1122 q 553 1089 521 1122 q 586 1010 586 1057 q 553 931 586 964 q 474 899 520 899 q 396 931 429 899 q 363 1010 363 964 m 474 929 q 532 953 508 929 q 555 1010 555 977 q 532 1067 555 1044 q 475 1091 508 1091 q 418 1067 441 1091 q 394 1011 394 1044 q 417 953 394 977 q 474 929 441 929 z "},"":{"ha":882,"x_min":60,"x_max":835,"o":"m 804 830 q 812 723 812 778 q 811 694 812 712 q 797 692 802 692 q 785 693 793 692 q 692 815 757 772 q 533 858 628 858 q 448 846 483 858 q 341 788 387 825 q 263 700 295 751 q 213 576 231 649 q 194 427 194 503 q 238 188 194 282 q 359 53 282 93 q 513 12 435 12 l 545 13 q 619 26 600 20 q 701 59 669 40 q 764 114 733 79 q 817 196 795 149 l 825 199 q 835 195 828 199 q 833 174 834 178 q 792 17 805 59 q 765 9 781 14 q 553 -18 686 -18 q 392 -4 446 -18 q 276 42 339 11 q 166 123 214 73 q 90 252 119 174 q 60 421 60 330 q 83 573 60 508 q 155 704 106 637 q 268 814 203 770 q 414 877 334 859 q 573 889 470 889 q 715 869 648 889 q 804 830 781 849 m 524 -119 q 549 -86 531 -108 q 614 9 574 -54 l 637 9 l 585 -75 q 637 -170 637 -116 q 603 -257 637 -222 q 517 -292 568 -292 q 458 -273 481 -292 q 435 -235 435 -254 q 444 -210 435 -222 q 460 -202 451 -202 q 496 -231 475 -202 q 540 -260 517 -260 q 573 -243 558 -260 q 588 -197 588 -225 q 572 -151 588 -172 q 524 -119 556 -130 z "},"":{"ha":911,"x_min":33,"x_max":879,"o":"m 34 11 q 45 18 41 17 q 85 24 57 22 q 166 36 151 28 q 176 74 176 50 l 175 121 l 176 294 l 174 375 l 175 545 l 172 739 q 163 817 171 808 q 90 831 151 829 q 45 836 64 832 q 36 848 36 840 q 39 861 36 853 q 50 864 45 864 q 73 863 60 864 q 156 860 113 860 l 206 861 l 326 859 q 465 861 415 859 q 533 863 515 863 q 610 860 549 863 l 707 861 l 718 859 l 774 861 l 781 857 q 786 846 785 852 q 783 817 786 836 q 780 792 780 797 q 785 673 780 722 q 781 667 784 669 q 767 669 773 667 q 747 715 760 682 q 709 790 734 747 q 683 824 692 819 q 644 829 673 829 q 582 831 637 829 q 553 831 567 831 l 359 827 l 342 827 q 298 818 305 827 q 286 722 286 802 q 290 559 286 714 l 290 465 q 306 463 297 463 l 317 463 q 351 463 329 463 q 399 461 387 461 q 413 462 407 461 q 602 465 486 465 q 644 479 637 471 q 659 543 654 491 q 682 601 664 594 q 698 597 690 601 q 699 587 699 592 q 698 572 699 583 q 694 414 694 547 q 698 336 694 379 q 702 289 702 292 q 700 273 702 283 q 691 270 694 270 l 686 270 q 665 329 675 289 q 628 415 648 397 q 566 432 609 432 q 531 431 556 432 q 456 430 506 430 l 412 430 q 289 426 318 430 l 288 404 l 289 279 l 288 200 l 289 123 q 298 43 290 54 q 348 28 309 28 l 389 29 q 432 28 395 29 q 523 27 469 27 q 697 38 654 27 q 769 78 741 50 q 840 201 797 106 q 865 229 852 229 q 879 223 871 229 q 857 135 859 156 q 848 38 849 87 q 837 1 848 16 l 822 1 l 631 -1 l 546 -1 l 342 -3 l 260 -3 q 231 -4 244 -3 q 51 -9 109 -9 q 37 -6 41 -9 q 33 4 33 -3 l 34 11 m 390 954 l 474 1075 q 547 1152 511 1128 q 579 1162 562 1162 q 608 1152 597 1162 q 619 1128 619 1142 q 610 1101 619 1116 q 564 1063 600 1087 l 405 954 l 397 953 l 390 954 z "},"":{"ha":1071,"x_min":18,"x_max":1017,"o":"m 18 829 l 18 862 q 172 867 123 862 q 198 869 191 869 q 216 869 204 869 q 269 814 245 845 q 281 801 275 808 l 425 643 l 445 618 q 524 532 488 568 q 663 382 559 496 l 825 202 q 886 136 848 176 l 886 147 q 882 247 882 241 l 885 288 l 884 351 l 884 380 q 879 552 884 408 q 873 626 878 572 q 869 722 869 681 q 860 809 869 797 q 802 827 854 818 q 764 831 790 828 q 728 835 734 833 q 718 846 723 837 q 724 867 719 857 q 760 872 742 872 q 807 867 779 872 q 857 863 835 863 q 954 867 888 863 q 1006 869 991 869 l 1017 869 l 1016 848 q 986 843 1005 844 q 951 837 967 842 q 922 824 926 829 q 905 788 905 806 l 913 574 l 918 475 l 918 447 l 922 311 q 926 68 926 171 q 923 -29 926 45 l 891 -32 q 728 139 867 -5 q 684 186 695 172 l 625 253 q 581 300 591 290 q 566 315 571 311 q 374 526 492 399 q 281 631 342 559 q 232 687 242 677 q 204 710 222 697 l 202 687 q 209 322 202 555 l 214 98 q 217 43 214 69 l 241 37 q 368 19 305 31 q 376 13 372 15 l 375 -13 q 357 -16 364 -16 q 339 -15 350 -16 q 176 -9 272 -9 q 56 -13 108 -9 l 47 -14 q 29 -12 41 -14 l 28 8 l 46 16 l 78 21 q 140 35 121 27 q 161 49 153 39 q 169 186 169 96 q 167 340 169 228 l 167 432 l 165 625 q 157 777 164 753 q 140 798 153 789 q 72 821 114 817 q 18 829 31 826 m 732 1090 l 751 1090 q 752 1080 752 1083 q 720 987 752 1021 q 640 952 688 952 q 590 962 616 952 q 535 994 572 968 q 483 1025 498 1019 q 445 1034 462 1034 q 407 1017 422 1034 q 384 954 391 1001 l 365 954 q 363 961 363 958 q 391 1048 363 1006 q 476 1090 419 1090 q 521 1082 500 1090 q 583 1048 543 1074 q 672 1008 643 1008 q 709 1025 693 1008 q 732 1090 725 1042 z "},"":{"ha":1085,"x_min":64,"x_max":1019,"o":"m 64 433 q 80 556 64 503 q 136 673 97 610 q 231 779 176 736 q 385 854 287 821 q 560 876 454 876 q 700 857 631 876 q 823 804 768 838 q 935 700 879 770 q 993 595 973 651 q 1019 442 1019 521 q 1001 294 1019 353 q 943 177 984 235 q 834 74 911 132 q 706 11 783 35 q 541 -14 629 -14 q 380 7 450 -14 q 262 59 309 28 q 165 148 215 89 q 90 278 115 207 q 64 433 64 349 m 534 12 q 653 27 591 12 q 762 80 714 43 q 836 164 809 117 q 879 286 863 212 q 895 433 895 359 q 868 616 895 526 q 800 738 847 684 q 685 822 752 792 q 542 851 618 851 q 421 831 480 851 q 324 779 362 810 q 254 689 286 747 q 204 562 221 631 q 187 438 187 492 q 204 311 187 382 q 251 187 221 239 q 323 95 280 135 q 420 33 366 54 q 534 12 473 12 m 635 1010 q 652 1054 635 1037 q 693 1071 669 1071 q 734 1054 718 1071 q 751 1013 751 1037 q 734 971 751 988 q 693 954 718 954 q 652 970 669 954 q 635 1010 635 987 m 401 1010 q 418 1054 401 1037 q 459 1071 435 1071 q 500 1054 483 1071 q 518 1012 518 1036 q 501 970 518 987 q 460 954 484 954 q 419 970 436 954 q 401 1010 401 987 z "},"":{"ha":984,"x_min":25,"x_max":939,"o":"m 396 871 q 399 853 399 859 q 397 841 399 849 q 369 836 380 836 q 353 837 364 836 q 335 838 342 838 q 286 826 304 838 q 271 806 273 819 l 264 729 l 266 393 q 278 164 267 209 q 317 90 290 119 q 398 41 344 60 q 505 22 453 22 q 681 56 620 22 q 769 148 743 89 q 796 326 796 206 q 794 380 796 329 l 794 399 q 795 442 794 410 q 797 479 797 473 l 787 673 q 775 789 782 772 q 757 816 769 807 q 656 850 730 835 q 652 869 653 859 q 705 872 679 872 q 762 870 732 872 q 810 867 806 867 l 918 870 l 939 869 l 938 845 q 838 820 854 834 q 822 766 822 805 q 825 674 822 745 l 829 534 l 829 478 l 831 408 q 823 227 831 275 q 792 120 812 159 q 734 49 772 81 q 633 -3 696 18 q 508 -23 570 -23 q 368 -9 411 -23 q 244 52 290 14 q 180 128 198 90 q 157 275 157 178 l 157 321 l 155 511 l 157 665 l 157 768 q 146 823 157 807 q 124 833 138 833 l 84 833 q 27 842 39 833 q 25 853 25 848 q 29 863 25 859 q 47 868 37 868 l 65 868 l 111 869 l 218 869 l 396 871 m 584 1010 q 601 1054 584 1037 q 642 1071 618 1071 q 684 1054 667 1071 q 701 1013 701 1037 q 684 971 701 988 q 642 954 667 954 q 601 970 618 954 q 584 1010 584 987 m 351 1010 q 368 1054 351 1037 q 408 1071 385 1071 q 450 1054 432 1071 q 467 1012 467 1036 q 450 970 467 987 q 409 954 433 954 q 368 970 385 954 q 351 1010 351 987 z "},"":{"ha":564,"x_min":45,"x_max":555,"o":"m 551 92 q 555 79 555 83 q 539 43 555 69 q 492 -6 518 9 q 448 -16 476 -16 q 374 14 399 -16 q 353 77 359 31 l 277 24 q 216 -5 237 1 q 135 -14 182 -14 q 80 6 100 -14 q 60 60 60 27 q 118 172 60 106 q 273 278 175 237 q 358 315 342 307 q 359 364 359 338 q 335 481 359 450 q 267 511 311 511 q 179 475 220 511 q 141 388 154 452 q 125 350 137 370 q 79 331 96 331 q 52 340 64 331 q 45 351 45 345 q 82 430 45 368 q 177 523 120 492 q 277 554 235 554 q 364 544 336 554 q 414 507 393 533 q 441 449 436 480 q 444 342 444 434 l 441 235 l 442 156 q 441 130 442 140 q 441 100 441 110 q 454 64 441 78 q 484 51 467 51 q 528 77 510 51 l 536 87 q 551 92 540 90 m 352 112 q 357 233 357 198 q 355 283 357 252 q 258 233 309 267 q 178 157 208 200 q 156 98 156 125 q 174 54 156 71 q 219 36 192 36 q 270 51 240 36 q 352 112 309 71 m 193 667 l 277 789 q 349 866 313 842 q 382 876 364 876 q 411 866 400 876 q 422 842 422 856 q 412 815 422 829 q 367 777 403 801 l 208 667 l 200 667 l 193 667 z "},"":{"ha":564,"x_min":45,"x_max":555,"o":"m 551 92 q 555 79 555 83 q 539 43 555 69 q 492 -6 518 9 q 448 -16 476 -16 q 374 14 399 -16 q 353 77 359 31 l 277 24 q 216 -5 237 1 q 135 -14 182 -14 q 80 6 100 -14 q 60 60 60 27 q 118 172 60 106 q 273 278 175 237 q 358 315 342 307 q 359 364 359 338 q 335 481 359 450 q 267 511 311 511 q 179 475 220 511 q 141 388 154 452 q 125 350 137 370 q 79 331 96 331 q 52 340 64 331 q 45 351 45 345 q 82 430 45 368 q 177 523 120 492 q 277 554 235 554 q 364 544 336 554 q 414 507 393 533 q 441 449 436 480 q 444 342 444 434 l 441 235 l 442 156 q 441 130 442 140 q 441 100 441 110 q 454 64 441 78 q 484 51 467 51 q 528 77 510 51 l 536 87 q 551 92 540 90 m 352 112 q 357 233 357 198 q 355 283 357 252 q 258 233 309 267 q 178 157 208 200 q 156 98 156 125 q 174 54 156 71 q 219 36 192 36 q 270 51 240 36 q 352 112 309 71 m 376 667 l 365 667 q 230 758 355 673 q 159 814 170 798 q 149 842 149 830 q 159 866 149 856 q 184 877 170 877 q 238 853 209 877 q 326 741 267 829 q 352 704 342 718 q 376 667 370 681 z "},"":{"ha":564,"x_min":45,"x_max":555,"o":"m 551 92 q 555 79 555 83 q 539 43 555 69 q 492 -6 518 9 q 448 -16 476 -16 q 374 14 399 -16 q 353 77 359 31 l 277 24 q 216 -5 237 1 q 135 -14 182 -14 q 80 6 100 -14 q 60 60 60 27 q 118 172 60 106 q 273 278 175 237 q 358 315 342 307 q 359 364 359 338 q 335 481 359 450 q 267 511 311 511 q 179 475 220 511 q 141 388 154 452 q 125 350 137 370 q 79 331 96 331 q 52 340 64 331 q 45 351 45 345 q 82 430 45 368 q 177 523 120 492 q 277 554 235 554 q 364 544 336 554 q 414 507 393 533 q 441 449 436 480 q 444 342 444 434 l 441 235 l 442 156 q 441 130 442 140 q 441 100 441 110 q 454 64 441 78 q 484 51 467 51 q 528 77 510 51 l 536 87 q 551 92 540 90 m 352 112 q 357 233 357 198 q 355 283 357 252 q 258 233 309 267 q 178 157 208 200 q 156 98 156 125 q 174 54 156 71 q 219 36 192 36 q 270 51 240 36 q 352 112 309 71 m 151 682 q 280 903 243 845 l 319 903 q 373 812 326 892 l 448 683 l 446 665 q 319 789 427 684 q 292 814 308 800 q 153 663 275 794 q 151 673 151 669 l 151 682 z "},"":{"ha":564,"x_min":45,"x_max":555,"o":"m 551 92 q 555 79 555 83 q 539 43 555 69 q 492 -6 518 9 q 448 -16 476 -16 q 374 14 399 -16 q 353 77 359 31 l 277 24 q 216 -5 237 1 q 135 -14 182 -14 q 80 6 100 -14 q 60 60 60 27 q 118 172 60 106 q 273 278 175 237 q 358 315 342 307 q 359 364 359 338 q 335 481 359 450 q 267 511 311 511 q 179 475 220 511 q 141 388 154 452 q 125 350 137 370 q 79 331 96 331 q 52 340 64 331 q 45 351 45 345 q 82 430 45 368 q 177 523 120 492 q 277 554 235 554 q 364 544 336 554 q 414 507 393 533 q 441 449 436 480 q 444 342 444 434 l 441 235 l 442 156 q 441 130 442 140 q 441 100 441 110 q 454 64 441 78 q 484 51 467 51 q 528 77 510 51 l 536 87 q 551 92 540 90 m 352 112 q 357 233 357 198 q 355 283 357 252 q 258 233 309 267 q 178 157 208 200 q 156 98 156 125 q 174 54 156 71 q 219 36 192 36 q 270 51 240 36 q 352 112 309 71 m 351 773 q 368 817 351 800 q 409 833 385 833 q 450 817 433 833 q 467 775 467 800 q 450 733 467 751 q 409 716 433 716 q 368 733 385 716 q 351 773 351 750 m 117 773 q 134 817 117 800 q 175 833 151 833 q 216 816 199 833 q 234 774 234 799 q 217 733 234 750 q 176 716 199 716 q 135 733 152 716 q 117 773 117 750 z "},"":{"ha":564,"x_min":45,"x_max":555,"o":"m 551 92 q 555 79 555 83 q 539 43 555 69 q 492 -6 518 9 q 448 -16 476 -16 q 374 14 399 -16 q 353 77 359 31 l 277 24 q 216 -5 237 1 q 135 -14 182 -14 q 80 6 100 -14 q 60 60 60 27 q 118 172 60 106 q 273 278 175 237 q 358 315 342 307 q 359 364 359 338 q 335 481 359 450 q 267 511 311 511 q 179 475 220 511 q 141 388 154 452 q 125 350 137 370 q 79 331 96 331 q 52 340 64 331 q 45 351 45 345 q 82 430 45 368 q 177 523 120 492 q 277 554 235 554 q 364 544 336 554 q 414 507 393 533 q 441 449 436 480 q 444 342 444 434 l 441 235 l 442 156 q 441 130 442 140 q 441 100 441 110 q 454 64 441 78 q 484 51 467 51 q 528 77 510 51 l 536 87 q 551 92 540 90 m 352 112 q 357 233 357 198 q 355 283 357 252 q 258 233 309 267 q 178 157 208 200 q 156 98 156 125 q 174 54 156 71 q 219 36 192 36 q 270 51 240 36 q 352 112 309 71 m 455 839 l 475 839 q 475 828 475 831 q 443 735 475 770 q 363 701 411 701 q 313 711 340 701 q 258 742 296 717 q 206 773 221 768 q 168 782 185 782 q 130 766 145 782 q 107 702 115 749 l 88 702 q 87 709 87 706 q 115 797 87 755 q 199 839 142 839 q 244 831 223 839 q 306 796 266 823 q 395 757 366 757 q 432 774 416 757 q 455 839 448 791 z "},"":{"ha":564,"x_min":45,"x_max":555,"o":"m 551 92 q 555 79 555 83 q 539 43 555 69 q 492 -6 518 9 q 448 -16 476 -16 q 374 14 399 -16 q 353 77 359 31 l 277 24 q 216 -5 237 1 q 135 -14 182 -14 q 80 6 100 -14 q 60 60 60 27 q 118 172 60 106 q 273 278 175 237 q 358 315 342 307 q 359 364 359 338 q 335 481 359 450 q 267 511 311 511 q 179 475 220 511 q 141 388 154 452 q 125 350 137 370 q 79 331 96 331 q 52 340 64 331 q 45 351 45 345 q 82 430 45 368 q 177 523 120 492 q 277 554 235 554 q 364 544 336 554 q 414 507 393 533 q 441 449 436 480 q 444 342 444 434 l 441 235 l 442 156 q 441 130 442 140 q 441 100 441 110 q 454 64 441 78 q 484 51 467 51 q 528 77 510 51 l 536 87 q 551 92 540 90 m 352 112 q 357 233 357 198 q 355 283 357 252 q 258 233 309 267 q 178 157 208 200 q 156 98 156 125 q 174 54 156 71 q 219 36 192 36 q 270 51 240 36 q 352 112 309 71 m 180 742 q 212 821 180 788 q 291 854 245 854 q 370 821 337 854 q 402 743 402 789 q 369 663 402 696 q 290 631 336 631 q 212 663 245 631 q 180 742 180 696 m 290 661 q 348 685 324 661 q 372 743 372 709 q 348 800 372 776 q 291 823 324 823 q 234 800 258 823 q 210 743 210 776 q 234 685 210 709 q 290 661 257 661 z "},"":{"ha":578,"x_min":53,"x_max":543,"o":"m 542 124 l 543 80 q 438 1 490 24 q 317 -21 387 -21 q 180 19 241 -21 q 86 131 119 58 q 53 273 53 203 q 93 418 53 350 q 198 520 132 486 q 362 553 263 553 q 507 521 457 553 q 534 472 534 502 q 520 436 534 450 q 484 422 506 422 q 409 464 450 422 q 363 499 384 490 q 318 509 343 509 q 218 460 258 509 q 162 283 162 389 q 219 108 162 173 q 352 43 276 43 q 446 60 405 43 q 542 124 487 77 m 283 -119 q 308 -86 290 -108 q 374 9 334 -54 l 397 9 l 344 -75 q 397 -170 397 -116 q 362 -257 397 -222 q 277 -292 327 -292 q 217 -273 241 -292 q 194 -235 194 -254 q 203 -210 194 -222 q 220 -202 210 -202 q 256 -231 235 -202 q 299 -260 277 -260 q 332 -243 317 -260 q 347 -197 347 -225 q 331 -151 347 -172 q 283 -119 315 -130 z "},"":{"ha":578,"x_min":53,"x_max":545,"o":"m 537 358 l 265 356 l 214 356 q 150 353 182 356 q 144 326 144 333 l 144 319 l 144 312 l 144 279 q 170 177 144 237 q 244 86 196 117 q 366 52 293 54 q 427 62 404 54 q 492 96 450 69 l 541 136 l 545 109 q 545 99 545 104 q 467 31 514 60 q 372 -12 420 2 q 296 -18 349 -18 q 201 2 248 -18 q 93 98 132 32 q 53 258 53 164 q 64 335 53 288 q 104 435 75 382 q 153 494 124 471 q 224 539 193 526 q 326 557 268 557 q 429 534 389 557 q 510 456 484 504 q 537 368 537 408 l 537 358 m 159 382 l 191 382 q 397 393 225 382 q 430 399 424 395 q 442 422 442 412 q 429 470 442 443 q 387 511 415 496 q 321 526 359 526 q 195 467 243 526 q 159 382 159 422 m 223 667 l 307 789 q 380 866 344 842 q 412 876 395 876 q 441 866 431 876 q 452 842 452 856 q 443 815 452 829 q 397 777 433 801 l 238 667 l 231 667 l 223 667 z "},"":{"ha":578,"x_min":53,"x_max":545,"o":"m 537 358 l 265 356 l 214 356 q 150 353 182 356 q 144 326 144 333 l 144 319 l 144 312 l 144 279 q 170 177 144 237 q 244 86 196 117 q 366 52 293 54 q 427 62 404 54 q 492 96 450 69 l 541 136 l 545 109 q 545 99 545 104 q 467 31 514 60 q 372 -12 420 2 q 296 -18 349 -18 q 201 2 248 -18 q 93 98 132 32 q 53 258 53 164 q 64 335 53 288 q 104 435 75 382 q 153 494 124 471 q 224 539 193 526 q 326 557 268 557 q 429 534 389 557 q 510 456 484 504 q 537 368 537 408 l 537 358 m 159 382 l 191 382 q 397 393 225 382 q 430 399 424 395 q 442 422 442 412 q 429 470 442 443 q 387 511 415 496 q 321 526 359 526 q 195 467 243 526 q 159 382 159 422 m 420 667 l 409 667 q 274 758 399 673 q 203 814 214 798 q 193 842 193 830 q 203 866 193 856 q 229 877 214 877 q 282 853 253 877 q 370 741 311 829 q 396 704 386 718 q 420 667 414 681 z "},"":{"ha":578,"x_min":53,"x_max":545,"o":"m 537 358 l 265 356 l 214 356 q 150 353 182 356 q 144 326 144 333 l 144 319 l 144 312 l 144 279 q 170 177 144 237 q 244 86 196 117 q 366 52 293 54 q 427 62 404 54 q 492 96 450 69 l 541 136 l 545 109 q 545 99 545 104 q 467 31 514 60 q 372 -12 420 2 q 296 -18 349 -18 q 201 2 248 -18 q 93 98 132 32 q 53 258 53 164 q 64 335 53 288 q 104 435 75 382 q 153 494 124 471 q 224 539 193 526 q 326 557 268 557 q 429 534 389 557 q 510 456 484 504 q 537 368 537 408 l 537 358 m 159 382 l 191 382 q 397 393 225 382 q 430 399 424 395 q 442 422 442 412 q 429 470 442 443 q 387 511 415 496 q 321 526 359 526 q 195 467 243 526 q 159 382 159 422 m 157 682 q 287 903 250 845 l 326 903 q 380 812 333 892 l 455 683 l 452 665 q 326 789 433 684 q 299 814 315 800 q 159 663 282 794 q 157 673 157 669 l 157 682 z "},"":{"ha":578,"x_min":53,"x_max":545,"o":"m 537 358 l 265 356 l 214 356 q 150 353 182 356 q 144 326 144 333 l 144 319 l 144 312 l 144 279 q 170 177 144 237 q 244 86 196 117 q 366 52 293 54 q 427 62 404 54 q 492 96 450 69 l 541 136 l 545 109 q 545 99 545 104 q 467 31 514 60 q 372 -12 420 2 q 296 -18 349 -18 q 201 2 248 -18 q 93 98 132 32 q 53 258 53 164 q 64 335 53 288 q 104 435 75 382 q 153 494 124 471 q 224 539 193 526 q 326 557 268 557 q 429 534 389 557 q 510 456 484 504 q 537 368 537 408 l 537 358 m 159 382 l 191 382 q 397 393 225 382 q 430 399 424 395 q 442 422 442 412 q 429 470 442 443 q 387 511 415 496 q 321 526 359 526 q 195 467 243 526 q 159 382 159 422 m 381 773 q 398 817 381 800 q 439 833 415 833 q 481 817 464 833 q 498 775 498 800 q 481 733 498 751 q 439 716 464 716 q 398 733 416 716 q 381 773 381 750 m 148 773 q 165 817 148 800 q 205 833 182 833 q 247 816 229 833 q 264 774 264 799 q 247 733 264 750 q 206 716 230 716 q 165 733 182 716 q 148 773 148 750 z "},"":{"ha":318,"x_min":-2,"x_max":322,"o":"m 1 19 q 28 28 11 26 q 106 50 90 37 q 117 77 114 58 q 121 203 121 103 l 121 350 l 122 409 q 107 456 122 441 q 38 484 93 471 l 37 503 q 182 601 131 525 q 193 604 190 604 q 204 601 197 604 l 205 575 l 205 449 l 206 284 l 203 110 l 204 81 q 212 49 205 55 q 288 20 223 38 q 305 14 298 18 l 305 -3 l 294 -3 q 147 5 180 5 q 22 -1 69 5 q 11 -1 16 -1 q 2 2 5 -1 q -2 9 -2 5 q 1 19 -2 13 m 93 667 l 177 789 q 250 866 214 842 q 282 876 264 876 q 311 866 300 876 q 322 842 322 856 q 313 815 322 829 q 267 777 303 801 l 108 667 l 100 667 l 93 667 z "},"":{"ha":318,"x_min":-2,"x_max":305,"o":"m 1 19 q 28 28 11 26 q 106 50 90 37 q 117 77 114 58 q 121 203 121 103 l 121 350 l 122 409 q 107 456 122 441 q 38 484 93 471 l 37 503 q 182 601 131 525 q 193 604 190 604 q 204 601 197 604 l 205 575 l 205 449 l 206 284 l 203 110 l 204 81 q 212 49 205 55 q 288 20 223 38 q 305 14 298 18 l 305 -3 l 294 -3 q 147 5 180 5 q 22 -1 69 5 q 11 -1 16 -1 q 2 2 5 -1 q -2 9 -2 5 q 1 19 -2 13 m 277 667 l 265 667 q 130 758 255 673 q 60 814 71 798 q 49 842 49 830 q 60 866 49 856 q 85 877 71 877 q 138 853 109 877 q 227 741 167 829 q 252 704 242 718 q 277 667 270 681 z "},"":{"ha":318,"x_min":-2,"x_max":311,"o":"m 1 19 q 28 28 11 26 q 106 50 90 37 q 117 77 114 58 q 121 203 121 103 l 121 350 l 122 409 q 107 456 122 441 q 38 484 93 471 l 37 503 q 182 601 131 525 q 193 604 190 604 q 204 601 197 604 l 205 575 l 205 449 l 206 284 l 203 110 l 204 81 q 212 49 205 55 q 288 20 223 38 q 305 14 298 18 l 305 -3 l 294 -3 q 147 5 180 5 q 22 -1 69 5 q 11 -1 16 -1 q 2 2 5 -1 q -2 9 -2 5 q 1 19 -2 13 m 14 682 q 143 903 106 845 l 182 903 q 236 812 189 892 l 311 683 l 309 665 q 182 789 290 684 q 155 814 171 800 q 16 663 138 794 q 14 673 14 669 l 14 682 z "},"":{"ha":318,"x_min":-3,"x_max":347,"o":"m 1 19 q 28 28 11 26 q 106 50 90 37 q 117 77 114 58 q 121 203 121 103 l 121 350 l 122 409 q 107 456 122 441 q 38 484 93 471 l 37 503 q 182 601 131 525 q 193 604 190 604 q 204 601 197 604 l 205 575 l 205 449 l 206 284 l 203 110 l 204 81 q 212 49 205 55 q 288 20 223 38 q 305 14 298 18 l 305 -3 l 294 -3 q 147 5 180 5 q 22 -1 69 5 q 11 -1 16 -1 q 2 2 5 -1 q -2 9 -2 5 q 1 19 -2 13 m 231 773 q 248 817 231 800 q 289 833 264 833 q 330 817 313 833 q 347 775 347 800 q 330 733 347 751 q 289 716 313 716 q 248 733 265 716 q 231 773 231 750 m -3 773 q 14 817 -3 800 q 55 833 31 833 q 96 816 79 833 q 114 774 114 799 q 97 733 114 750 q 56 716 79 716 q 15 733 32 716 q -3 773 -3 750 z "},"":{"ha":709,"x_min":24,"x_max":694,"o":"m 26 22 q 65 30 43 26 q 116 44 108 36 q 125 81 125 52 l 126 106 q 127 140 127 119 l 125 349 q 115 403 125 391 q 47 429 96 422 l 47 454 q 123 489 96 467 q 188 572 161 519 l 211 571 q 213 526 213 539 l 213 481 l 214 469 q 233 482 222 474 q 316 532 273 513 q 392 559 359 551 q 439 564 413 564 q 535 534 495 564 q 587 464 575 505 q 599 304 599 424 l 599 201 q 598 174 599 197 q 597 121 597 151 q 601 61 597 74 q 618 43 604 52 q 694 22 684 35 l 694 17 q 690 0 694 10 l 677 0 l 588 1 l 500 -1 q 410 0 451 -2 l 406 14 q 410 25 406 18 q 462 36 429 33 q 489 40 481 37 q 507 51 496 43 q 515 78 515 67 q 514 97 515 83 q 511 252 512 128 l 511 288 l 513 342 q 477 463 513 429 q 383 496 442 496 q 294 476 338 496 q 210 416 251 456 q 209 360 209 383 l 211 210 q 214 66 211 93 q 219 52 216 56 q 241 43 224 46 q 278 33 257 39 q 307 26 300 27 q 325 12 320 22 l 324 -1 l 253 -1 l 106 1 q 42 -1 56 -1 l 25 -1 l 24 8 q 26 22 24 13 m 551 839 l 570 839 q 571 828 571 831 q 539 735 571 770 q 459 701 507 701 q 409 711 435 701 q 354 742 391 717 q 302 773 317 768 q 264 782 281 782 q 225 766 241 782 q 203 702 210 749 l 184 702 q 182 709 182 706 q 210 797 182 755 q 295 839 238 839 q 340 831 319 839 q 401 796 361 823 q 491 757 462 757 q 528 774 512 757 q 551 839 544 791 z "},"":{"ha":709,"x_min":50,"x_max":659,"o":"m 50 273 q 69 371 50 319 q 127 466 88 424 q 211 528 167 507 q 361 556 273 556 q 573 469 488 556 q 659 260 659 382 q 569 67 659 152 q 344 -18 480 -18 q 185 26 260 -18 q 90 124 130 59 q 50 273 50 189 m 349 8 q 449 36 401 8 q 525 125 496 64 q 553 267 553 186 q 531 390 553 320 q 464 495 509 460 q 356 530 418 530 q 265 509 311 530 q 186 428 218 488 q 154 258 154 368 q 210 72 154 135 q 349 8 266 8 m 288 667 l 372 789 q 445 866 409 842 q 477 876 460 876 q 507 866 496 876 q 517 842 517 856 q 508 815 517 829 q 463 777 498 801 l 303 667 l 296 667 l 288 667 z "},"":{"ha":709,"x_min":50,"x_max":659,"o":"m 50 273 q 69 371 50 319 q 127 466 88 424 q 211 528 167 507 q 361 556 273 556 q 573 469 488 556 q 659 260 659 382 q 569 67 659 152 q 344 -18 480 -18 q 185 26 260 -18 q 90 124 130 59 q 50 273 50 189 m 349 8 q 449 36 401 8 q 525 125 496 64 q 553 267 553 186 q 531 390 553 320 q 464 495 509 460 q 356 530 418 530 q 265 509 311 530 q 186 428 218 488 q 154 258 154 368 q 210 72 154 135 q 349 8 266 8 m 486 667 l 474 667 q 339 758 464 673 q 269 814 279 798 q 258 842 258 830 q 269 866 258 856 q 294 877 279 877 q 347 853 318 877 q 435 741 376 829 q 461 704 451 718 q 486 667 479 681 z "},"":{"ha":709,"x_min":50,"x_max":659,"o":"m 50 273 q 69 371 50 319 q 127 466 88 424 q 211 528 167 507 q 361 556 273 556 q 573 469 488 556 q 659 260 659 382 q 569 67 659 152 q 344 -18 480 -18 q 185 26 260 -18 q 90 124 130 59 q 50 273 50 189 m 349 8 q 449 36 401 8 q 525 125 496 64 q 553 267 553 186 q 531 390 553 320 q 464 495 509 460 q 356 530 418 530 q 265 509 311 530 q 186 428 218 488 q 154 258 154 368 q 210 72 154 135 q 349 8 266 8 m 222 682 q 352 903 315 845 l 391 903 q 445 812 398 892 l 520 683 l 517 665 q 391 789 498 684 q 364 814 380 800 q 224 663 347 794 q 222 673 222 669 l 222 682 z "},"":{"ha":709,"x_min":50,"x_max":659,"o":"m 50 273 q 69 371 50 319 q 127 466 88 424 q 211 528 167 507 q 361 556 273 556 q 573 469 488 556 q 659 260 659 382 q 569 67 659 152 q 344 -18 480 -18 q 185 26 260 -18 q 90 124 130 59 q 50 273 50 189 m 349 8 q 449 36 401 8 q 525 125 496 64 q 553 267 553 186 q 531 390 553 320 q 464 495 509 460 q 356 530 418 530 q 265 509 311 530 q 186 428 218 488 q 154 258 154 368 q 210 72 154 135 q 349 8 266 8 m 433 773 q 450 817 433 800 q 491 833 467 833 q 532 817 515 833 q 549 775 549 800 q 532 733 549 751 q 491 716 515 716 q 450 733 467 716 q 433 773 433 750 m 199 773 q 216 817 199 800 q 257 833 233 833 q 298 816 281 833 q 316 774 316 799 q 299 733 316 750 q 258 716 281 716 q 217 733 234 716 q 199 773 199 750 z "},"":{"ha":709,"x_min":50,"x_max":659,"o":"m 50 273 q 69 371 50 319 q 127 466 88 424 q 211 528 167 507 q 361 556 273 556 q 573 469 488 556 q 659 260 659 382 q 569 67 659 152 q 344 -18 480 -18 q 185 26 260 -18 q 90 124 130 59 q 50 273 50 189 m 349 8 q 449 36 401 8 q 525 125 496 64 q 553 267 553 186 q 531 390 553 320 q 464 495 509 460 q 356 530 418 530 q 265 509 311 530 q 186 428 218 488 q 154 258 154 368 q 210 72 154 135 q 349 8 266 8 m 551 839 l 570 839 q 571 828 571 831 q 539 735 571 770 q 459 701 507 701 q 409 711 435 701 q 354 742 391 717 q 302 773 317 768 q 264 782 281 782 q 225 766 241 782 q 203 702 210 749 l 184 702 q 182 709 182 706 q 210 797 182 755 q 295 839 238 839 q 340 831 319 839 q 401 796 361 823 q 491 757 462 757 q 528 774 512 757 q 551 839 544 791 z "},"":{"ha":680,"x_min":22,"x_max":672,"o":"m 22 532 l 73 532 l 96 531 l 113 532 q 200 531 183 532 l 201 518 q 198 333 201 422 q 196 273 196 280 q 204 123 196 153 q 240 76 212 94 q 310 58 269 58 q 405 78 359 58 q 481 129 450 99 q 485 186 485 155 q 487 322 485 287 q 488 359 488 343 q 477 483 488 469 q 394 505 466 497 q 359 509 370 507 q 354 523 354 518 l 356 530 q 391 532 374 532 l 498 531 q 559 532 556 532 q 574 532 567 532 l 575 482 q 570 227 570 379 l 568 172 l 571 80 q 582 67 577 69 q 615 64 590 64 l 621 64 q 671 60 630 64 q 672 47 672 51 l 672 39 q 525 0 581 20 q 487 -11 503 -7 q 484 18 484 13 l 484 73 q 483 92 484 77 q 463 77 474 85 q 349 7 409 35 q 272 -13 309 -13 q 156 40 201 -13 q 111 220 111 93 q 111 245 111 227 q 114 290 114 277 q 113 320 114 295 q 113 339 113 331 q 113 367 113 345 q 114 397 114 388 q 113 417 114 408 l 112 453 l 113 472 q 102 492 113 483 q 46 505 59 503 q 22 511 33 507 l 22 532 m 274 667 l 358 789 q 431 866 395 842 q 463 876 446 876 q 492 866 481 876 q 503 842 503 856 q 494 815 503 829 q 448 777 484 801 l 289 667 l 281 667 l 274 667 z "},"":{"ha":680,"x_min":22,"x_max":672,"o":"m 22 532 l 73 532 l 96 531 l 113 532 q 200 531 183 532 l 201 518 q 198 333 201 422 q 196 273 196 280 q 204 123 196 153 q 240 76 212 94 q 310 58 269 58 q 405 78 359 58 q 481 129 450 99 q 485 186 485 155 q 487 322 485 287 q 488 359 488 343 q 477 483 488 469 q 394 505 466 497 q 359 509 370 507 q 354 523 354 518 l 356 530 q 391 532 374 532 l 498 531 q 559 532 556 532 q 574 532 567 532 l 575 482 q 570 227 570 379 l 568 172 l 571 80 q 582 67 577 69 q 615 64 590 64 l 621 64 q 671 60 630 64 q 672 47 672 51 l 672 39 q 525 0 581 20 q 487 -11 503 -7 q 484 18 484 13 l 484 73 q 483 92 484 77 q 463 77 474 85 q 349 7 409 35 q 272 -13 309 -13 q 156 40 201 -13 q 111 220 111 93 q 111 245 111 227 q 114 290 114 277 q 113 320 114 295 q 113 339 113 331 q 113 367 113 345 q 114 397 114 388 q 113 417 114 408 l 112 453 l 113 472 q 102 492 113 483 q 46 505 59 503 q 22 511 33 507 l 22 532 m 431 667 l 419 667 q 284 758 409 673 q 214 814 224 798 q 203 842 203 830 q 214 866 203 856 q 239 877 224 877 q 292 853 263 877 q 380 741 321 829 q 406 704 396 718 q 431 667 424 681 z "},"":{"ha":680,"x_min":22,"x_max":672,"o":"m 22 532 l 73 532 l 96 531 l 113 532 q 200 531 183 532 l 201 518 q 198 333 201 422 q 196 273 196 280 q 204 123 196 153 q 240 76 212 94 q 310 58 269 58 q 405 78 359 58 q 481 129 450 99 q 485 186 485 155 q 487 322 485 287 q 488 359 488 343 q 477 483 488 469 q 394 505 466 497 q 359 509 370 507 q 354 523 354 518 l 356 530 q 391 532 374 532 l 498 531 q 559 532 556 532 q 574 532 567 532 l 575 482 q 570 227 570 379 l 568 172 l 571 80 q 582 67 577 69 q 615 64 590 64 l 621 64 q 671 60 630 64 q 672 47 672 51 l 672 39 q 525 0 581 20 q 487 -11 503 -7 q 484 18 484 13 l 484 73 q 483 92 484 77 q 463 77 474 85 q 349 7 409 35 q 272 -13 309 -13 q 156 40 201 -13 q 111 220 111 93 q 111 245 111 227 q 114 290 114 277 q 113 320 114 295 q 113 339 113 331 q 113 367 113 345 q 114 397 114 388 q 113 417 114 408 l 112 453 l 113 472 q 102 492 113 483 q 46 505 59 503 q 22 511 33 507 l 22 532 m 208 682 q 338 903 300 845 l 376 903 q 431 812 384 892 l 506 683 l 503 665 q 377 789 484 684 q 350 814 366 800 q 210 663 333 794 q 208 673 208 669 l 208 682 z "},"":{"ha":680,"x_min":22,"x_max":672,"o":"m 22 532 l 73 532 l 96 531 l 113 532 q 200 531 183 532 l 201 518 q 198 333 201 422 q 196 273 196 280 q 204 123 196 153 q 240 76 212 94 q 310 58 269 58 q 405 78 359 58 q 481 129 450 99 q 485 186 485 155 q 487 322 485 287 q 488 359 488 343 q 477 483 488 469 q 394 505 466 497 q 359 509 370 507 q 354 523 354 518 l 356 530 q 391 532 374 532 l 498 531 q 559 532 556 532 q 574 532 567 532 l 575 482 q 570 227 570 379 l 568 172 l 571 80 q 582 67 577 69 q 615 64 590 64 l 621 64 q 671 60 630 64 q 672 47 672 51 l 672 39 q 525 0 581 20 q 487 -11 503 -7 q 484 18 484 13 l 484 73 q 483 92 484 77 q 463 77 474 85 q 349 7 409 35 q 272 -13 309 -13 q 156 40 201 -13 q 111 220 111 93 q 111 245 111 227 q 114 290 114 277 q 113 320 114 295 q 113 339 113 331 q 113 367 113 345 q 114 397 114 388 q 113 417 114 408 l 112 453 l 113 472 q 102 492 113 483 q 46 505 59 503 q 22 511 33 507 l 22 532 m 398 773 q 415 817 398 800 q 456 833 432 833 q 498 817 481 833 q 515 775 515 800 q 498 733 515 751 q 456 716 481 716 q 415 733 433 716 q 398 773 398 750 m 165 773 q 182 817 165 800 q 222 833 199 833 q 264 816 246 833 q 281 774 281 799 q 264 733 281 750 q 223 716 247 716 q 182 733 199 716 q 165 773 165 750 z "},"":{"ha":593,"x_min":0,"x_max":587,"o":"m 197 528 q 241 522 205 528 q 260 520 254 520 l 269 520 l 269 528 q 265 576 269 549 q 254 692 258 629 q 251 713 252 703 q 246 750 251 722 q 241 787 243 768 l 237 831 q 235 857 235 846 q 253 886 235 872 q 284 890 273 890 q 336 882 327 890 q 349 840 349 869 q 349 823 349 833 q 347 804 347 816 q 339 742 347 785 q 334 701 336 728 l 330 676 l 330 665 l 317 536 l 317 521 l 323 520 l 366 529 l 380 529 l 424 536 l 437 538 q 559 555 522 555 q 576 547 569 555 q 583 520 582 541 q 585 507 584 516 q 587 475 587 489 q 578 449 587 458 q 553 439 569 439 q 448 452 520 439 q 315 471 412 463 l 315 463 l 318 350 q 323 296 322 319 l 323 281 l 332 183 l 344 -31 q 348 -114 347 -70 q 355 -197 349 -142 l 355 -227 l 357 -292 q 343 -327 357 -315 q 297 -338 330 -338 q 260 -338 290 -338 q 240 -323 246 -334 q 231 -285 231 -309 l 231 -281 q 233 -249 231 -277 l 244 -14 l 261 274 l 260 326 q 265 397 260 339 q 269 470 269 455 l 254 470 q 215 467 235 470 l 127 448 q 30 436 60 436 q 13 443 19 436 q 5 473 6 450 q 0 505 0 499 q 9 541 0 531 q 41 550 18 550 q 92 545 64 550 q 156 536 137 538 q 197 528 174 534 z "},"":{"ha":550,"x_min":66,"x_max":484,"o":"m 275 940 q 423 879 362 940 q 484 731 484 818 q 422 584 484 645 q 275 523 361 523 q 127 584 189 523 q 66 731 66 645 q 127 879 66 818 q 275 940 188 940 m 275 883 q 168 839 212 883 q 123 732 123 795 q 168 625 123 669 q 275 581 212 581 q 381 625 337 581 q 426 732 426 669 q 382 839 426 795 q 275 883 338 883 z "},"":{"ha":578,"x_min":54,"x_max":541,"o":"m 471 806 l 497 805 l 409 550 q 512 515 479 541 q 535 472 535 496 q 519 435 535 450 q 481 420 504 420 q 435 438 460 420 q 386 484 396 475 l 246 86 q 288 56 260 67 q 362 42 325 42 q 449 62 404 42 q 539 123 493 83 q 541 104 541 111 l 541 94 q 540 78 541 88 q 502 44 532 68 q 447 7 471 20 q 398 -10 422 -5 q 318 -21 345 -21 q 216 -1 260 -21 q 166 -138 199 -41 q 132 -235 142 -212 l 106 -233 q 181 -14 113 -208 q 190 12 187 2 q 87 128 121 56 q 54 270 54 200 q 135 471 54 389 q 348 553 216 553 q 381 552 359 553 l 471 806 m 222 106 l 363 499 q 318 509 338 509 q 216 456 258 509 q 161 279 161 388 q 222 106 161 182 z "},"":{"ha":795,"x_min":41,"x_max":821,"o":"m 136 -186 q 146 -178 142 -181 q 173 -158 165 -166 l 198 -66 q 220 20 216 -5 q 239 97 224 39 q 58 105 146 105 q 54 121 54 115 l 55 129 q 81 132 70 132 l 105 132 q 247 134 199 132 l 286 299 q 347 503 301 353 q 357 532 354 524 q 372 574 367 556 q 457 742 397 660 q 576 856 517 825 q 703 880 621 880 q 795 861 769 880 q 821 821 821 842 q 809 785 821 799 q 781 772 798 772 q 760 777 770 772 q 724 806 751 781 q 682 838 697 831 q 637 849 659 849 q 594 842 610 849 q 556 808 579 835 q 505 729 532 782 q 469 644 486 693 q 431 504 441 558 q 422 469 427 487 l 372 279 l 354 208 q 338 140 345 179 q 515 132 482 136 q 508 110 513 122 q 503 97 506 106 l 357 95 q 323 93 338 95 l 294 20 q 209 -150 275 -27 q 228 -142 219 -146 q 247 -134 237 -138 l 252 -132 q 323 -120 310 -120 q 358 -125 338 -120 q 395 -139 378 -130 l 476 -193 q 547 -245 492 -202 l 578 -269 q 593 -275 583 -273 l 608 -275 q 674 -238 640 -275 q 707 -167 707 -202 q 692 -116 707 -145 q 677 -77 677 -86 q 690 -43 677 -59 q 717 -33 701 -33 q 747 -40 736 -33 q 768 -69 760 -50 q 776 -96 776 -88 q 766 -157 776 -111 q 729 -225 748 -203 q 640 -297 686 -274 q 541 -321 593 -321 q 489 -312 507 -321 q 430 -267 471 -304 q 325 -186 363 -206 q 253 -167 287 -167 q 232 -170 243 -167 q 208 -180 220 -174 q 184 -207 190 -198 q 168 -241 179 -215 q 122 -303 153 -280 q 73 -327 92 -327 q 49 -317 60 -327 q 41 -296 41 -309 q 52 -259 41 -279 q 91 -217 64 -239 q 136 -186 119 -194 z "},"":{"ha":593,"x_min":79,"x_max":513,"o":"m 414 762 l 345 812 q 304 831 326 823 q 264 838 283 838 q 222 818 241 838 q 203 764 203 798 q 208 720 203 741 q 221 686 212 703 l 269 593 l 355 454 q 436 303 395 389 q 492 166 477 216 q 505 103 503 129 q 509 66 506 85 q 513 -6 513 26 q 492 -151 513 -77 q 450 -237 478 -199 q 383 -297 421 -274 q 303 -328 345 -319 q 237 -338 249 -338 q 155 -325 203 -338 q 104 -299 118 -315 q 91 -251 91 -282 q 104 -206 91 -220 q 138 -191 117 -191 q 176 -208 153 -191 q 197 -221 182 -212 q 218 -235 205 -226 q 312 -281 282 -281 q 360 -259 339 -281 q 380 -201 380 -237 q 365 -123 380 -163 q 296 -2 350 -84 q 186 183 295 1 q 123 317 149 245 q 94 418 96 389 l 79 568 q 92 671 79 630 q 157 806 123 762 q 238 871 191 850 q 363 891 286 891 q 469 865 435 891 q 504 815 504 839 q 488 768 504 785 q 450 751 472 751 q 414 762 437 751 m 413 -229 q 471 -38 471 -174 q 456 97 471 19 q 423 205 446 151 q 345 359 412 233 q 205 606 252 504 q 162 756 182 658 q 121 564 121 685 q 129 485 121 525 q 152 400 136 444 l 175 330 l 232 212 q 257 166 245 183 l 321 58 q 380 -50 369 -24 q 418 -137 412 -121 q 413 -229 413 -220 z "},"":{"ha":492,"x_min":76,"x_max":416,"o":"m 246 629 q 367 579 317 629 q 416 459 416 530 q 367 339 416 389 q 246 289 317 289 q 126 339 176 289 q 76 459 76 389 q 125 579 76 530 q 246 629 175 629 z "},"":{"ha":622,"x_min":-9,"x_max":631,"o":"m 541 882 l 541 -300 l 492 -300 l 492 882 l 366 882 l 366 -300 l 316 -300 l 316 408 q 122 442 186 413 q 24 531 58 471 q -9 665 -9 591 q 20 787 -9 740 q 124 886 59 852 q 296 920 190 920 l 631 920 l 631 882 l 541 882 z "},"":{"ha":694,"x_min":10,"x_max":652,"o":"m 11 -7 l 10 16 q 62 28 35 23 q 104 38 89 33 q 107 182 107 61 q 106 212 107 195 q 104 233 104 229 l 106 266 q 102 531 106 385 q 102 566 102 550 q 104 618 102 596 q 106 647 106 634 q 148 782 119 736 q 236 861 176 829 q 368 894 296 894 q 491 863 430 894 q 579 786 553 833 q 605 688 605 739 q 583 611 605 650 q 517 545 562 572 q 418 506 472 518 q 406 501 410 504 l 404 498 l 405 494 q 456 470 430 480 q 577 399 532 439 q 640 309 622 358 q 652 198 652 273 q 625 99 652 157 q 547 10 597 41 q 444 -22 496 -22 q 379 -1 406 -22 q 361 33 361 13 q 372 59 361 48 q 402 72 382 71 q 424 65 416 70 q 448 45 432 61 q 490 22 470 22 q 511 30 503 22 q 534 87 524 43 q 549 205 549 145 q 534 317 549 275 q 479 403 519 359 q 391 465 452 434 q 355 499 355 483 q 360 512 355 507 q 393 528 365 517 q 481 589 456 554 q 506 680 506 623 q 467 815 506 772 q 361 858 428 858 q 295 848 324 858 q 247 819 265 838 q 207 760 229 801 q 191 707 195 739 q 186 638 186 661 l 191 445 q 191 341 191 422 l 189 252 l 193 136 q 192 114 193 125 q 191 66 191 77 q 195 47 191 58 q 239 36 205 43 q 298 18 272 28 q 300 7 300 11 l 298 -3 q 75 -5 132 -3 q 33 -7 47 -7 l 11 -7 z "},"":{"ha":1056,"x_min":47,"x_max":1009,"o":"m 528 941 q 764 879 649 941 q 944 701 880 817 q 1009 460 1009 585 q 945 220 1009 335 q 767 42 882 106 q 528 -21 652 -21 q 289 42 403 -21 q 111 220 174 106 q 47 460 47 335 q 112 701 47 585 q 292 879 176 817 q 528 941 407 941 m 528 899 q 312 842 417 899 q 148 680 207 785 q 89 460 89 574 q 147 241 89 346 q 309 79 205 137 q 528 20 414 20 q 746 79 642 20 q 909 241 851 137 q 967 460 967 346 q 908 680 967 574 q 744 842 849 785 q 528 899 639 899 m 262 755 l 524 755 q 673 711 622 755 q 725 604 725 667 q 690 513 725 552 q 574 453 655 474 l 716 251 q 762 201 742 215 q 798 191 775 193 l 798 169 l 673 169 l 474 444 l 422 444 l 422 234 q 442 201 427 212 q 503 191 457 191 l 503 169 l 254 169 l 254 191 q 301 200 288 191 q 321 227 315 209 q 324 285 324 235 l 324 640 q 322 699 324 690 q 305 723 317 714 q 262 731 292 731 l 262 755 m 422 473 l 443 473 q 574 508 533 473 q 616 596 616 543 q 577 688 616 651 q 479 726 539 726 q 422 715 454 726 l 422 473 z "},"":{"ha":1056,"x_min":47,"x_max":1009,"o":"m 528 941 q 764 879 649 941 q 944 701 880 817 q 1009 460 1009 585 q 945 220 1009 335 q 767 42 882 106 q 528 -21 652 -21 q 289 42 403 -21 q 111 220 174 106 q 47 460 47 335 q 112 701 47 585 q 292 879 176 817 q 528 941 407 941 m 528 899 q 312 842 417 899 q 148 680 207 785 q 89 460 89 574 q 147 241 89 346 q 309 79 205 137 q 528 20 414 20 q 746 79 642 20 q 909 241 851 137 q 967 460 967 346 q 908 680 967 574 q 744 842 849 785 q 528 899 639 899 m 766 769 l 779 579 l 753 579 q 675 700 728 660 q 547 739 622 739 q 448 716 492 739 q 377 654 405 693 q 343 577 357 625 q 330 475 330 529 q 391 263 330 332 q 554 195 453 195 q 766 305 686 195 l 791 292 q 531 155 696 155 q 306 242 395 155 q 217 456 217 330 q 312 678 217 586 q 555 770 407 770 q 607 766 586 770 q 680 744 627 762 q 705 739 697 739 q 724 744 716 739 q 739 769 731 750 l 766 769 z "},"":{"ha":1360,"x_min":20,"x_max":1338,"o":"m 35 920 l 528 920 l 543 783 l 520 783 q 485 856 513 832 q 389 879 456 879 l 338 879 l 338 486 q 351 414 338 429 q 410 397 365 399 l 410 372 l 156 372 l 156 397 q 212 415 200 401 q 224 486 224 430 l 224 879 l 172 879 q 81 858 108 879 q 43 783 54 836 l 20 783 l 35 920 m 784 920 l 969 532 l 1149 920 l 1338 920 l 1338 895 q 1276 877 1290 893 q 1263 803 1263 861 l 1263 486 q 1276 414 1263 428 q 1338 397 1289 399 l 1338 372 l 1068 372 l 1068 397 q 1122 405 1108 397 q 1142 427 1136 412 q 1149 485 1149 441 l 1149 819 l 941 372 l 919 372 l 710 812 l 710 486 q 713 431 710 442 q 732 405 720 414 q 773 397 745 397 l 798 397 l 798 372 l 590 372 l 590 397 q 641 404 628 397 q 661 425 654 410 q 667 486 667 439 l 667 802 q 653 878 667 862 q 590 895 640 895 l 590 920 l 784 920 z "},"":{"ha":463,"x_min":165,"x_max":395,"o":"m 165 667 l 250 789 q 322 866 286 842 q 355 876 337 876 q 384 866 373 876 q 395 842 395 856 q 385 815 395 829 q 340 777 376 801 l 180 667 l 173 667 l 165 667 z "},"":{"ha":463,"x_min":90,"x_max":440,"o":"m 323 773 q 340 817 323 800 q 382 833 357 833 q 423 817 406 833 q 440 775 440 800 q 423 733 440 751 q 382 716 406 716 q 341 733 358 716 q 323 773 323 750 m 90 773 q 107 817 90 800 q 148 833 124 833 q 189 816 172 833 q 207 774 207 799 q 190 733 207 750 q 149 716 172 716 q 107 733 125 716 q 90 773 90 750 z "},"":{"ha":926,"x_min":100,"x_max":827,"o":"m 100 619 l 508 619 l 650 981 l 701 981 l 562 619 l 827 619 l 827 559 l 537 559 l 439 305 l 827 305 l 827 245 l 416 245 l 273 -115 l 221 -115 l 363 245 l 100 245 l 100 305 l 387 305 l 486 559 l 100 559 l 100 619 z "},"":{"ha":1186,"x_min":-86,"x_max":1151,"o":"m 437 837 q 382 842 423 839 l 308 846 q 296 863 298 849 q 304 868 300 868 q 377 872 330 872 q 388 871 382 872 q 460 869 437 869 l 693 869 l 701 867 q 717 867 705 867 l 892 868 q 1059 862 1009 868 q 1064 742 1064 835 q 1061 672 1064 702 l 1045 673 q 1027 714 1039 685 q 968 821 996 797 q 916 836 951 834 q 737 840 771 840 q 675 838 699 840 q 642 830 651 836 q 637 715 637 757 q 640 616 637 699 l 644 459 q 697 463 682 463 l 830 465 l 869 464 q 909 467 884 464 q 946 591 937 524 l 955 591 q 966 591 958 591 q 967 538 967 553 q 965 472 967 520 q 962 408 962 423 q 964 340 962 398 l 966 279 l 956 279 q 941 279 951 279 q 921 395 930 373 q 899 424 911 418 q 800 432 880 432 q 644 427 703 432 l 644 389 q 646 87 644 146 q 657 41 648 49 q 775 29 673 29 q 981 43 935 29 q 1046 89 1015 54 q 1131 236 1077 124 l 1151 237 q 1135 117 1149 206 q 1112 -5 1121 27 q 1101 -7 1105 -7 q 1046 -3 1086 -7 l 998 1 l 700 -3 l 362 -7 l 361 10 q 454 25 392 20 q 524 43 516 30 q 532 258 532 56 q 528 424 532 355 q 382 427 484 427 q 267 419 323 427 q 258 405 262 414 q 173 220 220 318 q 106 51 106 80 q 110 41 106 45 q 123 37 113 38 q 173 31 142 34 q 251 15 216 26 q 257 2 257 7 l 254 -6 q 72 3 151 3 q -52 -3 -41 -3 q -83 3 -71 -3 q -86 8 -86 5 q -81 15 -86 12 q -61 20 -75 20 q 18 38 -19 22 q 42 58 31 44 q 162 283 68 92 l 363 681 l 437 837 m 291 454 l 509 459 l 528 459 l 529 480 l 528 665 q 530 701 528 673 q 532 772 532 741 q 525 827 532 817 q 497 836 517 836 q 481 831 488 836 q 414 713 469 821 q 293 469 300 485 q 290 460 290 463 l 291 454 z "},"":{"ha":1085,"x_min":64,"x_max":1019,"o":"m 235 80 q 148 170 168 142 q 86 288 103 233 q 64 437 64 361 q 84 569 64 507 q 139 678 100 614 q 236 783 178 741 q 395 857 294 825 q 560 876 456 876 q 834 798 702 876 l 924 905 q 952 882 937 897 l 863 774 q 1019 442 1019 640 q 1001 294 1019 353 q 943 177 984 235 q 834 74 911 132 q 706 11 783 35 q 541 -14 629 -14 q 264 58 378 -14 l 181 -42 l 153 -19 l 235 80 m 284 138 l 791 747 q 542 851 687 851 q 421 831 480 851 q 324 779 362 810 q 254 689 286 747 q 204 562 221 631 q 187 438 187 492 q 210 288 187 369 q 284 138 233 208 m 816 718 l 308 110 q 397 42 355 62 q 539 12 465 12 q 654 28 592 12 q 764 82 717 45 q 837 166 810 119 q 879 286 863 213 q 895 433 895 359 q 871 604 895 518 q 816 718 853 669 z "},"":{"ha":984,"x_min":33,"x_max":951,"o":"m 440 528 q 541 675 486 634 q 691 715 596 715 q 876 637 800 715 q 951 433 951 558 q 878 229 951 309 q 714 149 804 149 q 605 186 654 149 q 486 342 555 223 q 391 221 442 258 q 266 184 339 184 q 101 254 168 184 q 33 435 33 324 q 96 614 33 546 q 241 683 158 683 q 348 651 304 683 q 440 528 391 618 m 505 391 q 603 251 553 290 q 717 212 652 212 q 856 272 800 212 q 912 433 912 332 q 853 598 912 533 q 721 663 794 663 q 639 639 674 663 q 576 563 604 615 q 505 391 559 532 m 420 476 q 345 586 387 551 q 239 621 302 621 q 119 571 168 621 q 71 435 71 520 q 118 291 71 345 q 227 237 166 237 q 340 295 291 237 q 420 476 372 333 z "},"":{"ha":926,"x_min":98,"x_max":827,"o":"m 98 583 l 432 583 l 432 918 l 492 918 l 492 583 l 827 583 l 827 523 l 492 523 l 492 189 l 432 189 l 432 523 l 98 523 l 98 583 m 98 35 l 827 35 l 827 -25 l 98 -25 l 98 35 z "},"":{"ha":926,"x_min":99,"x_max":827,"o":"m 826 250 l 100 559 l 100 612 l 826 920 l 826 854 l 178 586 l 826 316 l 826 250 m 99 33 l 827 33 l 827 -28 l 99 -28 l 99 33 z "},"":{"ha":926,"x_min":99,"x_max":827,"o":"m 100 920 l 826 611 l 826 557 l 100 250 l 100 315 l 747 584 l 100 854 l 100 920 m 99 33 l 827 33 l 827 -28 l 99 -28 l 99 33 z "},"":{"ha":911,"x_min":-14,"x_max":923,"o":"m 411 234 l 412 264 q 408 341 412 328 q 387 383 405 354 q 90 381 190 383 l 90 408 q 368 412 131 410 l 327 475 q 289 532 307 507 l 138 753 q 69 830 98 810 q 5 844 56 839 q -12 845 -1 844 l -14 874 l 19 874 q 96 872 37 874 q 250 868 189 868 l 329 869 q 361 867 346 869 q 366 855 366 861 l 366 848 l 349 840 l 342 840 l 304 839 l 284 840 q 247 829 261 840 q 236 814 236 822 q 245 791 236 805 q 256 775 249 786 q 292 722 270 752 q 360 616 324 677 q 390 569 374 591 l 493 413 q 521 451 503 426 l 618 591 l 731 760 q 749 794 746 783 q 750 806 750 800 q 737 829 750 820 q 646 850 716 843 q 633 852 642 850 q 629 865 629 860 q 629 874 629 869 l 665 875 l 792 871 l 895 873 q 923 873 899 873 l 921 849 q 906 847 916 848 l 890 845 q 877 844 886 844 q 854 833 863 838 q 689 639 755 727 q 567 463 623 551 q 532 413 557 449 l 715 410 l 795 411 q 821 408 808 411 l 821 381 q 579 384 667 382 l 520 385 q 513 300 513 338 l 514 234 q 821 233 728 234 l 821 206 q 661 203 714 203 l 514 204 q 528 43 515 58 q 672 19 538 33 l 672 11 q 667 -9 672 3 l 494 -1 l 378 -7 l 283 -7 q 253 -7 269 -7 q 250 4 250 1 q 252 14 250 7 q 262 18 257 18 l 349 32 q 399 52 393 46 q 409 70 406 57 q 411 152 411 80 l 411 205 l 90 206 l 90 233 q 130 231 126 231 l 411 234 z "},"":{"ha":694,"x_min":32,"x_max":690,"o":"m 74 532 l 165 532 l 165 208 q 187 98 165 129 q 279 55 216 55 q 350 73 315 55 q 450 152 385 90 l 450 532 l 540 532 l 540 190 q 555 69 540 93 q 597 45 571 45 q 632 60 617 45 q 661 136 647 76 l 690 136 q 657 28 684 62 q 559 -22 618 -22 q 487 8 515 -22 q 450 111 458 37 q 336 14 391 46 q 232 -19 281 -19 q 157 2 186 -19 q 108 64 127 22 l 108 37 q 113 -100 108 -43 q 126 -157 115 -115 q 141 -235 141 -212 q 125 -282 141 -264 q 87 -300 109 -300 q 49 -282 66 -300 q 32 -236 32 -264 q 46 -161 32 -215 q 60 -97 57 -121 q 71 40 68 -31 l 74 244 l 74 532 z "},"":{"ha":680,"x_min":41,"x_max":672,"o":"m 627 486 q 635 612 635 563 q 571 801 635 734 q 401 868 507 868 q 281 841 329 868 q 197 760 234 814 l 165 760 q 278 916 218 867 q 424 964 338 964 q 543 931 485 964 q 636 824 601 898 q 672 624 672 750 q 568 193 672 384 q 271 -21 450 -21 q 103 40 165 -21 q 41 206 41 101 q 72 362 41 286 q 152 491 104 438 q 259 575 200 544 q 415 616 336 616 q 516 594 471 616 q 590 543 561 573 q 627 486 608 524 m 616 426 q 537 540 589 501 q 421 578 484 578 q 301 536 360 578 q 199 389 242 494 q 155 178 155 283 q 193 59 155 101 q 288 18 230 18 q 458 106 371 18 q 616 426 568 218 z "},"":{"ha":990,"x_min":29,"x_max":963,"o":"m 920 -358 l 29 -358 l 29 -334 l 484 277 l 29 882 l 29 908 l 896 908 l 914 680 l 887 680 q 834 813 876 772 q 718 853 793 853 l 216 853 l 597 338 l 171 -239 l 726 -239 q 829 -220 773 -239 q 893 -175 868 -208 q 936 -72 919 -142 l 963 -77 l 920 -358 z "},"":{"ha":1143,"x_min":31,"x_max":1112,"o":"m 841 854 l 302 854 l 302 -228 q 327 -309 302 -284 q 412 -333 352 -333 l 436 -333 l 436 -358 l 31 -358 l 31 -333 l 55 -333 q 140 -309 115 -333 q 165 -228 165 -284 l 165 777 q 140 858 165 833 q 55 882 115 882 l 31 882 l 31 908 l 1112 908 l 1112 882 l 1088 882 q 1004 858 1029 882 q 979 777 979 834 l 979 -228 q 1004 -309 979 -284 q 1088 -333 1029 -333 l 1112 -333 l 1112 -358 l 707 -358 l 707 -333 l 731 -333 q 816 -309 791 -333 q 841 -228 841 -284 l 841 854 z "},"":{"ha":376,"x_min":-2,"x_max":378,"o":"m 134 607 l 146 1002 q 164 1128 150 1073 q 198 1211 178 1183 q 240 1247 212 1232 q 293 1263 267 1263 q 352 1241 327 1263 q 378 1191 378 1218 q 360 1140 378 1159 q 315 1120 342 1120 q 264 1145 292 1120 q 237 1158 248 1158 q 217 1148 225 1158 q 210 1115 210 1139 q 216 1017 210 1087 q 241 567 241 738 q 231 212 241 519 q 218 36 228 98 q 182 -83 204 -47 q 135 -134 161 -119 q 78 -149 109 -149 q 20 -126 43 -149 q -2 -67 -2 -103 q 15 -18 -2 -37 q 59 0 33 0 q 106 -22 86 0 q 139 -43 125 -43 q 158 -34 151 -43 q 165 -2 165 -24 q 159 79 165 26 q 142 309 148 176 q 134 607 134 477 z "},"":{"ha":361,"x_min":18,"x_max":367,"o":"m 363 595 l 367 587 q 355 564 367 584 q 321 532 342 545 q 285 525 309 525 q 241 537 258 525 q 220 574 224 550 q 148 534 179 545 q 83 526 125 526 q 43 540 58 526 q 28 574 28 554 q 45 619 28 596 q 115 682 71 656 q 221 730 142 699 q 222 758 222 743 q 209 824 222 806 q 174 842 195 842 q 120 822 144 842 q 96 770 105 810 q 88 751 94 760 l 85 747 q 48 733 62 733 q 24 739 33 733 q 18 751 18 744 q 41 798 18 761 q 104 855 64 834 q 185 876 143 876 q 257 859 233 876 q 290 816 281 842 q 293 749 293 804 q 292 680 293 734 l 292 637 q 292 616 292 627 q 291 598 291 605 q 297 580 291 587 q 312 574 303 574 q 333 587 321 574 q 347 600 340 596 l 363 595 m 217 607 q 220 692 220 671 l 220 701 q 106 598 106 650 q 116 574 106 584 q 138 565 125 565 q 172 575 153 565 q 217 607 192 586 z "},"":{"ha":463,"x_min":25,"x_max":437,"o":"m 25 697 q 82 824 25 771 q 236 876 138 876 q 381 822 324 876 q 437 694 437 767 q 378 576 437 629 q 224 523 319 523 q 81 576 137 523 q 25 697 25 629 m 226 547 q 317 587 281 547 q 353 699 353 626 q 339 771 353 730 q 298 831 325 811 q 232 852 271 852 q 143 813 176 852 q 109 694 109 775 q 143 585 109 623 q 226 547 176 547 z "},"":{"ha":1027,"x_min":39,"x_max":988,"o":"m 39 212 l 63 212 q 98 141 66 163 q 174 126 118 126 l 357 126 l 357 172 q 175 270 259 191 q 62 541 62 375 q 188 824 62 707 q 516 941 314 941 q 842 825 718 941 q 966 543 966 710 q 889 309 966 407 q 670 172 812 211 l 670 126 l 857 126 q 935 145 910 126 q 964 212 960 164 l 988 212 l 988 0 l 609 0 l 624 205 q 751 307 703 230 q 799 528 799 383 q 714 795 799 701 q 513 890 630 890 q 374 850 439 890 q 269 728 309 810 q 229 538 229 645 q 248 386 229 459 q 304 270 267 312 q 402 205 342 228 l 418 0 l 39 0 l 39 212 z "},"":{"ha":810,"x_min":50,"x_max":779,"o":"m 416 479 q 490 531 442 507 q 579 555 538 555 q 716 499 661 555 q 772 360 772 444 l 490 363 q 431 359 457 363 q 428 244 428 338 q 447 138 428 176 q 514 68 467 100 q 595 47 545 47 q 670 61 637 47 q 746 109 703 74 l 772 131 q 779 111 779 121 q 777 90 779 102 q 709 29 747 58 q 625 -9 681 9 q 535 -20 589 -20 q 446 4 496 -20 q 350 92 397 28 q 269 25 282 35 q 199 -12 235 1 q 144 -22 172 -22 q 85 1 109 -22 q 60 51 60 24 q 70 109 60 83 q 97 158 79 135 q 145 202 115 180 q 260 271 161 214 q 341 314 302 296 l 345 345 l 345 406 q 314 493 345 457 q 250 519 292 519 q 189 494 216 519 q 151 419 161 469 q 129 352 140 369 q 103 335 123 343 l 71 323 q 56 329 62 323 q 50 346 50 336 q 74 412 50 362 q 130 492 98 461 q 198 538 162 522 q 268 554 233 554 q 350 536 317 554 q 416 479 384 519 m 435 392 q 458 390 454 390 l 511 392 q 549 391 520 392 q 616 390 577 390 q 666 399 653 390 q 679 422 679 408 q 647 492 679 460 q 572 524 614 524 q 476 481 519 524 q 434 397 434 438 l 435 392 m 341 134 q 342 154 342 151 l 341 216 l 341 261 q 340 281 341 264 q 245 229 304 267 q 169 164 186 191 q 151 108 151 137 q 170 61 151 81 q 215 41 189 41 q 255 55 232 41 q 316 101 279 68 q 341 134 332 115 z "},"":{"ha":709,"x_min":53,"x_max":662,"o":"m 538 505 q 599 573 555 521 q 618 555 612 564 l 562 487 l 624 407 q 653 332 642 377 q 662 239 662 298 q 644 170 662 222 q 606 106 635 146 q 537 39 576 67 q 448 -4 498 10 q 351 -18 397 -18 q 259 -6 296 -18 q 173 36 222 5 q 151 10 161 23 q 114 -33 140 -3 q 94 -16 105 -26 l 96 -13 q 151 52 144 41 q 76 155 100 104 q 53 269 53 206 q 82 397 53 341 q 153 488 111 452 q 245 540 196 524 q 374 555 294 555 q 453 546 421 555 q 538 505 494 533 m 191 104 l 500 458 q 465 495 488 478 q 417 520 443 513 q 361 531 382 531 q 276 513 324 531 q 216 470 245 501 q 173 386 188 438 q 157 246 157 334 q 191 104 157 163 m 430 26 q 528 125 490 47 q 557 277 550 170 l 545 354 q 536 385 540 368 q 527 415 530 409 q 513 431 524 421 l 210 77 q 269 27 233 45 q 349 9 305 9 q 430 26 385 9 z "},"":{"ha":507,"x_min":22,"x_max":420,"o":"m 336 427 q 322 425 328 425 q 277 447 298 425 q 256 498 256 469 q 275 549 256 530 q 325 567 294 567 q 376 543 351 567 q 393 497 393 526 q 378 452 393 472 q 336 427 368 440 m 313 333 l 340 333 l 345 323 q 360 176 354 248 q 364 139 361 166 q 365 125 365 130 q 357 109 365 113 q 271 98 338 99 q 228 93 260 96 q 164 81 185 89 q 109 48 134 71 q 84 9 97 37 q 71 -56 71 -18 q 79 -106 71 -80 q 108 -170 93 -148 q 147 -213 123 -193 q 193 -245 157 -221 q 242 -258 224 -258 q 295 -252 252 -258 l 311 -248 q 372 -237 346 -237 q 406 -251 391 -237 q 420 -284 420 -264 q 410 -316 420 -304 q 372 -334 399 -328 q 326 -340 345 -340 q 244 -322 294 -340 q 137 -252 194 -304 q 51 -132 79 -200 q 22 8 22 -64 q 36 68 22 31 q 62 116 41 83 q 98 156 75 137 q 146 180 116 170 q 219 195 165 186 q 281 208 273 203 q 303 231 296 216 q 313 310 313 251 l 313 333 z "},"":{"ha":304,"x_min":82,"x_max":221,"o":"m 82 494 q 108 547 82 517 q 149 567 126 567 q 195 547 176 567 q 221 497 221 520 q 210 462 221 484 q 184 436 202 446 q 149 427 167 427 q 103 448 123 427 q 82 494 82 469 m 141 354 q 151 355 147 355 q 166 353 156 355 q 170 252 167 337 l 174 150 q 174 143 174 146 q 187 -8 182 65 q 212 -203 191 -82 q 214 -249 214 -239 l 214 -275 q 196 -317 212 -300 q 159 -334 180 -334 q 112 -315 131 -334 q 93 -267 93 -296 q 95 -237 93 -254 l 98 -203 l 99 -194 l 125 51 l 137 290 q 141 354 138 332 z "},"":{"ha":926,"x_min":99,"x_max":827,"o":"m 99 641 l 827 641 l 827 250 l 768 250 l 768 581 l 99 581 l 99 641 z "},"":{"ha":767,"x_min":59,"x_max":764,"o":"m 714 1267 l 764 1267 l 553 -53 l 216 640 l 82 578 l 59 621 l 263 724 l 538 165 l 714 1267 z "},"":{"ha":854,"x_min":-1,"x_max":855,"o":"m 17 -260 q 38 -254 31 -254 q 78 -286 60 -254 q 93 -308 85 -299 q 130 -325 110 -325 q 200 -292 158 -325 q 266 -185 235 -255 q 321 -36 297 -116 l 387 193 q 399 239 393 214 l 444 399 q 472 485 463 460 q 453 486 459 486 q 432 485 449 486 q 352 484 415 484 q 356 517 354 503 q 387 519 370 519 l 485 523 q 553 710 515 623 q 621 815 576 762 q 701 880 654 855 q 759 892 724 892 q 829 868 802 892 q 855 820 855 845 q 844 792 855 804 q 820 780 833 780 q 788 791 802 780 q 768 827 774 803 q 755 852 764 845 q 732 859 747 859 q 709 854 719 859 q 663 812 688 843 q 625 747 645 790 q 582 623 605 703 q 555 524 558 543 l 573 522 l 636 524 q 659 522 642 524 q 659 513 659 516 q 655 488 659 503 l 543 484 l 521 408 l 464 203 q 456 176 459 186 q 441 128 444 144 l 391 -33 q 325 -186 357 -125 q 243 -294 292 -246 q 167 -345 207 -329 q 100 -356 141 -356 q 21 -338 43 -356 q -1 -295 -1 -320 q 17 -260 -1 -271 z "},"":{"ha":926,"x_min":100,"x_max":827,"o":"m 794 697 l 827 697 q 776 554 825 606 q 658 502 728 502 q 588 512 625 502 q 404 584 552 523 q 256 627 300 627 q 177 597 209 627 q 132 503 144 568 l 100 503 q 151 649 104 600 q 262 699 198 699 q 327 689 294 699 q 509 620 395 669 q 670 571 623 571 q 754 604 720 571 q 794 697 788 636 m 794 361 l 827 361 q 776 218 825 270 q 658 166 728 166 q 588 177 625 166 q 404 248 552 187 q 256 290 300 290 q 177 261 209 290 q 132 167 144 232 l 100 167 q 151 313 104 263 q 262 362 198 362 q 326 353 294 362 q 510 284 395 333 q 670 235 624 235 q 754 268 720 235 q 794 361 788 300 z "},"":{"ha":854,"x_min":20,"x_max":833,"o":"m 833 0 l 20 0 l 446 941 l 833 0 m 673 56 l 403 711 l 104 56 l 673 56 z "},"":{"ha":507,"x_min":8,"x_max":508,"o":"m 254 272 q 324 370 286 320 q 416 486 347 400 q 465 541 439 514 l 507 543 q 484 503 502 532 q 357 275 437 429 q 382 231 363 263 q 425 154 408 189 q 452 108 431 142 q 481 54 461 94 q 508 10 503 20 l 472 7 l 254 272 m 218 542 l 258 541 q 188 415 224 483 l 113 275 q 196 131 134 229 l 233 68 q 266 8 256 30 l 232 7 q 212 31 223 16 q 92 172 197 52 q 54 218 64 204 q 36 240 44 232 q 8 273 13 263 q 68 355 47 328 q 176 492 136 444 q 218 542 207 530 z "},"":{"ha":507,"x_min":1,"x_max":501,"o":"m 1 7 q 102 182 52 89 q 153 274 134 241 q 126 320 148 283 q 93 378 104 357 q 62 434 83 399 q 28 496 47 458 q 1 542 7 528 l 39 542 l 100 467 q 239 296 155 401 l 255 274 q 193 190 212 215 l 92 66 q 39 7 68 36 l 1 7 m 246 542 l 277 542 l 319 489 l 433 359 q 461 321 447 341 q 501 274 494 283 l 375 113 q 288 7 311 31 l 246 7 q 268 43 252 18 l 330 154 q 391 262 366 216 q 396 274 392 265 q 336 383 376 316 q 246 542 296 450 z "},"":{"ha":1389,"x_min":159,"x_max":1230,"o":"m 1085 60 q 1106 113 1085 92 q 1158 134 1127 134 q 1209 112 1188 134 q 1230 61 1230 91 q 1209 9 1230 31 q 1158 -12 1188 -12 q 1106 9 1128 -12 q 1085 60 1085 31 m 231 134 q 284 112 262 134 q 305 61 305 91 q 283 10 305 31 q 231 -12 262 -12 q 180 10 201 -12 q 159 61 159 31 q 180 112 159 91 q 231 134 201 134 m 625 60 q 646 112 625 90 q 697 133 667 133 q 749 112 728 133 q 770 60 770 90 q 749 8 770 30 q 697 -13 727 -13 q 646 9 667 -13 q 625 60 625 31 z "},"":{"ha":347,"x_min":0,"x_max":0,"o":""},"":{"ha":941,"x_min":-10,"x_max":930,"o":"m -7 22 q 9 27 2 27 l 25 27 q 41 28 30 27 q 103 37 94 33 q 144 82 127 50 q 223 278 179 151 q 250 351 244 338 q 282 437 267 392 l 346 615 q 418 808 361 657 q 452 909 432 846 l 472 911 l 496 910 q 547 786 525 852 q 587 681 559 751 l 690 402 l 745 251 q 802 93 789 122 q 827 54 816 63 q 853 45 831 51 q 884 37 875 40 q 927 22 915 28 q 930 11 930 15 q 928 1 930 7 q 897 0 906 0 q 775 2 863 0 l 707 4 l 625 3 q 609 4 617 3 q 594 5 600 5 l 579 5 q 566 9 572 5 q 569 27 566 18 q 584 32 577 31 l 655 37 q 697 44 683 38 q 701 62 701 56 q 684 125 701 75 q 662 190 671 159 q 590 391 653 220 q 541 395 562 395 l 396 394 l 353 395 q 302 391 330 395 q 291 362 294 371 l 231 176 q 193 58 193 69 q 199 38 193 52 q 237 31 214 34 l 330 22 q 337 12 337 16 q 335 1 337 8 q 288 1 304 1 q 162 4 234 1 q 115 5 129 5 q 65 4 100 5 q 32 3 42 3 q -10 5 16 3 l -10 9 q -7 22 -10 14 m 316 429 q 481 425 389 425 q 574 428 534 425 q 559 477 568 454 q 510 608 515 595 l 448 764 l 441 777 q 412 707 437 768 q 349 542 368 601 q 331 489 340 515 q 319 453 321 463 q 312 431 317 442 l 316 429 m 574 954 l 563 953 q 428 1044 553 960 q 357 1100 368 1084 q 347 1128 347 1116 q 357 1153 347 1142 q 382 1163 368 1163 q 436 1139 407 1163 q 524 1027 465 1116 q 550 990 540 1004 q 574 954 568 967 z "},"":{"ha":941,"x_min":-10,"x_max":930,"o":"m -7 22 q 9 27 2 27 l 25 27 q 41 28 30 27 q 103 37 94 33 q 144 82 127 50 q 223 278 179 151 q 250 351 244 338 q 282 437 267 392 l 346 615 q 418 808 361 657 q 452 909 432 846 l 472 911 l 496 910 q 547 786 525 852 q 587 681 559 751 l 690 402 l 745 251 q 802 93 789 122 q 827 54 816 63 q 853 45 831 51 q 884 37 875 40 q 927 22 915 28 q 930 11 930 15 q 928 1 930 7 q 897 0 906 0 q 775 2 863 0 l 707 4 l 625 3 q 609 4 617 3 q 594 5 600 5 l 579 5 q 566 9 572 5 q 569 27 566 18 q 584 32 577 31 l 655 37 q 697 44 683 38 q 701 62 701 56 q 684 125 701 75 q 662 190 671 159 q 590 391 653 220 q 541 395 562 395 l 396 394 l 353 395 q 302 391 330 395 q 291 362 294 371 l 231 176 q 193 58 193 69 q 199 38 193 52 q 237 31 214 34 l 330 22 q 337 12 337 16 q 335 1 337 8 q 288 1 304 1 q 162 4 234 1 q 115 5 129 5 q 65 4 100 5 q 32 3 42 3 q -10 5 16 3 l -10 9 q -7 22 -10 14 m 316 429 q 481 425 389 425 q 574 428 534 425 q 559 477 568 454 q 510 608 515 595 l 448 764 l 441 777 q 412 707 437 768 q 349 542 368 601 q 331 489 340 515 q 319 453 321 463 q 312 431 317 442 l 316 429 m 667 1090 l 686 1090 q 687 1080 687 1083 q 655 987 687 1021 q 575 952 623 952 q 525 962 551 952 q 470 994 507 968 q 418 1025 433 1019 q 380 1034 397 1034 q 341 1017 357 1034 q 319 954 326 1001 l 300 954 q 298 961 298 958 q 326 1048 298 1006 q 411 1090 354 1090 q 456 1082 435 1090 q 517 1048 477 1074 q 607 1008 578 1008 q 644 1025 628 1008 q 667 1090 660 1042 z "},"":{"ha":1085,"x_min":64,"x_max":1019,"o":"m 64 433 q 80 556 64 503 q 136 673 97 610 q 231 779 176 736 q 385 854 287 821 q 560 876 454 876 q 700 857 631 876 q 823 804 768 838 q 935 700 879 770 q 993 595 973 651 q 1019 442 1019 521 q 1001 294 1019 353 q 943 177 984 235 q 834 74 911 132 q 706 11 783 35 q 541 -14 629 -14 q 380 7 450 -14 q 262 59 309 28 q 165 148 215 89 q 90 278 115 207 q 64 433 64 349 m 534 12 q 653 27 591 12 q 762 80 714 43 q 836 164 809 117 q 879 286 863 212 q 895 433 895 359 q 868 616 895 526 q 800 738 847 684 q 685 822 752 792 q 542 851 618 851 q 421 831 480 851 q 324 779 362 810 q 254 689 286 747 q 204 562 221 631 q 187 438 187 492 q 204 311 187 382 q 251 187 221 239 q 323 95 280 135 q 420 33 366 54 q 534 12 473 12 m 739 1090 l 759 1090 q 760 1080 760 1083 q 727 987 760 1021 q 648 952 695 952 q 597 962 624 952 q 543 994 580 968 q 490 1025 505 1019 q 452 1034 469 1034 q 414 1017 429 1034 q 391 954 399 1001 l 372 954 q 371 961 371 958 q 399 1048 371 1006 q 484 1090 427 1090 q 529 1082 507 1090 q 590 1048 550 1074 q 680 1008 650 1008 q 716 1025 701 1008 q 739 1090 732 1042 z "},"":{"ha":1302,"x_min":64,"x_max":1263,"o":"m 1209 865 q 1213 800 1210 860 q 1215 700 1215 715 l 1215 680 l 1196 680 q 1131 820 1139 810 q 1088 833 1119 833 q 1051 835 1074 833 q 964 839 994 839 q 806 824 829 839 q 792 765 792 814 l 792 586 l 791 490 l 793 469 q 818 464 806 464 l 991 465 q 1022 464 1002 465 q 1042 463 1034 463 q 1093 487 1074 463 q 1124 603 1112 510 l 1135 603 q 1149 604 1139 603 l 1149 589 q 1148 555 1149 581 q 1145 420 1146 530 l 1143 273 l 1119 278 q 1108 374 1114 347 q 1090 413 1102 401 q 1061 431 1078 426 l 1013 433 q 985 434 1006 434 q 949 435 971 435 q 903 437 917 437 q 795 431 840 437 q 792 237 792 325 q 799 66 792 90 q 819 42 804 50 q 926 31 844 31 q 1074 36 1030 31 q 1122 49 1097 39 q 1134 54 1126 51 q 1191 110 1167 77 q 1247 227 1206 130 l 1263 227 q 1256 142 1263 204 q 1244 52 1249 79 q 1238 18 1238 25 q 1232 -4 1237 6 q 1211 -5 1218 -5 q 1183 -3 1202 -5 q 1145 -1 1154 -1 l 876 3 l 788 3 l 671 3 q 503 -10 610 4 l 459 -12 q 351 7 407 -12 q 232 65 276 31 q 139 159 174 109 q 84 275 104 210 q 64 405 64 339 q 99 596 64 507 q 197 752 134 685 q 329 846 261 819 q 467 874 397 874 q 557 873 536 874 q 641 863 570 871 l 827 861 l 1058 867 q 1120 867 1086 867 q 1209 865 1168 867 m 484 16 q 615 52 559 16 q 671 130 658 79 q 681 346 681 163 q 675 746 681 706 q 632 812 670 785 q 501 848 580 848 q 402 833 444 848 q 314 781 361 818 q 255 704 282 755 q 213 568 229 652 q 205 456 205 527 q 217 270 205 319 q 281 122 235 187 q 371 45 315 75 q 484 16 427 16 z "},"":{"ha":969,"x_min":53,"x_max":925,"o":"m 523 479 q 541 493 531 485 q 701 556 618 556 q 851 496 785 556 q 925 349 916 435 q 856 346 896 346 q 718 351 774 346 l 573 349 q 570 258 570 328 q 585 122 570 161 q 637 59 601 83 q 719 37 680 37 q 880 97 806 37 l 904 116 l 914 100 l 914 96 q 911 86 914 91 q 877 52 907 79 q 827 13 848 25 q 754 -14 793 -6 q 689 -22 716 -22 q 601 -3 642 -22 q 511 63 559 17 q 410 -4 448 12 q 315 -20 372 -20 q 131 62 210 -20 q 53 256 53 144 q 71 367 53 307 q 98 429 82 407 q 164 502 134 477 q 222 532 185 519 q 338 556 286 556 q 523 479 447 556 m 157 284 q 215 64 157 138 q 333 12 256 12 q 429 52 391 12 q 486 258 486 113 q 440 461 486 395 q 318 527 395 527 q 203 471 250 527 q 157 284 157 416 m 579 385 q 656 383 615 383 q 789 387 758 383 q 812 402 802 389 q 823 431 823 416 q 806 476 823 452 q 764 511 789 500 q 698 526 729 526 q 646 511 674 526 q 602 468 618 495 q 581 412 585 440 l 578 397 l 577 391 l 579 385 z "},"":{"ha":694,"x_min":-8,"x_max":703,"o":"m -8 297 l 703 297 l 703 234 l -8 234 l -8 297 z "},"":{"ha":1389,"x_min":-8,"x_max":1397,"o":"m -8 297 l 1397 297 l 1397 234 l -8 234 l -8 297 z "},"":{"ha":622,"x_min":60,"x_max":582,"o":"m 258 882 q 263 864 263 870 q 260 853 263 861 q 184 809 201 823 q 131 751 148 781 q 119 709 119 731 q 130 675 119 688 q 146 665 137 665 q 181 667 150 665 q 189 668 184 668 q 230 652 214 668 q 246 611 246 636 q 225 565 246 585 q 177 546 205 546 q 122 560 149 546 q 78 606 95 574 q 60 668 60 637 q 85 759 60 713 q 149 829 111 806 q 258 882 214 869 m 581 881 q 582 866 582 873 q 579 852 582 861 q 471 778 503 817 q 439 706 439 739 q 443 685 439 695 q 455 667 447 675 q 471 663 466 663 q 489 667 474 663 q 507 669 497 669 q 550 654 534 669 q 565 614 565 640 q 546 565 565 585 q 497 545 526 545 q 415 579 448 545 q 382 676 382 613 q 414 770 382 722 q 493 845 446 818 q 578 882 559 882 l 581 881 z "},"":{"ha":622,"x_min":49,"x_max":573,"o":"m 378 581 l 456 638 q 492 684 479 660 q 505 734 505 708 q 496 767 505 755 q 480 775 490 775 q 468 774 475 775 q 439 774 454 774 q 417 778 427 774 q 398 789 407 781 q 385 831 385 810 q 402 876 385 859 q 448 893 420 893 q 537 859 502 893 q 573 774 573 824 q 555 693 573 732 q 483 609 537 654 q 385 550 449 581 l 378 581 m 49 581 q 158 677 127 635 q 176 732 176 701 q 166 766 176 753 q 150 777 159 777 q 121 772 146 777 q 111 771 116 771 q 72 788 87 771 q 56 829 56 804 q 74 873 56 855 q 127 892 93 892 q 211 858 176 892 q 245 771 245 823 q 224 691 245 734 q 153 609 204 649 q 56 550 102 568 l 49 581 z "},"":{"ha":304,"x_min":71,"x_max":277,"o":"m 273 884 q 277 867 277 873 l 275 858 q 248 844 265 852 q 162 780 191 819 q 134 709 134 741 q 144 681 134 692 q 168 669 154 669 q 177 669 172 669 q 211 673 207 673 q 247 656 230 673 q 263 616 263 639 q 240 568 263 589 q 180 547 216 547 q 111 581 141 547 q 71 676 71 627 q 87 741 71 703 q 142 819 102 780 q 222 870 173 848 q 268 886 256 886 l 273 884 z "},"":{"ha":304,"x_min":69,"x_max":269,"o":"m 73 547 l 69 578 q 137 619 113 599 q 188 686 161 640 q 197 720 197 703 q 186 755 197 741 q 165 768 176 768 l 122 766 q 89 783 104 766 q 73 821 73 800 q 90 860 73 846 q 143 884 117 884 q 232 848 195 884 q 269 762 269 812 q 193 614 269 681 q 73 547 117 548 z "},"":{"ha":762,"x_min":16,"x_max":747,"o":"m 381 729 q 423 712 406 729 q 440 670 440 694 q 423 628 440 646 q 380 611 406 611 q 339 628 356 611 q 321 670 321 646 q 339 712 321 694 q 381 729 356 729 m 747 434 l 16 434 l 16 490 l 747 490 l 747 434 m 381 309 q 424 291 406 309 q 441 249 441 273 q 423 207 441 224 q 381 189 406 189 q 339 207 357 189 q 321 249 321 224 q 339 291 321 273 q 381 309 356 309 z "},"":{"ha":686,"x_min":32,"x_max":656,"o":"m 372 964 l 656 481 l 372 0 l 297 0 l 32 481 l 297 964 l 372 964 m 336 899 l 105 481 l 336 64 l 579 481 l 336 899 z "},"":{"ha":578,"x_min":5,"x_max":597,"o":"m 8 534 q 33 536 23 536 l 66 536 l 110 537 l 168 535 l 214 536 q 281 532 252 536 q 284 521 284 525 l 283 515 q 239 506 269 509 q 179 491 197 503 l 178 484 q 183 463 178 477 q 192 439 186 455 q 256 245 207 389 q 323 66 292 141 q 366 170 342 107 l 424 330 q 453 436 443 383 q 457 469 457 457 q 448 488 457 479 q 413 503 439 497 q 361 518 365 515 q 356 532 357 522 q 366 537 360 535 l 408 537 l 453 536 l 521 537 l 564 536 l 575 537 q 591 536 580 537 q 597 525 597 532 q 591 513 597 518 l 578 511 q 517 490 538 505 q 498 456 506 482 q 489 432 495 447 q 479 405 486 424 q 463 360 473 386 l 454 341 l 454 338 l 338 34 l 254 -195 q 235 -237 246 -212 q 205 -290 210 -285 q 170 -325 184 -315 l 135 -340 q 113 -342 125 -342 q 68 -329 83 -342 q 54 -293 54 -316 q 75 -254 54 -271 q 89 -248 82 -252 l 98 -246 q 173 -257 158 -257 q 194 -239 187 -250 q 251 -129 227 -190 q 275 -47 275 -68 q 257 20 275 -24 l 182 220 q 89 472 166 258 q 77 492 84 486 l 31 509 l 16 512 q 5 526 5 517 l 8 534 m 368 773 q 385 817 368 800 q 426 833 401 833 q 467 817 450 833 q 484 775 484 800 q 467 733 484 751 q 426 716 450 716 q 385 733 402 716 q 368 773 368 750 m 134 773 q 151 817 134 800 q 192 833 168 833 q 233 816 216 833 q 251 774 251 799 q 234 733 251 750 q 193 716 216 716 q 152 733 169 716 q 134 773 134 750 z "},"":{"ha":911,"x_min":-14,"x_max":923,"o":"m -14 874 l 19 874 q 96 872 37 874 q 250 868 189 868 l 329 869 q 361 867 346 869 q 366 855 366 861 l 366 848 l 349 840 l 342 840 l 304 839 l 284 840 q 247 829 261 840 q 236 814 236 822 q 245 791 236 805 q 256 775 249 786 q 292 722 270 752 q 360 616 324 677 q 390 569 374 591 l 493 413 q 521 451 503 426 l 618 591 l 731 760 q 749 794 746 783 q 750 806 750 800 q 737 829 750 820 q 646 850 716 843 q 633 852 642 850 q 629 865 629 860 q 629 874 629 869 l 665 875 l 792 871 l 895 873 q 923 873 899 873 l 921 849 q 906 847 916 848 l 890 845 q 877 844 886 844 q 854 832 863 838 q 685 633 755 727 q 567 463 615 540 q 542 426 551 438 q 521 392 524 403 q 513 312 513 366 q 521 63 513 101 q 532 40 525 44 q 672 19 549 31 l 672 11 q 667 -9 672 3 l 494 -1 l 378 -7 l 283 -7 q 253 -7 269 -7 q 250 4 250 1 q 252 14 250 7 q 262 18 257 18 l 349 32 q 400 52 395 47 q 410 77 408 60 q 411 266 411 90 q 407 346 411 332 q 378 397 402 361 l 289 532 l 138 753 q 69 830 98 810 q 5 844 56 839 q -12 845 -1 844 l -14 874 m 548 1010 q 565 1054 548 1037 q 606 1071 582 1071 q 648 1054 631 1071 q 665 1013 665 1037 q 648 971 665 988 q 606 954 631 954 q 565 970 583 954 q 548 1010 548 987 m 315 1010 q 332 1054 315 1037 q 372 1071 349 1071 q 414 1054 396 1071 q 431 1012 431 1036 q 414 970 431 987 q 373 954 397 954 q 332 970 349 954 q 315 1010 315 987 z "},"":{"ha":260,"x_min":-193,"x_max":437,"o":"m -193 -45 q -179 -20 -187 -33 q -157 14 -170 -8 q -107 90 -153 21 q -45 186 -61 159 q 395 884 259 701 l 401 885 q 437 883 433 883 l 141 418 l 6 195 l -150 -44 l -155 -44 q -187 -45 -158 -44 l -193 -45 z "},"":{"ha":651,"x_min":-18,"x_max":631,"o":"m 199 524 l 274 527 l 395 524 l 429 524 l 473 522 l 494 522 l 493 511 q 486 496 492 511 q 482 488 484 490 l 421 488 l 196 486 l 196 482 q 195 429 195 468 l 195 386 l 208 386 l 334 389 q 401 387 378 389 q 429 385 412 385 q 471 383 449 385 l 469 374 q 460 350 462 361 l 325 347 l 298 347 l 243 346 q 196 347 218 346 l 196 343 q 219 208 196 304 q 297 62 243 112 q 415 12 351 12 q 612 196 555 12 q 619 199 618 199 q 631 195 624 199 q 620 121 629 167 l 602 21 q 571 7 588 18 q 553 -3 562 1 q 507 -12 545 -6 q 464 -18 468 -18 q 325 -3 376 -18 q 204 62 273 13 q 99 207 135 112 q 64 349 64 302 l 64 353 q 21 354 39 353 q -14 357 -4 357 q -18 374 -18 368 l -17 382 q 11 385 7 385 l 61 385 l 60 418 l 64 490 q 0 493 10 490 q -14 494 -7 494 q -18 511 -18 505 l -17 519 q 11 522 7 522 l 68 522 l 69 526 q 142 713 86 625 q 269 846 199 802 q 450 889 339 889 l 472 889 q 523 880 486 889 q 611 827 561 871 q 615 724 615 751 q 614 693 615 707 l 600 692 q 589 693 594 692 q 530 815 572 772 q 433 859 489 859 q 385 851 408 859 q 339 828 361 843 q 299 792 318 813 q 265 743 281 770 q 236 682 249 715 q 214 610 223 648 l 199 524 z "},"":{"ha":275,"x_min":9,"x_max":264,"o":"m 198 514 q 212 530 205 520 q 224 547 216 536 q 234 546 231 546 q 248 547 241 546 l 256 547 q 264 545 260 547 l 186 404 l 117 277 l 148 221 q 245 45 207 109 q 262 9 257 26 l 224 9 l 161 91 q 71 205 107 157 q 54 226 59 220 l 29 252 q 9 276 14 269 q 28 300 16 286 q 73 356 35 308 q 106 405 95 385 q 140 445 118 417 l 152 457 l 198 514 z "},"":{"ha":275,"x_min":12,"x_max":265,"o":"m 12 20 l 98 172 q 115 204 106 190 q 157 277 123 218 l 92 398 l 56 468 q 25 522 43 493 q 12 547 18 534 l 49 550 q 70 523 58 540 q 104 482 83 507 q 146 430 126 458 l 265 277 q 225 232 256 264 q 212 217 215 222 l 62 33 q 45 11 52 19 l 12 11 l 12 20 z "},"":{"ha":752,"x_min":60,"x_max":723,"o":"m 62 19 q 100 27 76 22 q 153 54 139 35 q 163 124 163 67 q 161 419 163 370 q 144 420 153 420 q 123 420 138 420 q 77 418 86 418 l 66 418 q 65 431 65 427 q 66 441 65 434 q 77 447 71 446 q 139 474 121 460 q 155 499 149 481 q 163 544 159 507 q 207 727 176 663 q 274 823 237 790 q 394 892 334 874 q 500 911 454 911 q 573 904 536 911 q 622 886 610 898 q 634 852 634 874 q 620 819 634 832 q 578 805 606 805 q 501 831 547 805 q 413 857 455 857 q 287 782 328 857 q 245 524 245 707 q 247 486 245 506 l 265 486 q 337 484 286 486 q 395 482 389 482 q 431 484 412 482 q 465 486 451 486 q 533 502 505 487 q 596 562 561 517 q 614 584 608 576 l 623 585 l 628 584 q 632 560 632 571 l 631 510 l 632 405 l 631 246 l 631 182 q 631 158 631 178 q 630 129 630 138 q 631 101 630 121 l 630 68 q 639 47 630 54 q 706 26 643 43 q 722 22 711 25 l 723 1 q 709 1 714 1 l 680 1 l 499 -1 l 433 1 l 433 20 q 471 28 447 25 q 534 49 518 35 q 545 77 545 58 q 543 444 545 327 l 515 445 q 408 442 460 445 l 268 439 q 246 437 258 439 l 245 415 l 246 210 l 243 104 q 248 53 243 62 q 263 40 252 45 q 334 22 269 37 q 353 19 345 21 q 358 4 358 10 l 358 1 l 60 1 l 62 19 z "},"":{"ha":752,"x_min":63,"x_max":713,"o":"m 70 20 q 131 25 117 22 q 159 40 145 28 q 166 79 167 57 l 165 123 l 165 256 q 162 410 165 349 q 153 441 162 432 q 123 444 132 444 l 83 446 q 67 451 79 446 q 73 470 69 466 q 99 481 79 476 q 147 503 137 492 l 151 515 q 157 550 153 526 q 206 721 169 637 q 302 848 243 805 q 436 892 361 892 q 490 885 462 892 q 549 865 518 878 l 593 903 q 606 906 602 906 q 614 902 610 906 q 616 514 616 844 q 614 425 616 467 q 613 382 613 392 q 615 313 613 373 l 614 246 q 616 92 614 205 l 616 67 q 622 40 616 53 q 676 22 643 24 q 708 20 695 22 q 713 -1 713 14 l 435 -3 q 432 6 432 3 q 443 22 432 12 q 503 32 483 26 q 524 45 511 35 q 532 127 532 58 l 532 215 q 530 328 532 235 l 531 374 q 527 458 531 408 q 512 463 519 462 q 427 463 509 463 l 345 462 l 321 463 q 250 454 277 463 q 244 418 244 448 q 248 288 244 378 l 249 252 q 248 207 249 244 q 246 176 246 187 q 256 58 246 106 q 276 35 263 42 q 341 18 288 28 q 348 -1 348 10 l 65 -3 l 63 8 q 70 20 63 14 m 243 506 l 260 504 l 334 506 q 373 504 338 506 l 431 504 q 469 505 465 505 l 497 505 q 526 511 509 505 q 530 593 530 552 l 530 773 q 528 784 530 781 q 494 812 525 789 q 454 841 464 836 q 407 851 433 851 q 338 830 372 851 q 292 791 305 810 q 257 704 273 764 q 241 568 241 644 q 243 506 241 528 z "},"":{"ha":593,"x_min":21,"x_max":572,"o":"m 49 57 l 62 57 q 115 50 85 55 l 251 24 q 281 20 270 21 q 258 203 280 41 l 249 270 q 252 294 249 275 q 257 330 254 304 q 259 350 258 342 q 265 400 263 374 l 271 429 l 280 536 q 250 531 269 536 q 214 524 231 526 q 170 515 192 520 q 62 498 84 498 q 32 508 40 498 q 23 556 23 517 q 30 593 23 585 q 53 601 37 601 q 87 600 77 601 q 280 569 256 570 q 274 602 275 598 l 264 697 l 250 815 q 248 850 248 830 q 257 879 248 872 q 304 893 274 893 q 343 883 333 893 q 353 846 353 873 q 350 788 353 827 l 342 747 l 333 693 q 321 609 327 655 q 318 570 319 594 q 337 568 331 568 q 361 570 348 568 l 485 594 q 545 603 537 603 q 561 601 549 603 q 570 589 569 594 q 572 554 572 585 q 563 508 572 521 q 545 498 556 498 q 467 510 510 498 q 409 525 425 522 q 315 536 385 530 l 326 441 l 343 279 q 340 249 342 265 q 321 85 324 137 q 319 55 320 62 q 317 27 317 32 l 317 18 q 418 39 355 23 q 493 54 440 45 q 530 58 523 58 q 553 56 538 58 q 572 14 572 36 q 566 -37 572 -28 q 539 -43 561 -43 q 464 -37 503 -43 q 361 -15 437 -33 q 336 -12 342 -13 q 317 -9 326 -10 l 323 -69 q 329 -126 326 -104 q 334 -168 333 -148 q 352 -266 352 -256 q 346 -319 352 -311 q 313 -334 333 -334 l 269 -330 q 249 -323 254 -328 q 244 -303 244 -319 q 258 -208 244 -279 l 268 -91 l 280 -12 q 232 -15 254 -12 q 179 -22 199 -18 l 113 -39 q 55 -47 71 -47 q 31 -37 41 -47 q 21 -9 21 -27 l 22 31 q 49 57 25 47 z "},"":{"ha":304,"x_min":81,"x_max":222,"o":"m 81 416 q 103 469 81 446 q 155 491 125 491 q 203 470 183 491 q 222 416 222 449 q 202 363 222 385 q 152 342 181 342 q 102 364 123 342 q 81 416 81 386 z "},"":{"ha":304,"x_min":63,"x_max":262,"o":"m 66 -241 l 63 -210 q 160 -139 130 -178 q 191 -66 191 -100 q 180 -33 191 -47 q 159 -20 170 -20 l 116 -22 q 82 -5 98 -22 q 66 33 66 12 q 83 71 66 57 q 137 96 111 96 q 225 60 189 96 q 262 -27 262 24 q 180 -182 262 -113 q 66 -241 121 -233 z "},"":{"ha":622,"x_min":44,"x_max":564,"o":"m 45 -239 l 44 -216 q 147 -150 126 -174 q 182 -79 182 -110 q 170 -45 182 -59 q 117 -19 159 -33 q 65 6 75 -6 q 54 40 54 18 q 73 83 54 66 q 122 100 91 100 q 179 86 157 100 q 236 28 220 62 q 252 -44 252 -5 q 203 -154 252 -98 q 45 -239 155 -209 m 361 -240 l 361 -216 q 494 -81 494 -152 q 473 -36 494 -53 q 418 -16 461 -26 q 378 1 389 -10 q 368 33 368 13 q 386 81 368 63 q 440 98 404 98 q 473 94 459 98 q 517 69 498 85 q 551 23 537 53 q 564 -41 564 -6 q 541 -123 564 -80 q 481 -191 517 -167 q 361 -240 453 -210 z "},"":{"ha":1418,"x_min":50,"x_max":1372,"o":"m 166 -45 q 181 -20 172 -33 q 201 14 189 -8 q 252 90 206 21 q 315 186 298 159 q 753 884 618 701 l 760 885 q 796 883 792 883 l 500 418 l 366 195 l 210 -44 l 204 -44 q 172 -45 201 -44 l 166 -45 m 395 647 q 341 476 395 540 q 221 413 288 413 q 101 474 153 413 q 50 640 50 534 q 76 777 50 713 q 137 854 96 825 q 224 884 178 884 q 314 853 272 884 q 380 760 355 822 q 395 647 395 719 m 319 634 q 314 765 319 734 q 281 838 304 817 q 224 860 258 860 q 153 821 179 860 q 127 631 127 782 q 154 475 127 513 q 220 437 180 437 q 290 469 267 437 q 319 634 319 512 m 932 223 q 878 53 932 116 q 758 -10 824 -10 q 638 51 690 -10 q 586 216 586 111 q 613 354 586 290 q 673 431 633 401 q 761 461 714 461 q 850 430 808 461 q 916 336 892 399 q 932 223 932 296 m 856 211 q 850 341 856 311 q 818 415 841 393 q 761 436 795 436 q 690 397 715 436 q 664 208 664 359 q 690 51 664 89 q 757 13 717 13 q 826 45 803 13 q 856 211 856 88 m 1372 223 q 1318 53 1372 116 q 1197 -10 1263 -10 q 1078 51 1130 -10 q 1026 216 1026 111 q 1053 354 1026 290 q 1113 431 1072 401 q 1201 461 1154 461 q 1290 430 1248 461 q 1356 336 1332 399 q 1372 223 1372 296 m 1296 211 q 1290 341 1296 311 q 1257 415 1280 393 q 1200 436 1234 436 q 1129 397 1156 436 q 1103 208 1103 359 q 1130 51 1103 89 q 1197 13 1156 13 q 1265 45 1242 13 q 1296 211 1296 88 z "},"":{"ha":941,"x_min":-10,"x_max":930,"o":"m -7 22 q 9 27 2 27 l 25 27 q 41 28 30 27 q 103 37 94 33 q 144 82 127 50 q 223 278 179 151 q 250 351 244 338 q 282 437 267 392 l 346 615 q 418 808 361 657 q 452 909 432 846 l 472 911 l 496 910 q 547 786 525 852 q 587 681 559 751 l 690 402 l 745 251 q 802 93 789 122 q 827 54 816 63 q 853 45 831 51 q 884 37 875 40 q 927 22 915 28 q 930 11 930 15 q 928 1 930 7 q 897 0 906 0 q 775 2 863 0 l 707 4 l 625 3 q 609 4 617 3 q 594 5 600 5 l 579 5 q 566 9 572 5 q 569 27 566 18 q 584 32 577 31 l 655 37 q 697 44 683 38 q 701 62 701 56 q 684 125 701 75 q 662 190 671 159 q 590 391 653 220 q 541 395 562 395 l 396 394 l 353 395 q 302 391 330 395 q 291 362 294 371 l 231 176 q 193 58 193 69 q 199 38 193 52 q 237 31 214 34 l 330 22 q 337 12 337 16 q 335 1 337 8 q 288 1 304 1 q 162 4 234 1 q 115 5 129 5 q 65 4 100 5 q 32 3 42 3 q -10 5 16 3 l -10 9 q -7 22 -10 14 m 316 429 q 481 425 389 425 q 574 428 534 425 q 559 477 568 454 q 510 608 515 595 l 448 764 l 441 777 q 412 707 437 768 q 349 542 368 601 q 331 489 340 515 q 319 453 321 463 q 312 431 317 442 l 316 429 m 325 973 q 454 1194 417 1136 l 493 1194 q 547 1103 500 1183 l 623 974 l 620 956 q 494 1080 601 975 q 467 1105 482 1091 q 327 954 450 1085 q 325 964 325 960 l 325 973 z "},"":{"ha":911,"x_min":33,"x_max":879,"o":"m 34 11 q 45 18 41 17 q 85 24 57 22 q 166 36 151 28 q 176 74 176 50 l 175 121 l 176 294 l 174 375 l 175 545 l 172 739 q 163 817 171 808 q 90 831 151 829 q 45 836 64 832 q 36 848 36 840 q 39 861 36 853 q 50 864 45 864 q 73 863 60 864 q 156 860 113 860 l 206 861 l 326 859 q 465 861 415 859 q 533 863 515 863 q 610 860 549 863 l 707 861 l 718 859 l 774 861 l 781 857 q 786 846 785 852 q 783 817 786 836 q 780 792 780 797 q 785 673 780 722 q 781 667 784 669 q 767 669 773 667 q 747 715 760 682 q 709 790 734 747 q 683 824 692 819 q 644 829 673 829 q 582 831 637 829 q 553 831 567 831 l 359 827 l 342 827 q 298 818 305 827 q 286 722 286 802 q 290 559 286 714 l 290 465 q 306 463 297 463 l 317 463 q 351 463 329 463 q 399 461 387 461 q 413 462 407 461 q 602 465 486 465 q 644 479 637 471 q 659 543 654 491 q 682 601 664 594 q 698 597 690 601 q 699 587 699 592 q 698 572 699 583 q 694 414 694 547 q 698 336 694 379 q 702 289 702 292 q 700 273 702 283 q 691 270 694 270 l 686 270 q 665 329 675 289 q 628 415 648 397 q 566 432 609 432 q 531 431 556 432 q 456 430 506 430 l 412 430 q 289 426 318 430 l 288 404 l 289 279 l 288 200 l 289 123 q 298 43 290 54 q 348 28 309 28 l 389 29 q 432 28 395 29 q 523 27 469 27 q 697 38 654 27 q 769 78 741 50 q 840 201 797 106 q 865 229 852 229 q 879 223 871 229 q 857 135 859 156 q 848 38 849 87 q 837 1 848 16 l 822 1 l 631 -1 l 546 -1 l 342 -3 l 260 -3 q 231 -4 244 -3 q 51 -9 109 -9 q 37 -6 41 -9 q 33 4 33 -3 l 34 11 m 324 973 q 454 1194 416 1136 l 492 1194 q 547 1103 500 1183 l 622 974 l 619 956 q 493 1080 600 975 q 466 1105 481 1091 q 326 954 449 1085 q 324 964 324 960 l 324 973 z "},"":{"ha":941,"x_min":-10,"x_max":930,"o":"m -7 22 q 9 27 2 27 l 25 27 q 41 28 30 27 q 103 37 94 33 q 144 82 127 50 q 223 278 179 151 q 250 351 244 338 q 282 437 267 392 l 346 615 q 418 808 361 657 q 452 909 432 846 l 472 911 l 496 910 q 547 786 525 852 q 587 681 559 751 l 690 402 l 745 251 q 802 93 789 122 q 827 54 816 63 q 853 45 831 51 q 884 37 875 40 q 927 22 915 28 q 930 11 930 15 q 928 1 930 7 q 897 0 906 0 q 775 2 863 0 l 707 4 l 625 3 q 609 4 617 3 q 594 5 600 5 l 579 5 q 566 9 572 5 q 569 27 566 18 q 584 32 577 31 l 655 37 q 697 44 683 38 q 701 62 701 56 q 684 125 701 75 q 662 190 671 159 q 590 391 653 220 q 541 395 562 395 l 396 394 l 353 395 q 302 391 330 395 q 291 362 294 371 l 231 176 q 193 58 193 69 q 199 38 193 52 q 237 31 214 34 l 330 22 q 337 12 337 16 q 335 1 337 8 q 288 1 304 1 q 162 4 234 1 q 115 5 129 5 q 65 4 100 5 q 32 3 42 3 q -10 5 16 3 l -10 9 q -7 22 -10 14 m 316 429 q 481 425 389 425 q 574 428 534 425 q 559 477 568 454 q 510 608 515 595 l 448 764 l 441 777 q 412 707 437 768 q 349 542 368 601 q 331 489 340 515 q 319 453 321 463 q 312 431 317 442 l 316 429 m 404 954 l 488 1075 q 561 1152 525 1128 q 593 1162 576 1162 q 623 1152 612 1162 q 633 1128 633 1142 q 624 1101 633 1116 q 578 1063 614 1087 l 419 954 l 412 953 l 404 954 z "},"":{"ha":911,"x_min":33,"x_max":879,"o":"m 34 11 q 45 18 41 17 q 85 24 57 22 q 166 36 151 28 q 176 74 176 50 l 175 121 l 176 294 l 174 375 l 175 545 l 172 739 q 163 817 171 808 q 90 831 151 829 q 45 836 64 832 q 36 848 36 840 q 39 861 36 853 q 50 864 45 864 q 73 863 60 864 q 156 860 113 860 l 206 861 l 326 859 q 465 861 415 859 q 533 863 515 863 q 610 860 549 863 l 707 861 l 718 859 l 774 861 l 781 857 q 786 846 785 852 q 783 817 786 836 q 780 792 780 797 q 785 673 780 722 q 781 667 784 669 q 767 669 773 667 q 747 715 760 682 q 709 790 734 747 q 683 824 692 819 q 644 829 673 829 q 582 831 637 829 q 553 831 567 831 l 359 827 l 342 827 q 298 818 305 827 q 286 722 286 802 q 290 559 286 714 l 290 465 q 306 463 297 463 l 317 463 q 351 463 329 463 q 399 461 387 461 q 413 462 407 461 q 602 465 486 465 q 644 479 637 471 q 659 543 654 491 q 682 601 664 594 q 698 597 690 601 q 699 587 699 592 q 698 572 699 583 q 694 414 694 547 q 698 336 694 379 q 702 289 702 292 q 700 273 702 283 q 691 270 694 270 l 686 270 q 665 329 675 289 q 628 415 648 397 q 566 432 609 432 q 531 431 556 432 q 456 430 506 430 l 412 430 q 289 426 318 430 l 288 404 l 289 279 l 288 200 l 289 123 q 298 43 290 54 q 348 28 309 28 l 389 29 q 432 28 395 29 q 523 27 469 27 q 697 38 654 27 q 769 78 741 50 q 840 201 797 106 q 865 229 852 229 q 879 223 871 229 q 857 135 859 156 q 848 38 849 87 q 837 1 848 16 l 822 1 l 631 -1 l 546 -1 l 342 -3 l 260 -3 q 231 -4 244 -3 q 51 -9 109 -9 q 37 -6 41 -9 q 33 4 33 -3 l 34 11 m 548 1010 q 565 1054 548 1037 q 606 1071 582 1071 q 648 1054 631 1071 q 665 1013 665 1037 q 648 971 665 988 q 606 954 631 954 q 565 970 583 954 q 548 1010 548 987 m 315 1010 q 332 1054 315 1037 q 372 1071 349 1071 q 414 1054 396 1071 q 431 1012 431 1036 q 414 970 431 987 q 373 954 397 954 q 332 970 349 954 q 315 1010 315 987 z "},"":{"ha":911,"x_min":33,"x_max":879,"o":"m 34 11 q 45 18 41 17 q 85 24 57 22 q 166 36 151 28 q 176 74 176 50 l 175 121 l 176 294 l 174 375 l 175 545 l 172 739 q 163 817 171 808 q 90 831 151 829 q 45 836 64 832 q 36 848 36 840 q 39 861 36 853 q 50 864 45 864 q 73 863 60 864 q 156 860 113 860 l 206 861 l 326 859 q 465 861 415 859 q 533 863 515 863 q 610 860 549 863 l 707 861 l 718 859 l 774 861 l 781 857 q 786 846 785 852 q 783 817 786 836 q 780 792 780 797 q 785 673 780 722 q 781 667 784 669 q 767 669 773 667 q 747 715 760 682 q 709 790 734 747 q 683 824 692 819 q 644 829 673 829 q 582 831 637 829 q 553 831 567 831 l 359 827 l 342 827 q 298 818 305 827 q 286 722 286 802 q 290 559 286 714 l 290 465 q 306 463 297 463 l 317 463 q 351 463 329 463 q 399 461 387 461 q 413 462 407 461 q 602 465 486 465 q 644 479 637 471 q 659 543 654 491 q 682 601 664 594 q 698 597 690 601 q 699 587 699 592 q 698 572 699 583 q 694 414 694 547 q 698 336 694 379 q 702 289 702 292 q 700 273 702 283 q 691 270 694 270 l 686 270 q 665 329 675 289 q 628 415 648 397 q 566 432 609 432 q 531 431 556 432 q 456 430 506 430 l 412 430 q 289 426 318 430 l 288 404 l 289 279 l 288 200 l 289 123 q 298 43 290 54 q 348 28 309 28 l 389 29 q 432 28 395 29 q 523 27 469 27 q 697 38 654 27 q 769 78 741 50 q 840 201 797 106 q 865 229 852 229 q 879 223 871 229 q 857 135 859 156 q 848 38 849 87 q 837 1 848 16 l 822 1 l 631 -1 l 546 -1 l 342 -3 l 260 -3 q 231 -4 244 -3 q 51 -9 109 -9 q 37 -6 41 -9 q 33 4 33 -3 l 34 11 m 587 954 l 576 953 q 441 1044 566 960 q 370 1100 381 1084 q 359 1128 359 1116 q 370 1153 359 1142 q 395 1163 381 1163 q 449 1139 420 1163 q 537 1027 477 1116 q 563 990 553 1004 q 587 954 581 967 z "},"":{"ha":492,"x_min":29,"x_max":450,"o":"m 29 22 q 60 29 44 28 q 178 54 163 36 q 193 228 193 72 l 193 299 l 193 374 l 190 456 l 191 504 l 191 557 l 191 619 l 189 647 l 191 682 q 191 711 191 694 q 187 801 191 753 q 180 819 184 810 q 99 837 155 832 q 35 846 43 841 q 29 867 30 850 l 86 867 l 266 863 q 450 867 335 863 q 449 847 450 857 q 404 840 435 844 q 325 825 339 832 q 312 814 316 822 q 304 768 305 802 l 300 681 l 303 379 l 303 260 q 302 183 302 203 q 306 86 302 107 q 318 56 309 65 q 349 41 328 47 q 397 33 380 34 q 446 22 435 32 q 448 7 448 14 l 448 2 q 357 0 386 0 q 296 2 340 0 l 203 1 l 43 1 l 31 1 l 29 22 m 151 954 l 235 1075 q 308 1152 272 1128 q 340 1162 323 1162 q 370 1152 359 1162 q 380 1128 380 1142 q 371 1101 380 1116 q 326 1063 361 1087 l 166 954 l 159 953 l 151 954 z "},"":{"ha":492,"x_min":29,"x_max":450,"o":"m 29 22 q 60 29 44 28 q 178 54 163 36 q 193 228 193 72 l 193 299 l 193 374 l 190 456 l 191 504 l 191 557 l 191 619 l 189 647 l 191 682 q 191 711 191 694 q 187 801 191 753 q 180 819 184 810 q 99 837 155 832 q 35 846 43 841 q 29 867 30 850 l 86 867 l 266 863 q 450 867 335 863 q 449 847 450 857 q 404 840 435 844 q 325 825 339 832 q 312 814 316 822 q 304 768 305 802 l 300 681 l 303 379 l 303 260 q 302 183 302 203 q 306 86 302 107 q 318 56 309 65 q 349 41 328 47 q 397 33 380 34 q 446 22 435 32 q 448 7 448 14 l 448 2 q 357 0 386 0 q 296 2 340 0 l 203 1 l 43 1 l 31 1 l 29 22 m 100 973 q 229 1194 192 1136 l 268 1194 q 322 1103 275 1183 l 397 974 l 395 956 q 269 1080 376 975 q 241 1105 257 1091 q 102 954 224 1085 q 100 964 100 960 l 100 973 z "},"":{"ha":492,"x_min":29,"x_max":450,"o":"m 29 22 q 60 29 44 28 q 178 54 163 36 q 193 228 193 72 l 193 299 l 193 374 l 190 456 l 191 504 l 191 557 l 191 619 l 189 647 l 191 682 q 191 711 191 694 q 187 801 191 753 q 180 819 184 810 q 99 837 155 832 q 35 846 43 841 q 29 867 30 850 l 86 867 l 266 863 q 450 867 335 863 q 449 847 450 857 q 404 840 435 844 q 325 825 339 832 q 312 814 316 822 q 304 768 305 802 l 300 681 l 303 379 l 303 260 q 302 183 302 203 q 306 86 302 107 q 318 56 309 65 q 349 41 328 47 q 397 33 380 34 q 446 22 435 32 q 448 7 448 14 l 448 2 q 357 0 386 0 q 296 2 340 0 l 203 1 l 43 1 l 31 1 l 29 22 m 317 1010 q 334 1054 317 1037 q 375 1071 351 1071 q 416 1054 399 1071 q 433 1013 433 1037 q 416 971 433 988 q 375 954 399 954 q 334 970 351 954 q 317 1010 317 987 m 83 1010 q 100 1054 83 1037 q 141 1071 117 1071 q 182 1054 165 1071 q 200 1012 200 1036 q 183 970 200 987 q 142 954 165 954 q 101 970 118 954 q 83 1010 83 987 z "},"":{"ha":492,"x_min":29,"x_max":450,"o":"m 29 22 q 60 29 44 28 q 178 54 163 36 q 193 228 193 72 l 193 299 l 193 374 l 190 456 l 191 504 l 191 557 l 191 619 l 189 647 l 191 682 q 191 711 191 694 q 187 801 191 753 q 180 819 184 810 q 99 837 155 832 q 35 846 43 841 q 29 867 30 850 l 86 867 l 266 863 q 450 867 335 863 q 449 847 450 857 q 404 840 435 844 q 325 825 339 832 q 312 814 316 822 q 304 768 305 802 l 300 681 l 303 379 l 303 260 q 302 183 302 203 q 306 86 302 107 q 318 56 309 65 q 349 41 328 47 q 397 33 380 34 q 446 22 435 32 q 448 7 448 14 l 448 2 q 357 0 386 0 q 296 2 340 0 l 203 1 l 43 1 l 31 1 l 29 22 m 363 954 l 351 953 q 216 1044 341 960 q 146 1100 157 1084 q 135 1128 135 1116 q 146 1153 135 1142 q 171 1163 157 1163 q 224 1139 195 1163 q 313 1027 253 1116 q 338 990 328 1004 q 363 954 356 967 z "},"":{"ha":1085,"x_min":64,"x_max":1019,"o":"m 64 433 q 80 556 64 503 q 136 673 97 610 q 231 779 176 736 q 385 854 287 821 q 560 876 454 876 q 700 857 631 876 q 823 804 768 838 q 935 700 879 770 q 993 595 973 651 q 1019 442 1019 521 q 1001 294 1019 353 q 943 177 984 235 q 834 74 911 132 q 706 11 783 35 q 541 -14 629 -14 q 380 7 450 -14 q 262 59 309 28 q 165 148 215 89 q 90 278 115 207 q 64 433 64 349 m 534 12 q 653 27 591 12 q 762 80 714 43 q 836 164 809 117 q 879 286 863 212 q 895 433 895 359 q 868 616 895 526 q 800 738 847 684 q 685 822 752 792 q 542 851 618 851 q 421 831 480 851 q 324 779 362 810 q 254 689 286 747 q 204 562 221 631 q 187 438 187 492 q 204 311 187 382 q 251 187 221 239 q 323 95 280 135 q 420 33 366 54 q 534 12 473 12 m 477 954 l 561 1075 q 633 1152 597 1128 q 666 1162 648 1162 q 695 1152 684 1162 q 706 1128 706 1142 q 696 1101 706 1116 q 651 1063 687 1087 l 492 954 l 484 953 l 477 954 z "},"":{"ha":1085,"x_min":64,"x_max":1019,"o":"m 64 433 q 80 556 64 503 q 136 673 97 610 q 231 779 176 736 q 385 854 287 821 q 560 876 454 876 q 700 857 631 876 q 823 804 768 838 q 935 700 879 770 q 993 595 973 651 q 1019 442 1019 521 q 1001 294 1019 353 q 943 177 984 235 q 834 74 911 132 q 706 11 783 35 q 541 -14 629 -14 q 380 7 450 -14 q 262 59 309 28 q 165 148 215 89 q 90 278 115 207 q 64 433 64 349 m 534 12 q 653 27 591 12 q 762 80 714 43 q 836 164 809 117 q 879 286 863 212 q 895 433 895 359 q 868 616 895 526 q 800 738 847 684 q 685 822 752 792 q 542 851 618 851 q 421 831 480 851 q 324 779 362 810 q 254 689 286 747 q 204 562 221 631 q 187 438 187 492 q 204 311 187 382 q 251 187 221 239 q 323 95 280 135 q 420 33 366 54 q 534 12 473 12 m 411 973 q 541 1194 503 1136 l 579 1194 q 633 1103 587 1183 l 709 974 l 706 956 q 580 1080 687 975 q 553 1105 568 1091 q 413 954 536 1085 q 411 964 411 960 l 411 973 z "},"":{"ha":1085,"x_min":64,"x_max":1019,"o":"m 64 433 q 80 556 64 503 q 136 673 97 610 q 231 779 176 736 q 385 854 287 821 q 560 876 454 876 q 700 857 631 876 q 823 804 768 838 q 935 700 879 770 q 993 595 973 651 q 1019 442 1019 521 q 1001 294 1019 353 q 943 177 984 235 q 834 74 911 132 q 706 11 783 35 q 541 -14 629 -14 q 380 7 450 -14 q 262 59 309 28 q 165 148 215 89 q 90 278 115 207 q 64 433 64 349 m 534 12 q 653 27 591 12 q 762 80 714 43 q 836 164 809 117 q 879 286 863 212 q 895 433 895 359 q 868 616 895 526 q 800 738 847 684 q 685 822 752 792 q 542 851 618 851 q 421 831 480 851 q 324 779 362 810 q 254 689 286 747 q 204 562 221 631 q 187 438 187 492 q 204 311 187 382 q 251 187 221 239 q 323 95 280 135 q 420 33 366 54 q 534 12 473 12 m 674 954 l 663 953 q 528 1044 652 960 q 457 1100 468 1084 q 446 1128 446 1116 q 457 1153 446 1142 q 482 1163 468 1163 q 535 1139 507 1163 q 624 1027 564 1116 q 650 990 640 1004 q 674 954 667 967 z "},"":{"ha":984,"x_min":25,"x_max":939,"o":"m 396 871 q 399 853 399 859 q 397 841 399 849 q 369 836 380 836 q 353 837 364 836 q 335 838 342 838 q 286 826 304 838 q 271 806 273 819 l 264 729 l 266 393 q 278 164 267 209 q 317 90 290 119 q 398 41 344 60 q 505 22 453 22 q 681 56 620 22 q 769 148 743 89 q 796 326 796 206 q 794 380 796 329 l 794 399 q 795 442 794 410 q 797 479 797 473 l 787 673 q 775 789 782 772 q 757 816 769 807 q 656 850 730 835 q 652 869 653 859 q 705 872 679 872 q 762 870 732 872 q 810 867 806 867 l 918 870 l 939 869 l 938 845 q 838 820 854 834 q 822 766 822 805 q 825 674 822 745 l 829 534 l 829 478 l 831 408 q 823 227 831 275 q 792 120 812 159 q 734 49 772 81 q 633 -3 696 18 q 508 -23 570 -23 q 368 -9 411 -23 q 244 52 290 14 q 180 128 198 90 q 157 275 157 178 l 157 321 l 155 511 l 157 665 l 157 768 q 146 823 157 807 q 124 833 138 833 l 84 833 q 27 842 39 833 q 25 853 25 848 q 29 863 25 859 q 47 868 37 868 l 65 868 l 111 869 l 218 869 l 396 871 m 426 954 l 510 1075 q 583 1152 547 1128 q 615 1162 597 1162 q 644 1152 633 1162 q 655 1128 655 1142 q 646 1101 655 1116 q 600 1063 636 1087 l 441 954 l 433 953 l 426 954 z "},"":{"ha":984,"x_min":25,"x_max":939,"o":"m 396 871 q 399 853 399 859 q 397 841 399 849 q 369 836 380 836 q 353 837 364 836 q 335 838 342 838 q 286 826 304 838 q 271 806 273 819 l 264 729 l 266 393 q 278 164 267 209 q 317 90 290 119 q 398 41 344 60 q 505 22 453 22 q 681 56 620 22 q 769 148 743 89 q 796 326 796 206 q 794 380 796 329 l 794 399 q 795 442 794 410 q 797 479 797 473 l 787 673 q 775 789 782 772 q 757 816 769 807 q 656 850 730 835 q 652 869 653 859 q 705 872 679 872 q 762 870 732 872 q 810 867 806 867 l 918 870 l 939 869 l 938 845 q 838 820 854 834 q 822 766 822 805 q 825 674 822 745 l 829 534 l 829 478 l 831 408 q 823 227 831 275 q 792 120 812 159 q 734 49 772 81 q 633 -3 696 18 q 508 -23 570 -23 q 368 -9 411 -23 q 244 52 290 14 q 180 128 198 90 q 157 275 157 178 l 157 321 l 155 511 l 157 665 l 157 768 q 146 823 157 807 q 124 833 138 833 l 84 833 q 27 842 39 833 q 25 853 25 848 q 29 863 25 859 q 47 868 37 868 l 65 868 l 111 869 l 218 869 l 396 871 m 360 973 q 490 1194 452 1136 l 528 1194 q 583 1103 536 1183 l 658 974 l 655 956 q 529 1080 636 975 q 502 1105 517 1091 q 362 954 485 1085 q 360 964 360 960 l 360 973 z "},"":{"ha":984,"x_min":25,"x_max":939,"o":"m 396 871 q 399 853 399 859 q 397 841 399 849 q 369 836 380 836 q 353 837 364 836 q 335 838 342 838 q 286 826 304 838 q 271 806 273 819 l 264 729 l 266 393 q 278 164 267 209 q 317 90 290 119 q 398 41 344 60 q 505 22 453 22 q 681 56 620 22 q 769 148 743 89 q 796 326 796 206 q 794 380 796 329 l 794 399 q 795 442 794 410 q 797 479 797 473 l 787 673 q 775 789 782 772 q 757 816 769 807 q 656 850 730 835 q 652 869 653 859 q 705 872 679 872 q 762 870 732 872 q 810 867 806 867 l 918 870 l 939 869 l 938 845 q 838 820 854 834 q 822 766 822 805 q 825 674 822 745 l 829 534 l 829 478 l 831 408 q 823 227 831 275 q 792 120 812 159 q 734 49 772 81 q 633 -3 696 18 q 508 -23 570 -23 q 368 -9 411 -23 q 244 52 290 14 q 180 128 198 90 q 157 275 157 178 l 157 321 l 155 511 l 157 665 l 157 768 q 146 823 157 807 q 124 833 138 833 l 84 833 q 27 842 39 833 q 25 853 25 848 q 29 863 25 859 q 47 868 37 868 l 65 868 l 111 869 l 218 869 l 396 871 m 623 954 l 612 953 q 477 1044 602 960 q 406 1100 417 1084 q 395 1128 395 1116 q 406 1153 395 1142 q 431 1163 417 1163 q 485 1139 456 1163 q 573 1027 513 1116 q 599 990 589 1004 q 623 954 616 967 z "},"":{"ha":318,"x_min":-2,"x_max":305,"o":"m 1 19 q 28 28 11 26 q 106 50 90 37 q 117 77 114 58 q 121 203 121 103 l 121 350 l 122 409 q 107 456 122 441 q 38 484 93 471 l 37 503 q 182 601 131 525 q 193 604 190 604 q 204 601 197 604 l 205 575 l 205 449 l 206 284 l 203 110 l 204 81 q 212 49 205 55 q 288 20 223 38 q 305 14 298 18 l 305 -3 l 294 -3 q 147 5 180 5 q 22 -1 69 5 q 11 -1 16 -1 q 2 2 5 -1 q -2 9 -2 5 q 1 19 -2 13 z "},"":{"ha":463,"x_min":100,"x_max":397,"o":"m 100 682 q 229 903 192 845 l 268 903 q 322 812 275 892 l 397 683 l 395 665 q 269 789 376 684 q 241 814 257 800 q 102 663 224 794 q 100 673 100 669 l 100 682 z "},"":{"ha":463,"x_min":60,"x_max":448,"o":"m 428 839 l 448 839 q 448 828 448 831 q 416 735 448 770 q 336 701 384 701 q 286 711 313 701 q 231 742 269 717 q 179 773 194 768 q 141 782 158 782 q 103 766 118 782 q 80 702 87 749 l 61 702 q 60 709 60 706 q 87 797 60 755 q 172 839 115 839 q 217 831 196 839 q 279 796 239 823 q 368 757 339 757 q 405 774 389 757 q 428 839 421 791 z "},"":{"ha":463,"x_min":66,"x_max":430,"o":"m 66 742 q 66 772 66 762 q 66 804 66 783 l 152 800 q 429 804 227 800 q 430 772 430 783 q 429 742 430 762 q 277 740 293 740 q 66 742 108 740 z "},"":{"ha":463,"x_min":90,"x_max":424,"o":"m 90 836 l 109 836 q 157 752 120 781 q 256 722 195 722 q 354 752 317 722 q 401 836 392 783 l 424 836 q 371 699 422 753 q 254 645 320 645 q 127 715 178 645 q 90 828 90 766 l 90 836 z "},"":{"ha":463,"x_min":197,"x_max":314,"o":"m 197 773 q 214 817 197 800 q 256 833 231 833 q 297 817 280 833 q 314 775 314 800 q 297 733 314 751 q 256 716 280 716 q 215 733 232 716 q 197 773 197 750 z "},"":{"ha":463,"x_min":146,"x_max":368,"o":"m 146 742 q 178 821 146 788 q 257 854 211 854 q 336 821 303 854 q 368 743 368 789 q 335 663 368 696 q 256 631 302 631 q 178 663 211 631 q 146 742 146 696 m 256 661 q 314 685 290 661 q 338 743 338 709 q 314 800 338 776 q 257 823 290 823 q 200 800 224 823 q 176 743 176 776 q 200 685 176 709 q 256 661 223 661 z "},"":{"ha":463,"x_min":1,"x_max":203,"o":"m 90 -119 q 115 -86 97 -108 q 180 9 140 -54 l 203 9 l 151 -75 q 203 -170 203 -116 q 169 -257 203 -222 q 83 -292 134 -292 q 24 -273 47 -292 q 1 -235 1 -254 q 10 -210 1 -222 q 26 -202 17 -202 q 62 -231 41 -202 q 106 -260 83 -260 q 139 -243 124 -260 q 154 -197 154 -225 q 138 -151 154 -172 q 90 -119 122 -130 z "},"":{"ha":463,"x_min":117,"x_max":518,"o":"m 117 667 l 201 789 q 273 866 237 842 q 306 876 288 876 q 335 866 324 876 q 346 842 346 856 q 336 815 346 829 q 291 777 327 801 l 132 667 l 124 667 l 117 667 m 288 667 l 372 789 q 445 866 410 842 q 478 876 460 876 q 507 866 496 876 q 518 842 518 856 q 509 815 518 829 q 463 777 499 801 l 303 667 l 296 667 l 288 667 z "},"":{"ha":463,"x_min":125,"x_max":409,"o":"m 170 1 l 208 1 q 190 -60 190 -35 q 225 -137 190 -103 q 309 -172 261 -172 q 393 -140 348 -172 l 409 -155 q 264 -222 340 -222 q 164 -186 203 -222 q 125 -102 125 -151 q 134 -57 125 -79 q 170 1 143 -36 z "},"":{"ha":463,"x_min":100,"x_max":398,"o":"m 398 884 q 269 663 306 721 l 230 663 q 176 753 222 673 l 100 883 l 103 901 q 229 777 122 882 q 256 752 241 766 q 396 903 273 771 q 398 892 398 897 l 398 884 z "},"":{"ha":839,"x_min":12,"x_max":803,"o":"m 176 351 q 33 202 83 252 l 33 253 q 176 406 117 345 l 176 572 l 176 614 q 175 793 177 758 q 170 812 174 800 q 140 823 152 820 q 34 842 128 825 q 33 853 33 850 q 34 864 33 857 q 76 863 47 864 l 179 859 l 239 858 l 256 859 q 276 857 260 859 q 322 858 316 857 l 376 862 q 454 860 431 862 q 449 833 453 848 q 378 830 441 832 q 306 822 315 827 q 290 767 290 813 q 289 724 290 755 l 290 559 l 290 524 l 427 665 q 473 706 439 677 l 474 655 q 290 471 391 578 l 290 414 l 291 345 l 289 92 l 290 53 q 296 32 290 37 q 396 31 313 31 l 442 31 l 559 35 q 625 44 606 36 q 691 90 645 52 q 734 140 719 114 q 746 156 738 145 q 781 227 759 174 l 803 227 q 794 180 799 202 q 767 21 774 85 q 764 -4 766 7 l 511 3 q 123 -3 184 3 q 83 -4 104 -4 l 12 -4 q 18 14 13 6 q 121 33 71 28 q 160 45 149 35 q 168 58 165 49 q 172 131 171 67 l 176 303 l 176 351 z "},"":{"ha":434,"x_min":64,"x_max":382,"o":"m 180 434 l 180 444 l 180 574 l 180 684 l 182 731 q 178 798 182 785 q 162 814 175 806 q 113 836 138 829 q 94 846 102 838 l 93 861 q 116 868 104 865 q 212 899 178 885 q 243 907 232 907 l 266 907 q 267 749 267 892 l 267 687 l 266 647 l 266 582 l 265 522 q 382 637 325 584 l 382 593 q 264 476 328 542 q 265 440 265 450 l 262 106 q 268 56 262 81 q 284 44 277 46 q 345 33 300 39 q 368 26 361 31 q 372 17 372 22 q 371 7 372 13 q 328 4 347 4 q 287 7 310 4 q 140 14 214 14 q 73 5 106 14 q 66 8 68 5 l 66 22 q 73 30 68 28 q 120 39 77 32 q 169 51 162 45 q 177 77 175 56 q 180 231 180 97 l 179 329 l 180 387 q 64 266 96 297 l 64 311 q 180 434 96 347 z "},"":{"ha":665,"x_min":52,"x_max":607,"o":"m 539 837 q 545 785 545 792 l 542 725 q 538 675 541 686 q 528 673 532 673 l 522 674 q 449 812 500 769 q 322 856 397 856 q 195 812 245 856 q 146 711 146 769 q 180 631 146 667 q 357 521 215 594 q 513 429 466 465 q 583 347 559 393 q 607 242 607 300 q 569 106 607 170 q 468 10 532 42 q 299 -22 404 -22 q 123 7 208 -22 q 63 35 74 24 q 52 58 52 46 q 54 77 52 66 q 64 209 63 157 q 68 246 65 241 q 79 251 71 251 q 89 247 85 251 q 94 230 92 242 q 171 81 101 146 q 328 15 240 15 q 426 37 381 15 q 497 102 471 60 q 522 184 522 144 q 484 285 522 239 q 328 391 445 330 q 176 479 212 452 q 91 576 119 525 q 70 667 70 615 q 144 827 70 762 q 345 892 219 892 q 464 877 414 892 q 539 837 500 865 m 499 1175 q 370 954 407 1012 l 331 954 q 277 1044 323 964 l 201 1174 l 204 1192 q 330 1067 223 1173 q 357 1043 342 1057 q 497 1194 374 1062 q 499 1183 499 1188 l 499 1175 z "},"":{"ha":507,"x_min":77,"x_max":447,"o":"m 98 172 q 136 89 123 108 q 198 29 162 50 q 276 7 234 7 q 353 41 315 7 q 380 99 380 66 q 348 180 380 143 q 227 251 316 217 q 107 322 138 284 q 77 409 77 360 q 102 490 77 455 q 171 544 127 526 q 252 562 215 562 q 339 554 300 562 q 405 531 377 547 q 414 429 410 496 l 415 408 q 400 407 406 407 l 391 407 q 329 496 370 463 q 246 529 287 529 q 180 504 205 529 q 155 439 155 479 q 176 385 155 409 q 271 331 196 361 q 380 274 346 300 q 431 211 414 248 q 447 140 447 174 q 416 52 447 93 q 339 -5 385 12 q 256 -22 292 -22 q 97 10 170 -22 q 90 31 90 16 q 88 50 90 37 q 77 159 77 142 q 81 170 77 167 q 98 172 84 172 m 420 884 q 290 663 328 721 l 252 663 q 197 753 244 673 l 122 883 l 125 901 q 251 777 144 882 q 278 752 262 766 q 418 903 295 771 q 420 892 420 897 l 420 884 z "},"":{"ha":911,"x_min":49,"x_max":846,"o":"m 50 -8 l 49 9 q 109 78 95 58 q 134 109 113 84 l 172 163 l 432 509 l 656 808 q 667 825 661 816 q 625 826 642 826 q 581 825 608 826 q 435 822 554 824 q 392 818 431 822 q 287 811 353 814 q 191 794 221 808 q 153 764 174 787 q 108 707 125 735 q 72 660 85 669 l 60 659 q 75 703 62 672 q 109 814 87 734 q 131 878 124 857 q 143 911 137 898 q 156 913 151 913 l 165 913 q 159 887 159 895 q 176 855 159 866 q 266 844 193 844 q 328 847 296 844 q 387 850 340 848 l 423 850 l 582 854 l 723 859 l 791 862 q 818 857 804 862 l 819 852 q 767 779 819 842 q 734 737 740 746 l 607 568 q 563 509 578 529 q 509 440 554 498 l 411 311 l 274 130 q 210 44 227 68 q 202 33 207 40 l 466 31 q 560 30 525 30 q 744 70 691 30 q 817 205 797 111 q 825 237 822 226 q 842 243 832 243 l 844 241 q 846 214 846 227 q 844 121 846 180 l 842 75 l 843 33 q 840 -1 843 15 q 810 -3 815 -3 q 763 -2 782 -2 l 588 -5 l 373 0 l 262 -2 q 220 0 256 -2 q 191 1 201 1 q 91 -7 154 1 q 65 -10 69 -10 q 50 -8 60 -10 m 623 1175 q 493 954 530 1012 l 454 954 q 400 1044 447 964 l 325 1174 l 328 1192 q 454 1067 347 1173 q 481 1043 465 1057 q 621 1194 498 1062 q 623 1183 623 1188 l 623 1175 z "},"":{"ha":593,"x_min":37,"x_max":541,"o":"m 37 -2 l 37 12 q 151 145 118 103 l 205 214 q 281 302 214 224 l 342 373 q 426 481 362 394 q 412 485 420 485 l 384 486 q 255 484 334 487 q 168 471 199 482 q 128 445 146 463 q 88 393 100 417 q 68 372 82 380 q 58 379 61 373 q 70 415 60 387 q 87 468 80 444 q 127 587 109 543 l 152 587 q 150 574 151 578 q 146 545 146 555 q 159 524 146 530 q 270 515 176 515 q 323 516 292 515 q 479 522 446 522 q 538 519 492 522 q 538 507 538 512 q 534 489 538 495 q 477 408 518 460 l 339 239 l 166 28 q 211 27 180 28 l 374 27 q 431 40 403 26 q 482 86 459 54 q 517 161 505 118 q 528 165 522 165 q 541 158 536 165 l 526 62 q 511 -4 520 7 l 100 -3 l 58 -3 q 37 -2 46 -3 m 463 884 q 334 663 371 721 l 295 663 q 241 753 288 673 l 165 883 l 168 901 q 294 777 187 882 q 321 752 306 766 q 461 903 338 771 q 463 892 463 897 l 463 884 z "},"":{"ha":694,"x_min":317,"x_max":378,"o":"m 317 908 l 378 908 l 378 418 l 317 418 l 317 908 m 317 130 l 378 130 l 378 -358 l 317 -358 l 317 130 z "},"":{"ha":1071,"x_min":10,"x_max":1004,"o":"m 166 418 q 14 420 78 418 q 10 439 10 433 q 14 457 10 445 l 165 456 l 165 460 l 166 547 l 164 768 q 153 817 164 805 q 71 848 138 833 q 37 859 43 854 q 29 878 31 864 q 52 882 45 882 l 99 882 l 124 882 q 180 877 149 882 q 309 873 242 873 q 362 875 327 873 q 496 880 456 880 q 651 864 578 880 q 802 804 724 848 q 901 716 850 776 q 977 585 951 656 q 1004 425 1004 514 q 975 268 1004 346 q 894 133 945 190 q 790 46 843 75 q 628 -3 736 18 q 468 -12 583 -12 q 342 -7 391 -12 q 302 -4 323 -4 q 294 -5 298 -4 l 18 -9 l 16 -4 q 15 3 15 -1 l 16 14 q 75 28 41 24 q 146 51 123 33 q 165 241 165 88 l 165 348 l 167 412 l 166 418 m 279 418 q 283 168 281 203 q 301 86 286 111 q 361 40 317 62 q 466 22 413 22 q 601 44 535 22 q 717 104 667 65 q 800 192 768 143 q 846 281 833 241 q 865 431 865 338 q 828 610 865 519 q 737 730 802 673 q 585 815 673 788 q 393 842 496 842 q 289 826 323 842 q 281 817 285 822 q 277 785 277 800 q 277 764 277 777 q 280 641 280 680 l 279 599 l 279 454 l 354 454 l 529 457 q 526 439 526 445 q 529 420 526 433 q 279 418 435 418 z "},"":{"ha":724,"x_min":62,"x_max":675,"o":"m 439 784 q 610 588 545 705 q 675 328 675 472 q 588 75 675 166 q 361 -16 500 -16 q 147 66 232 -16 q 62 268 62 149 q 102 415 62 345 q 210 520 141 484 q 351 557 279 557 q 454 537 406 557 q 543 479 502 518 q 381 746 517 635 l 195 624 l 174 654 l 350 770 q 199 850 286 817 l 219 892 q 406 807 309 867 l 533 890 l 553 860 l 439 784 m 557 422 q 467 504 515 477 q 365 530 419 530 q 222 466 277 530 q 168 258 168 401 q 222 72 168 134 q 360 9 276 9 q 508 78 451 9 q 566 300 566 146 q 557 422 566 357 z "},"":{"ha":911,"x_min":-14,"x_max":923,"o":"m -14 874 l 19 874 q 96 872 37 874 q 250 868 189 868 l 329 869 q 361 867 346 869 q 366 855 366 861 l 366 848 l 349 840 l 342 840 l 304 839 l 284 840 q 247 829 261 840 q 236 814 236 822 q 245 791 236 805 q 256 775 249 786 q 292 722 270 752 q 360 616 324 677 q 390 569 374 591 l 493 413 q 521 451 503 426 l 618 591 l 731 760 q 749 794 746 783 q 750 806 750 800 q 737 829 750 820 q 646 850 716 843 q 633 852 642 850 q 629 865 629 860 q 629 874 629 869 l 665 875 l 792 871 l 895 873 q 923 873 899 873 l 921 849 q 906 847 916 848 l 890 845 q 877 844 886 844 q 854 832 863 838 q 685 633 755 727 q 567 463 615 540 q 542 426 551 438 q 521 392 524 403 q 513 312 513 366 q 521 63 513 101 q 532 40 525 44 q 672 19 549 31 l 672 11 q 667 -9 672 3 l 494 -1 l 378 -7 l 283 -7 q 253 -7 269 -7 q 250 4 250 1 q 252 14 250 7 q 262 18 257 18 l 349 32 q 400 52 395 47 q 410 77 408 60 q 411 266 411 90 q 407 346 411 332 q 378 397 402 361 l 289 532 l 138 753 q 69 830 98 810 q 5 844 56 839 q -12 845 -1 844 l -14 874 m 404 954 l 488 1075 q 560 1152 524 1128 q 593 1162 575 1162 q 622 1152 611 1162 q 633 1128 633 1142 q 623 1101 633 1116 q 578 1063 614 1087 l 418 954 l 411 953 l 404 954 z "},"":{"ha":578,"x_min":5,"x_max":597,"o":"m 8 534 q 33 536 23 536 l 66 536 l 110 537 l 168 535 l 214 536 q 281 532 252 536 q 284 521 284 525 l 283 515 q 239 506 269 509 q 179 491 197 503 l 178 484 q 183 463 178 477 q 192 439 186 455 q 256 245 207 389 q 323 66 292 141 q 366 170 342 107 l 424 330 q 453 436 443 383 q 457 469 457 457 q 448 488 457 479 q 413 503 439 497 q 361 518 365 515 q 356 532 357 522 q 366 537 360 535 l 408 537 l 453 536 l 521 537 l 564 536 l 575 537 q 591 536 580 537 q 597 525 597 532 q 591 513 597 518 l 578 511 q 517 490 538 505 q 498 456 506 482 q 489 432 495 447 q 479 405 486 424 q 463 360 473 386 l 454 341 l 454 338 l 338 34 l 254 -195 q 235 -237 246 -212 q 205 -290 210 -285 q 170 -325 184 -315 l 135 -340 q 113 -342 125 -342 q 68 -329 83 -342 q 54 -293 54 -316 q 75 -254 54 -271 q 89 -248 82 -252 l 98 -246 q 173 -257 158 -257 q 194 -239 187 -250 q 251 -129 227 -190 q 275 -47 275 -68 q 257 20 275 -24 l 182 220 q 89 472 166 258 q 77 492 84 486 l 31 509 l 16 512 q 5 526 5 517 l 8 534 m 223 667 l 307 789 q 380 866 344 842 q 412 876 395 876 q 441 866 431 876 q 452 842 452 856 q 443 815 452 829 q 397 777 433 801 l 238 667 l 231 667 l 223 667 z "},"":{"ha":781,"x_min":26,"x_max":745,"o":"m 281 666 q 351 677 332 676 q 430 680 378 680 q 608 652 545 680 q 708 559 672 624 q 745 427 745 494 q 667 241 745 317 q 483 165 590 165 q 385 180 433 165 q 292 224 337 195 q 294 151 294 178 q 293 125 294 144 q 291 94 291 107 q 296 44 291 61 q 391 22 313 39 q 431 12 428 13 q 441 3 437 9 q 434 -11 438 -7 q 416 -14 429 -14 q 378 -10 408 -14 q 287 -4 320 -4 l 168 -9 l 96 -7 q 57 -8 90 -7 l 56 9 l 144 26 q 171 39 166 33 q 178 76 178 48 q 178 102 178 82 q 179 142 179 117 q 172 483 179 222 q 170 731 170 605 l 170 743 q 155 804 170 791 q 29 841 130 827 q 26 853 26 848 q 30 866 26 859 q 45 868 42 868 q 121 865 68 868 q 160 865 149 865 q 182 865 172 865 l 250 868 l 286 865 l 301 865 l 401 868 q 416 866 405 868 q 421 854 421 858 q 418 841 421 849 q 292 804 322 827 q 277 748 277 792 q 279 709 277 739 q 281 666 281 686 m 281 629 q 286 498 283 522 l 286 460 l 292 254 q 362 224 329 234 q 425 214 395 214 q 527 240 479 214 q 600 316 575 267 q 624 418 624 365 q 591 534 624 478 q 505 615 558 590 q 357 640 452 640 q 281 629 319 640 z "},"":{"ha":709,"x_min":16,"x_max":659,"o":"m 17 -354 q 16 -340 16 -347 q 18 -329 16 -336 l 85 -315 q 112 -296 102 -307 q 115 -271 115 -283 l 108 309 l 109 611 q 106 785 109 772 q 67 819 102 805 q 20 840 33 833 l 20 855 q 61 868 38 861 q 161 901 96 879 l 193 901 q 194 884 194 888 q 193 832 193 838 l 194 682 l 193 469 q 298 525 243 507 q 410 544 352 544 q 587 470 515 544 q 659 281 659 397 q 618 126 659 195 q 507 24 578 58 q 364 -10 436 -10 q 224 23 303 -10 q 201 33 212 28 q 200 -64 200 -22 q 212 -298 200 -273 q 250 -315 218 -312 q 321 -330 304 -319 q 335 -355 332 -336 l 268 -356 l 207 -355 l 105 -355 l 17 -354 m 194 422 q 193 404 193 412 q 197 133 193 162 q 235 58 207 79 q 361 23 279 23 q 505 82 446 23 q 563 234 563 140 q 501 412 563 347 q 338 478 439 478 q 260 464 296 478 q 194 422 224 450 z "},"":{"ha":926,"x_min":99,"x_max":827,"o":"m 99 462 l 827 462 l 827 402 l 99 402 l 99 462 z "},"":{"ha":926,"x_min":134,"x_max":794,"o":"m 134 720 l 175 762 l 464 473 l 753 762 l 794 720 l 506 430 l 791 144 l 749 102 l 464 389 l 176 102 l 134 144 l 421 430 l 134 720 z "},"":{"ha":434,"x_min":79,"x_max":322,"o":"m 321 425 l 122 425 l 122 430 q 126 444 122 439 q 149 451 131 448 q 182 460 166 454 q 186 713 186 517 l 186 779 q 186 812 186 786 q 94 763 107 763 q 83 767 88 763 l 79 773 q 112 802 79 783 q 142 823 116 804 q 193 863 177 848 q 217 882 209 877 l 236 882 q 253 879 248 882 q 257 867 257 875 l 256 850 l 257 802 q 256 770 257 798 q 254 538 254 697 l 254 518 l 254 475 q 260 460 254 466 q 289 453 267 455 q 317 446 311 451 q 322 431 322 441 l 321 425 z "},"":{"ha":434,"x_min":35,"x_max":395,"o":"m 382 425 q 208 427 317 427 l 115 425 l 89 426 l 56 425 q 35 429 52 425 q 50 454 43 447 q 155 553 87 494 q 269 673 242 629 q 296 754 296 717 q 271 813 296 789 q 208 837 245 837 q 147 821 175 837 q 111 786 119 804 l 93 747 q 75 740 87 740 q 65 744 69 740 q 62 755 62 749 q 84 811 62 775 q 141 865 106 847 q 224 882 176 882 q 333 845 291 882 q 374 762 374 808 q 347 684 374 724 q 213 560 319 645 q 119 476 165 522 q 217 475 174 475 q 241 475 228 475 q 267 476 262 476 l 323 475 q 339 482 332 475 q 363 526 346 490 l 389 526 q 395 518 395 522 l 391 495 q 382 425 386 461 z "},"":{"ha":434,"x_min":49,"x_max":381,"o":"m 97 770 l 72 782 q 125 854 96 833 q 222 884 165 884 q 307 859 275 884 q 338 807 338 833 q 321 760 338 783 q 258 703 304 736 q 350 663 319 696 q 381 581 381 629 q 324 465 381 515 q 172 414 267 414 q 67 433 100 414 q 49 456 49 443 q 58 472 49 465 q 82 480 67 480 q 117 468 98 480 q 191 438 162 438 q 274 474 239 438 q 309 562 309 510 q 282 637 309 607 q 226 661 261 661 q 162 633 199 661 l 146 656 q 188 685 169 673 q 273 779 273 739 q 253 822 273 804 q 199 840 234 840 q 97 770 144 840 z "},"":{"ha":1128,"x_min":79,"x_max":1078,"o":"m 321 425 l 122 425 l 122 430 q 126 444 122 439 q 149 451 131 448 q 182 460 166 454 q 186 713 186 517 l 186 779 q 186 812 186 786 q 94 763 107 763 q 83 767 88 763 l 79 773 q 112 802 79 783 q 142 823 116 804 q 193 863 177 848 q 217 882 209 877 l 236 882 q 253 879 248 882 q 257 867 257 875 l 256 850 l 257 802 q 256 770 257 798 q 254 538 254 697 l 254 518 l 254 475 q 260 460 254 466 q 289 453 267 455 q 317 446 311 451 q 322 431 322 441 l 321 425 m 1065 4 q 891 6 1001 6 l 798 4 l 772 5 l 739 4 q 718 8 735 4 q 733 34 726 26 q 838 133 771 74 q 953 253 926 209 q 980 334 980 296 q 955 392 980 368 q 891 416 929 416 q 830 400 859 416 q 794 366 802 384 l 777 326 q 758 319 770 319 q 749 324 753 319 q 745 335 745 328 q 767 391 745 355 q 824 444 789 427 q 907 462 859 462 q 1016 425 975 462 q 1058 341 1058 388 q 1030 264 1058 303 q 897 140 1003 224 q 803 56 849 102 q 901 54 857 54 q 924 55 911 54 q 950 56 946 56 l 1007 54 q 1023 62 1016 54 q 1046 105 1029 69 l 1072 105 q 1078 98 1078 102 l 1075 75 q 1065 4 1069 41 m 228 -45 q 242 -20 233 -33 q 263 14 250 -8 q 314 90 268 21 q 376 186 359 159 q 815 884 680 701 l 822 885 q 858 883 854 883 l 562 418 l 427 195 l 271 -44 l 266 -44 q 233 -45 262 -44 l 228 -45 z "},"":{"ha":1128,"x_min":79,"x_max":1090,"o":"m 321 425 l 122 425 l 122 430 q 126 444 122 439 q 149 451 131 448 q 182 460 166 454 q 186 713 186 517 l 186 779 q 186 812 186 786 q 94 763 107 763 q 83 767 88 763 l 79 773 q 112 802 79 783 q 142 823 116 804 q 193 863 177 848 q 217 882 209 877 l 236 882 q 253 879 248 882 q 257 867 257 875 l 256 850 l 257 802 q 256 770 257 798 q 254 538 254 697 l 254 518 l 254 475 q 260 460 254 466 q 289 453 267 455 q 317 446 311 451 q 322 431 322 441 l 321 425 m 252 -48 q 266 -23 258 -35 q 288 11 275 -11 q 338 87 292 18 q 400 184 384 156 q 840 882 704 698 l 846 882 q 882 880 878 880 l 586 416 l 451 193 l 295 -47 l 290 -47 q 258 -48 287 -47 l 252 -48 m 972 464 l 1004 464 l 1003 449 l 1004 396 l 1002 350 l 1003 328 q 1004 295 1004 301 l 1004 260 l 1004 204 q 1004 170 1004 193 l 1017 170 l 1059 169 l 1090 170 q 1090 149 1090 156 q 1090 129 1090 142 l 1069 128 l 1056 128 q 1004 129 1017 128 q 1004 1 1003 68 q 992 -5 998 -3 l 965 -5 q 932 -4 955 -5 q 934 60 934 31 q 933 86 934 75 q 932 115 932 111 q 932 128 932 118 q 913 127 918 127 l 904 127 q 860 130 865 130 q 832 127 854 130 l 791 129 l 769 128 q 723 133 738 128 q 722 145 722 141 q 723 157 722 149 q 767 212 735 172 q 897 372 850 320 q 931 415 911 389 q 972 464 950 440 m 932 170 l 933 222 l 932 267 l 933 311 l 932 353 l 932 363 l 844 252 q 782 170 794 187 l 798 170 l 907 169 q 932 170 916 169 z "},"":{"ha":1143,"x_min":49,"x_max":1099,"o":"m 97 770 l 72 782 q 125 854 96 833 q 222 884 165 884 q 307 859 275 884 q 338 807 338 833 q 321 760 338 783 q 258 703 304 736 q 350 663 319 696 q 381 581 381 629 q 324 465 381 515 q 172 414 267 414 q 67 433 100 414 q 49 456 49 443 q 58 472 49 465 q 82 480 67 480 q 117 468 98 480 q 191 438 162 438 q 274 474 239 438 q 309 562 309 510 q 282 637 309 607 q 226 661 261 661 q 162 633 199 661 l 146 656 q 188 685 169 673 q 273 779 273 739 q 253 822 273 804 q 199 840 234 840 q 97 770 144 840 m 258 -45 q 272 -20 263 -33 q 293 14 280 -8 q 343 90 298 21 q 406 186 389 159 q 845 884 709 701 l 852 885 q 888 883 884 883 l 591 418 l 456 195 l 300 -44 l 296 -44 q 263 -45 292 -44 l 258 -45 m 980 464 l 1012 464 l 1011 449 l 1013 396 l 1010 350 l 1011 328 q 1012 295 1012 301 l 1012 260 l 1013 204 q 1012 170 1013 193 l 1025 170 l 1067 169 l 1098 170 q 1099 149 1099 156 q 1098 129 1099 142 l 1077 128 l 1064 128 q 1012 129 1025 128 q 1012 1 1011 68 q 1000 -5 1006 -3 l 973 -5 q 941 -4 963 -5 q 942 60 942 31 q 941 86 942 75 q 940 115 940 111 q 941 128 940 118 q 922 127 926 127 l 912 127 q 868 130 873 130 q 840 127 863 130 l 800 129 l 777 128 q 731 133 746 128 q 730 145 730 141 q 731 157 730 149 q 775 212 743 172 q 905 372 858 320 q 939 415 920 389 q 980 464 958 440 m 941 170 l 941 222 l 941 267 l 941 311 l 941 353 l 941 363 l 852 252 q 790 170 802 187 l 806 170 l 915 169 q 941 170 924 169 z "},"":{"ha":911,"x_min":41,"x_max":909,"o":"m 644 587 l 667 586 q 671 435 671 552 l 671 424 q 672 411 671 420 q 737 497 698 458 l 752 513 q 796 544 768 530 q 842 558 824 558 q 890 538 871 558 q 909 489 909 518 q 895 453 909 466 q 853 436 877 436 q 810 448 842 436 q 768 459 779 459 q 743 453 749 459 q 696 392 723 438 q 675 328 675 357 l 679 216 l 680 82 q 685 52 682 59 q 699 41 688 47 q 785 32 772 35 q 800 31 795 31 q 841 22 829 30 q 846 12 846 19 q 841 1 846 8 l 766 2 l 737 3 l 696 2 l 627 2 l 589 0 l 475 -2 l 473 7 q 479 21 473 12 l 519 29 l 575 39 q 585 49 582 42 q 589 98 589 58 q 582 406 589 383 q 518 440 571 440 l 393 440 q 279 433 291 440 q 276 421 276 425 l 276 374 q 277 307 276 366 l 275 82 q 281 58 275 73 q 333 43 295 47 q 404 25 370 39 q 422 5 422 16 q 420 -3 422 1 q 410 -9 417 -7 q 256 2 355 2 q 146 -7 204 2 q 54 -14 106 -14 l 41 -10 l 41 7 q 91 20 56 14 q 139 32 126 26 q 161 47 153 37 q 168 155 168 77 l 158 682 l 160 770 q 150 807 160 797 q 99 826 140 817 q 50 840 58 834 q 43 851 43 845 q 45 860 43 854 q 63 865 54 865 q 104 864 73 865 l 123 864 q 177 865 133 864 l 271 865 l 466 869 l 672 877 l 690 877 l 720 878 q 741 871 732 878 q 746 855 745 860 l 745 828 l 751 707 q 750 688 751 699 q 730 683 739 683 q 721 687 724 683 q 714 715 715 694 q 693 791 711 745 q 664 821 684 812 q 527 836 623 836 q 442 834 481 836 q 394 831 403 831 l 341 832 q 288 823 309 832 q 273 793 273 817 l 273 783 q 275 707 275 749 l 273 522 q 277 471 273 495 l 297 469 l 335 471 l 471 471 q 574 499 532 471 q 644 587 616 527 z "},"":{"ha":1071,"x_min":64,"x_max":1053,"o":"m 905 823 l 913 720 q 917 656 917 673 l 898 653 q 785 808 852 756 q 620 859 718 859 q 434 830 500 859 q 269 686 338 789 q 201 439 201 584 q 226 290 201 356 q 297 166 251 223 q 405 66 342 109 q 502 24 446 39 q 597 17 534 17 q 687 28 637 17 q 762 59 736 40 q 796 103 787 79 q 805 198 805 127 q 789 335 805 315 q 691 360 774 354 l 664 362 l 646 361 q 635 363 642 362 l 625 380 q 629 389 625 384 q 783 395 665 395 q 869 393 809 395 l 939 391 l 1002 391 q 1046 390 1020 391 q 1052 388 1050 389 q 1053 382 1053 386 q 1050 363 1053 374 q 1006 357 1021 357 l 962 357 q 926 342 939 357 q 919 291 919 334 l 920 202 q 912 85 920 111 q 895 59 908 71 q 841 31 882 47 q 734 -1 782 7 q 561 -17 644 -17 q 341 17 427 -17 q 193 113 255 52 q 104 236 131 174 q 64 422 64 328 q 127 655 64 541 q 330 840 190 768 q 597 890 428 890 q 788 869 713 890 q 905 823 862 849 m 394 1145 l 413 1145 q 461 1060 424 1090 q 559 1031 498 1031 q 658 1061 621 1031 q 705 1144 696 1091 l 728 1144 q 675 1007 726 1061 q 558 954 624 954 q 431 1023 481 954 q 394 1137 394 1075 l 394 1145 z "},"":{"ha":622,"x_min":9,"x_max":640,"o":"m 183 -45 q 131 -22 175 -41 q 66 27 79 11 q 52 63 52 43 q 62 92 52 81 q 121 121 77 107 q 194 149 165 136 q 166 167 185 155 q 65 340 65 229 q 129 493 65 431 q 294 556 193 556 q 377 543 339 556 q 441 509 399 536 q 473 490 469 492 q 498 487 484 487 q 554 493 509 487 q 606 498 598 498 q 632 492 622 498 q 640 447 640 479 q 634 431 640 436 q 618 425 629 425 q 555 437 599 425 q 502 449 511 449 q 489 448 498 449 q 518 341 518 389 q 488 241 518 293 q 404 163 457 190 q 295 136 350 136 q 272 136 291 136 q 157 105 210 136 q 132 76 132 90 q 157 48 132 62 q 401 8 221 14 q 522 -14 479 5 q 588 -72 566 -34 q 610 -151 610 -111 q 572 -253 610 -206 q 459 -329 535 -300 q 285 -358 383 -358 q 117 -332 176 -358 q 34 -274 58 -305 q 9 -212 9 -243 q 36 -146 9 -186 q 149 -63 63 -106 q 183 -45 174 -50 m 156 342 q 174 240 156 281 q 224 179 193 199 q 289 159 256 159 q 387 204 348 159 q 426 342 426 250 q 385 483 426 435 q 287 532 345 532 q 189 486 222 532 q 156 342 156 439 m 134 -286 q 290 -333 195 -333 q 424 -312 357 -333 q 521 -251 490 -290 q 552 -176 552 -211 q 541 -133 552 -154 q 512 -97 530 -111 q 463 -75 493 -83 q 401 -66 441 -69 q 261 -58 287 -58 q 132 -106 189 -58 q 87 -197 87 -144 q 134 -286 87 -246 m 156 836 l 175 836 q 223 752 186 781 q 321 722 260 722 q 420 752 382 722 q 467 836 458 783 l 490 836 q 437 699 488 753 q 320 645 386 645 q 193 715 243 645 q 156 828 156 766 l 156 836 z "},"":{"ha":492,"x_min":29,"x_max":450,"o":"m 29 22 q 60 29 44 28 q 178 54 163 36 q 193 228 193 72 l 193 299 l 193 374 l 190 456 l 191 504 l 191 557 l 191 619 l 189 647 l 191 682 q 191 711 191 694 q 187 801 191 753 q 180 819 184 810 q 99 837 155 832 q 35 846 43 841 q 29 867 30 850 l 86 867 l 266 863 q 450 867 335 863 q 449 847 450 857 q 404 840 435 844 q 325 825 339 832 q 312 814 316 822 q 304 768 305 802 l 300 681 l 303 379 l 303 260 q 302 183 302 203 q 306 86 302 107 q 318 56 309 65 q 349 41 328 47 q 397 33 380 34 q 446 22 435 32 q 448 7 448 14 l 448 2 q 357 0 386 0 q 296 2 340 0 l 203 1 l 43 1 l 31 1 l 29 22 m 208 1064 q 224 1107 208 1090 q 266 1124 241 1124 q 307 1107 290 1124 q 324 1066 324 1090 q 307 1024 324 1042 q 266 1007 290 1007 q 225 1024 242 1007 q 208 1064 208 1041 z "},"":{"ha":665,"x_min":52,"x_max":607,"o":"m 539 837 q 545 785 545 792 l 542 725 q 538 675 541 686 q 528 673 532 673 l 522 674 q 449 812 500 769 q 322 856 397 856 q 195 812 245 856 q 146 711 146 769 q 180 631 146 667 q 357 521 215 594 q 513 429 466 465 q 583 347 559 393 q 607 242 607 300 q 569 106 607 170 q 468 10 532 42 q 299 -22 404 -22 q 123 7 208 -22 q 63 35 74 24 q 52 58 52 46 q 54 77 52 66 q 64 209 63 157 q 68 246 65 241 q 79 251 71 251 q 89 247 85 251 q 94 230 92 242 q 171 81 101 146 q 328 15 240 15 q 426 37 381 15 q 497 102 471 60 q 522 184 522 144 q 484 285 522 239 q 328 391 445 330 q 176 479 212 452 q 91 576 119 525 q 70 667 70 615 q 144 827 70 762 q 345 892 219 892 q 464 877 414 892 q 539 837 500 865 m 259 -119 q 283 -86 266 -108 q 349 9 309 -54 l 372 9 l 319 -75 q 372 -170 372 -116 q 337 -257 372 -222 q 252 -292 302 -292 q 193 -273 216 -292 q 170 -235 170 -254 q 179 -210 170 -222 q 195 -202 186 -202 q 231 -231 210 -202 q 275 -260 252 -260 q 308 -243 293 -260 q 323 -197 323 -225 q 307 -151 323 -172 q 259 -119 291 -130 z "},"":{"ha":507,"x_min":77,"x_max":447,"o":"m 98 172 q 136 89 123 108 q 198 29 162 50 q 276 7 234 7 q 353 41 315 7 q 380 99 380 66 q 348 180 380 143 q 227 251 316 217 q 107 322 138 284 q 77 409 77 360 q 102 490 77 455 q 171 544 127 526 q 252 562 215 562 q 339 554 300 562 q 405 531 377 547 q 414 429 410 496 l 415 408 q 400 407 406 407 l 391 407 q 329 496 370 463 q 246 529 287 529 q 180 504 205 529 q 155 439 155 479 q 176 385 155 409 q 271 331 196 361 q 380 274 346 300 q 431 211 414 248 q 447 140 447 174 q 416 52 447 93 q 339 -5 385 12 q 256 -22 292 -22 q 97 10 170 -22 q 90 31 90 16 q 88 50 90 37 q 77 159 77 142 q 81 170 77 167 q 98 172 84 172 m 178 -119 q 203 -86 185 -108 q 269 9 229 -54 l 292 9 l 239 -75 q 292 -170 292 -116 q 257 -257 292 -222 q 172 -292 222 -292 q 112 -273 136 -292 q 89 -235 89 -254 q 98 -210 89 -222 q 115 -202 105 -202 q 151 -231 130 -202 q 194 -260 172 -260 q 227 -243 212 -260 q 242 -197 242 -225 q 226 -151 242 -172 q 178 -119 210 -130 z "},"":{"ha":882,"x_min":60,"x_max":835,"o":"m 804 830 q 812 723 812 778 q 811 694 812 712 q 797 692 802 692 q 785 693 793 692 q 692 815 757 772 q 533 858 628 858 q 448 846 483 858 q 341 788 387 825 q 263 700 295 751 q 213 576 231 649 q 194 427 194 503 q 238 188 194 282 q 359 53 282 93 q 513 12 435 12 l 545 13 q 619 26 600 20 q 701 59 669 40 q 764 114 733 79 q 817 196 795 149 l 825 199 q 835 195 828 199 q 833 174 834 178 q 792 17 805 59 q 765 9 781 14 q 553 -18 686 -18 q 392 -4 446 -18 q 276 42 339 11 q 166 123 214 73 q 90 252 119 174 q 60 421 60 330 q 83 573 60 508 q 155 704 106 637 q 268 814 203 770 q 414 877 334 859 q 573 889 470 889 q 715 869 648 889 q 804 830 781 849 m 443 954 l 527 1075 q 600 1152 564 1128 q 632 1162 614 1162 q 661 1152 650 1162 q 672 1128 672 1142 q 663 1101 672 1116 q 617 1063 653 1087 l 458 954 l 450 953 l 443 954 z "},"":{"ha":578,"x_min":53,"x_max":543,"o":"m 542 124 l 543 80 q 438 1 490 24 q 317 -21 387 -21 q 180 19 241 -21 q 86 131 119 58 q 53 273 53 203 q 93 418 53 350 q 198 520 132 486 q 362 553 263 553 q 507 521 457 553 q 534 472 534 502 q 520 436 534 450 q 484 422 506 422 q 409 464 450 422 q 363 499 384 490 q 318 509 343 509 q 218 460 258 509 q 162 283 162 389 q 219 108 162 173 q 352 43 276 43 q 446 60 405 43 q 542 124 487 77 m 250 667 l 334 789 q 407 866 371 842 q 439 876 422 876 q 469 866 458 876 q 479 842 479 856 q 470 815 479 829 q 425 777 460 801 l 265 667 l 258 667 l 250 667 z "},"":{"ha":882,"x_min":60,"x_max":835,"o":"m 804 830 q 812 723 812 778 q 811 694 812 712 q 797 692 802 692 q 785 693 793 692 q 692 815 757 772 q 533 858 628 858 q 448 846 483 858 q 341 788 387 825 q 263 700 295 751 q 213 576 231 649 q 194 427 194 503 q 238 188 194 282 q 359 53 282 93 q 513 12 435 12 l 545 13 q 619 26 600 20 q 701 59 669 40 q 764 114 733 79 q 817 196 795 149 l 825 199 q 835 195 828 199 q 833 174 834 178 q 792 17 805 59 q 765 9 781 14 q 553 -18 686 -18 q 392 -4 446 -18 q 276 42 339 11 q 166 123 214 73 q 90 252 119 174 q 60 421 60 330 q 83 573 60 508 q 155 704 106 637 q 268 814 203 770 q 414 877 334 859 q 573 889 470 889 q 715 869 648 889 q 804 830 781 849 m 669 1175 q 539 954 576 1012 l 500 954 q 446 1044 493 964 l 371 1174 l 374 1192 q 500 1067 393 1173 q 527 1043 511 1057 q 667 1194 544 1062 q 669 1183 669 1188 l 669 1175 z "},"":{"ha":578,"x_min":53,"x_max":543,"o":"m 542 124 l 543 80 q 438 1 490 24 q 317 -21 387 -21 q 180 19 241 -21 q 86 131 119 58 q 53 273 53 203 q 93 418 53 350 q 198 520 132 486 q 362 553 263 553 q 507 521 457 553 q 534 472 534 502 q 520 436 534 450 q 484 422 506 422 q 409 464 450 422 q 363 499 384 490 q 318 509 343 509 q 218 460 258 509 q 162 283 162 389 q 219 108 162 173 q 352 43 276 43 q 446 60 405 43 q 542 124 487 77 m 496 884 q 367 663 404 721 l 328 663 q 274 753 321 673 l 199 883 l 201 901 q 328 777 220 882 q 355 752 339 766 q 494 903 372 771 q 496 892 496 897 l 496 884 z "},"":{"ha":694,"x_min":45,"x_max":704,"o":"m 496 667 q 373 667 395 667 l 264 667 l 264 704 q 386 703 357 703 l 496 704 l 496 734 q 483 820 496 803 q 403 855 470 838 q 388 859 398 857 l 388 867 q 389 882 388 873 q 548 913 481 891 l 583 914 q 585 809 585 868 q 584 705 585 774 l 638 705 q 704 704 660 705 l 704 667 q 648 667 663 667 l 584 667 q 583 551 583 574 l 587 256 l 585 99 q 592 45 585 51 q 652 31 606 31 q 677 29 661 31 l 677 17 q 677 7 677 12 q 633 -2 656 2 l 535 -21 q 500 -25 513 -25 l 500 40 q 465 26 489 37 q 270 -18 359 -18 q 161 17 216 -18 q 75 114 105 52 q 45 241 45 176 q 65 353 45 300 q 117 441 85 406 q 174 487 137 465 q 236 516 212 510 q 317 532 296 532 q 467 505 408 532 q 495 492 486 496 l 496 512 l 495 591 l 496 667 m 496 73 q 498 260 498 119 q 487 412 498 380 q 431 472 476 444 q 331 500 387 500 q 199 439 253 500 q 144 261 144 379 q 203 96 144 157 q 349 34 262 34 q 441 47 399 34 q 496 73 482 61 z "},"":{"ha":434,"x_min":52,"x_max":382,"o":"m 56 300 l 65 300 l 118 299 l 209 302 l 275 300 l 310 302 q 381 296 358 302 l 382 242 q 315 239 340 239 q 267 241 291 239 q 227 243 234 243 l 199 242 q 170 241 186 241 q 53 249 85 241 l 52 269 q 56 300 52 280 z "},"":{"ha":694,"x_min":-8,"x_max":703,"o":"m -8 1102 l 703 1102 l 703 1032 l -8 1032 l -8 1102 z "},"":{"ha":463,"x_min":161,"x_max":302,"o":"m 161 469 q 183 522 161 499 q 234 544 205 544 q 282 523 262 544 q 302 470 302 502 q 281 416 302 437 q 231 395 260 395 q 182 417 203 395 q 161 469 161 439 z "},"":{"ha":941,"x_min":-10,"x_max":930,"o":"m -7 22 q 9 27 2 27 l 25 27 q 41 28 30 27 q 103 37 94 33 q 144 82 127 50 q 223 278 179 151 q 250 351 244 338 q 282 437 267 392 l 346 615 q 418 808 361 657 q 452 909 432 846 l 472 911 l 496 910 q 547 786 525 852 q 587 681 559 751 l 690 402 l 745 251 q 802 93 789 122 q 827 54 816 63 q 853 45 831 51 q 884 37 875 40 q 927 22 915 28 q 930 11 930 15 q 928 1 930 7 q 897 0 906 0 q 775 2 863 0 l 707 4 l 625 3 q 609 4 617 3 q 594 5 600 5 l 579 5 q 566 9 572 5 q 569 27 566 18 q 584 32 577 31 l 655 37 q 697 44 683 38 q 701 62 701 56 q 684 125 701 75 q 662 190 671 159 q 590 391 653 220 q 541 395 562 395 l 396 394 l 353 395 q 302 391 330 395 q 291 362 294 371 l 231 176 q 193 58 193 69 q 199 38 193 52 q 237 31 214 34 l 330 22 q 337 12 337 16 q 335 1 337 8 q 288 1 304 1 q 162 4 234 1 q 115 5 129 5 q 65 4 100 5 q 32 3 42 3 q -10 5 16 3 l -10 9 q -7 22 -10 14 m 316 429 q 481 425 389 425 q 574 428 534 425 q 559 477 568 454 q 510 608 515 595 l 448 764 l 441 777 q 412 707 437 768 q 349 542 368 601 q 331 489 340 515 q 319 453 321 463 q 312 431 317 442 l 316 429 m 283 1019 q 283 1049 283 1039 q 283 1080 283 1059 l 369 1077 q 646 1080 444 1077 q 647 1049 647 1059 q 646 1019 647 1039 q 494 1017 510 1017 q 283 1019 325 1017 z "},"":{"ha":564,"x_min":45,"x_max":555,"o":"m 551 92 q 555 79 555 83 q 539 43 555 69 q 492 -6 518 9 q 448 -16 476 -16 q 374 14 399 -16 q 353 77 359 31 l 277 24 q 216 -5 237 1 q 135 -14 182 -14 q 80 6 100 -14 q 60 60 60 27 q 118 172 60 106 q 273 278 175 237 q 358 315 342 307 q 359 364 359 338 q 335 481 359 450 q 267 511 311 511 q 179 475 220 511 q 141 388 154 452 q 125 350 137 370 q 79 331 96 331 q 52 340 64 331 q 45 351 45 345 q 82 430 45 368 q 177 523 120 492 q 277 554 235 554 q 364 544 336 554 q 414 507 393 533 q 441 449 436 480 q 444 342 444 434 l 441 235 l 442 156 q 441 130 442 140 q 441 100 441 110 q 454 64 441 78 q 484 51 467 51 q 528 77 510 51 l 536 87 q 551 92 540 90 m 352 112 q 357 233 357 198 q 355 283 357 252 q 258 233 309 267 q 178 157 208 200 q 156 98 156 125 q 174 54 156 71 q 219 36 192 36 q 270 51 240 36 q 352 112 309 71 m 106 742 q 105 772 105 762 q 106 804 105 783 l 191 800 q 468 804 267 800 q 469 772 469 783 q 468 742 469 762 q 317 740 332 740 q 106 742 147 740 z "}}}
